<?xml version="1.0" encoding="utf-8" standalone="no"?>
<!DOCTYPE svg PUBLIC "-//W3C//DTD SVG 1.1//EN"
  "http://www.w3.org/Graphics/SVG/1.1/DTD/svg11.dtd">
<!-- Created with matplotlib (https://matplotlib.org/) -->
<svg height="360pt" version="1.1" viewBox="0 0 1080 360" width="1080pt" xmlns="http://www.w3.org/2000/svg" xmlns:xlink="http://www.w3.org/1999/xlink">
 <defs>
  <style type="text/css">
*{stroke-linecap:butt;stroke-linejoin:round;white-space:pre;}
  </style>
 </defs>
 <g id="figure_1">
  <g id="patch_1">
   <path d="M 0 360 
L 1080 360 
L 1080 0 
L 0 0 
z
" style="fill:#ffffff;"/>
  </g>
  <g id="axes_1">
   <g id="patch_2">
    <path d="M 35.81 329.44 
L 369.646667 329.44 
L 369.646667 8.991935 
L 35.81 8.991935 
z
" style="fill:#ffffff;"/>
   </g>
   <g id="matplotlib.axis_1">
    <g id="xtick_1">
     <g id="line2d_1">
      <defs>
       <path d="M 0 0 
L 0 3.5 
" id="m237f02fe15" style="stroke:#000000;stroke-width:0.8;"/>
      </defs>
      <g>
       <use style="stroke:#000000;stroke-width:0.8;" x="50.984394" xlink:href="#m237f02fe15" y="329.44"/>
      </g>
     </g>
     <g id="text_1">
      <text style="font-family:DejaVu Sans;font-size:7px;font-style:normal;font-weight:normal;text-anchor:middle;" transform="rotate(-0, 50.984394, 341.758906)" x="50.984394" y="341.758906">0.0</text>
     </g>
    </g>
    <g id="xtick_2">
     <g id="line2d_2">
      <g>
       <use style="stroke:#000000;stroke-width:0.8;" x="111.68197" xlink:href="#m237f02fe15" y="329.44"/>
      </g>
     </g>
     <g id="text_2">
      <text style="font-family:DejaVu Sans;font-size:7px;font-style:normal;font-weight:normal;text-anchor:middle;" transform="rotate(-0, 111.68197, 341.758906)" x="111.68197" y="341.758906">0.2</text>
     </g>
    </g>
    <g id="xtick_3">
     <g id="line2d_3">
      <g>
       <use style="stroke:#000000;stroke-width:0.8;" x="172.379545" xlink:href="#m237f02fe15" y="329.44"/>
      </g>
     </g>
     <g id="text_3">
      <text style="font-family:DejaVu Sans;font-size:7px;font-style:normal;font-weight:normal;text-anchor:middle;" transform="rotate(-0, 172.379545, 341.758906)" x="172.379545" y="341.758906">0.4</text>
     </g>
    </g>
    <g id="xtick_4">
     <g id="line2d_4">
      <g>
       <use style="stroke:#000000;stroke-width:0.8;" x="233.077121" xlink:href="#m237f02fe15" y="329.44"/>
      </g>
     </g>
     <g id="text_4">
      <text style="font-family:DejaVu Sans;font-size:7px;font-style:normal;font-weight:normal;text-anchor:middle;" transform="rotate(-0, 233.077121, 341.758906)" x="233.077121" y="341.758906">0.6</text>
     </g>
    </g>
    <g id="xtick_5">
     <g id="line2d_5">
      <g>
       <use style="stroke:#000000;stroke-width:0.8;" x="293.774697" xlink:href="#m237f02fe15" y="329.44"/>
      </g>
     </g>
     <g id="text_5">
      <text style="font-family:DejaVu Sans;font-size:7px;font-style:normal;font-weight:normal;text-anchor:middle;" transform="rotate(-0, 293.774697, 341.758906)" x="293.774697" y="341.758906">0.8</text>
     </g>
    </g>
    <g id="xtick_6">
     <g id="line2d_6">
      <g>
       <use style="stroke:#000000;stroke-width:0.8;" x="354.472273" xlink:href="#m237f02fe15" y="329.44"/>
      </g>
     </g>
     <g id="text_6">
      <text style="font-family:DejaVu Sans;font-size:7px;font-style:normal;font-weight:normal;text-anchor:middle;" transform="rotate(-0, 354.472273, 341.758906)" x="354.472273" y="341.758906">1.0</text>
     </g>
    </g>
    <g id="text_7">
     <text style="font-family:DejaVu Sans;font-size:7px;font-style:normal;font-weight:normal;text-anchor:middle;" transform="rotate(-0, 202.728333, 352.533594)" x="202.728333" y="352.533594">Stimulation Intensity</text>
    </g>
   </g>
   <g id="matplotlib.axis_2">
    <g id="ytick_1">
     <g id="line2d_7">
      <defs>
       <path d="M 0 0 
L -3.5 0 
" id="m665b147d07" style="stroke:#000000;stroke-width:0.8;"/>
      </defs>
      <g>
       <use style="stroke:#000000;stroke-width:0.8;" x="35.81" xlink:href="#m665b147d07" y="315.897911"/>
      </g>
     </g>
     <g id="text_8">
      <text style="font-family:DejaVu Sans;font-size:7px;font-style:normal;font-weight:normal;text-anchor:end;" transform="rotate(-0, 28.81, 318.557364)" x="28.81" y="318.557364">0.4</text>
     </g>
    </g>
    <g id="ytick_2">
     <g id="line2d_8">
      <g>
       <use style="stroke:#000000;stroke-width:0.8;" x="35.81" xlink:href="#m665b147d07" y="254.768563"/>
      </g>
     </g>
     <g id="text_9">
      <text style="font-family:DejaVu Sans;font-size:7px;font-style:normal;font-weight:normal;text-anchor:end;" transform="rotate(-0, 28.81, 257.428016)" x="28.81" y="257.428016">0.6</text>
     </g>
    </g>
    <g id="ytick_3">
     <g id="line2d_9">
      <g>
       <use style="stroke:#000000;stroke-width:0.8;" x="35.81" xlink:href="#m665b147d07" y="193.639214"/>
      </g>
     </g>
     <g id="text_10">
      <text style="font-family:DejaVu Sans;font-size:7px;font-style:normal;font-weight:normal;text-anchor:end;" transform="rotate(-0, 28.81, 196.298667)" x="28.81" y="196.298667">0.8</text>
     </g>
    </g>
    <g id="ytick_4">
     <g id="line2d_10">
      <g>
       <use style="stroke:#000000;stroke-width:0.8;" x="35.81" xlink:href="#m665b147d07" y="132.509865"/>
      </g>
     </g>
     <g id="text_11">
      <text style="font-family:DejaVu Sans;font-size:7px;font-style:normal;font-weight:normal;text-anchor:end;" transform="rotate(-0, 28.81, 135.169318)" x="28.81" y="135.169318">1.0</text>
     </g>
    </g>
    <g id="ytick_5">
     <g id="line2d_11">
      <g>
       <use style="stroke:#000000;stroke-width:0.8;" x="35.81" xlink:href="#m665b147d07" y="71.380516"/>
      </g>
     </g>
     <g id="text_12">
      <text style="font-family:DejaVu Sans;font-size:7px;font-style:normal;font-weight:normal;text-anchor:end;" transform="rotate(-0, 28.81, 74.039969)" x="28.81" y="74.039969">1.2</text>
     </g>
    </g>
    <g id="ytick_6">
     <g id="line2d_12">
      <g>
       <use style="stroke:#000000;stroke-width:0.8;" x="35.81" xlink:href="#m665b147d07" y="10.251167"/>
      </g>
     </g>
     <g id="text_13">
      <text style="font-family:DejaVu Sans;font-size:7px;font-style:normal;font-weight:normal;text-anchor:end;" transform="rotate(-0, 28.81, 12.910621)" x="28.81" y="12.910621">1.4</text>
     </g>
    </g>
    <g id="text_14">
     <text style="font-family:DejaVu Sans;font-size:7px;font-style:normal;font-weight:normal;text-anchor:middle;" transform="rotate(-90, 12.222031, 169.215967)" x="12.222031" y="169.215967">Activity</text>
    </g>
   </g>
   <g id="line2d_13">
    <path clip-path="url(#pe390957d8a)" d="M 50.984394 314.780075 
L 50.997394 314.726881 
L 51.036393 314.845212 
L 51.101383 314.874179 
L 51.45217 313.216584 
L 51.620971 313.294991 
L 51.815663 313.599297 
L 52.036214 313.617107 
L 53.176174 312.685161 
L 53.52536 312.694449 
L 53.900111 312.96303 
L 55.177091 314.580964 
L 55.653417 314.836654 
L 58.411271 312.90724 
L 59.037425 312.847998 
L 59.6882 312.561484 
L 60.363484 311.527998 
L 61.787113 307.875696 
L 63.307336 303.867162 
L 64.103347 302.100085 
L 64.923111 300.97339 
L 66.63333 299.822679 
L 67.523493 299.051711 
L 68.436823 297.90057 
L 73.345356 290.387076 
L 74.394262 288.830912 
L 75.465157 286.792335 
L 76.557859 284.952862 
L 81.142923 276.31711 
L 83.561249 272.037659 
L 86.061245 266.745614 
L 87.341337 264.741892 
L 88.641199 263.191814 
L 89.96061 261.938878 
L 91.299343 260.470806 
L 94.033855 256.659232 
L 95.429165 254.402515 
L 98.274698 248.525774 
L 99.724434 245.376145 
L 102.676602 239.466731 
L 105.69734 233.188368 
L 107.232778 230.442814 
L 108.784579 228.58627 
L 111.936201 226.27659 
L 113.535484 224.689635 
L 116.77962 221.18286 
L 118.423918 220.02369 
L 121.755565 218.522093 
L 123.442343 217.935244 
L 125.142706 216.959173 
L 126.856364 214.963212 
L 128.583021 212.452619 
L 133.838026 205.602543 
L 135.613705 202.822224 
L 139.199255 196.463211 
L 141.008513 193.449718 
L 144.658442 187.964736 
L 146.498488 184.69126 
L 150.207168 177.131638 
L 155.836877 167.620942 
L 157.729947 164.868309 
L 159.630726 163.087367 
L 161.53889 161.784731 
L 165.376063 158.704421 
L 169.238835 154.520993 
L 171.178994 152.137328 
L 175.075197 146.97687 
L 180.954198 139.556523 
L 184.892746 135.742376 
L 186.866773 133.684239 
L 188.843517 131.398904 
L 196.770894 123.605661 
L 198.75614 121.304077 
L 200.742067 118.386538 
L 202.728333 114.923723 
L 206.700527 107.122821 
L 210.669998 101.373326 
L 212.652862 99.39933 
L 214.634026 98.314765 
L 216.613149 97.962296 
L 218.589894 97.875941 
L 220.563921 97.086121 
L 222.534892 95.59875 
L 224.502469 93.764081 
L 226.466315 92.121613 
L 228.426094 91.096012 
L 230.38147 90.3776 
L 234.277672 88.665057 
L 236.217832 88.21428 
L 238.152252 88.134612 
L 240.080604 87.696002 
L 243.917777 86.575506 
L 245.825941 86.191586 
L 247.72672 84.900932 
L 251.504824 80.47623 
L 253.381501 77.885841 
L 255.249499 75.11053 
L 257.108498 71.622774 
L 258.958179 67.705804 
L 262.628321 58.134992 
L 264.448154 54.420918 
L 266.257411 51.290425 
L 268.055783 49.048243 
L 269.842962 47.988674 
L 271.61864 47.632233 
L 273.382515 47.072154 
L 275.134283 46.365785 
L 276.873645 46.035271 
L 278.600303 46.365926 
L 280.31396 47.179031 
L 282.014324 47.835806 
L 285.374006 48.658275 
L 288.677047 49.214916 
L 290.306618 49.804943 
L 291.921183 50.569067 
L 293.520465 51.513401 
L 295.104191 52.150069 
L 296.672088 51.555199 
L 298.223889 49.639144 
L 299.759326 46.809211 
L 307.181968 31.611779 
L 308.613807 28.924247 
L 310.027502 26.569535 
L 311.422812 24.802801 
L 312.799498 23.557756 
L 314.157324 23.686579 
L 315.496057 24.836681 
L 316.815468 26.542731 
L 318.11533 28.510621 
L 319.395422 29.603815 
L 320.655523 29.635026 
L 321.895418 28.440641 
L 323.114895 26.983364 
L 324.313743 25.891659 
L 325.491759 25.321093 
L 326.64874 25.199399 
L 328.898808 25.498224 
L 329.991509 25.719756 
L 331.062405 26.223637 
L 332.111311 26.322316 
L 333.138048 26.107433 
L 334.14244 26.313622 
L 336.083504 27.252246 
L 337.933173 27.695757 
L 339.69018 29.188312 
L 340.533556 30.112406 
L 341.35332 31.600562 
L 342.149331 32.626912 
L 342.921453 34.134413 
L 347.045396 45.67801 
L 347.646822 46.40732 
L 348.223417 46.16307 
L 348.775082 45.593493 
L 349.80325 43.929477 
L 350.279576 43.551446 
L 350.730619 42.498473 
L 351.556555 39.744363 
L 352.280492 37.814825 
L 353.420453 35.617986 
L 354.004497 32.045539 
L 354.264313 28.864212 
L 354.420274 26.940989 
L 354.459272 27.549281 
L 354.420274 33.973717 
L 354.264313 34.916432 
L 354.004497 35.257752 
L 353.420453 38.052854 
L 353.174082 38.846507 
L 352.901933 39.029171 
L 352.604053 38.893853 
L 352.280492 38.549371 
L 351.931306 38.735314 
L 351.156304 40.120385 
L 349.301723 40.206528 
L 348.775082 40.580999 
L 348.223417 40.675322 
L 347.646822 40.647208 
L 347.045396 40.802211 
L 346.419242 41.106925 
L 345.768467 42.118682 
L 343.669554 48.01776 
L 342.149331 51.591911 
L 340.533556 55.466017 
L 339.69018 57.133039 
L 338.823336 57.875021 
L 337.933173 58.131462 
L 337.019844 58.692357 
L 336.083504 59.127651 
L 335.124315 59.123616 
L 334.14244 58.713703 
L 333.138048 57.858543 
L 332.111311 57.310682 
L 331.062405 57.21163 
L 329.991509 57.662438 
L 328.898808 58.587165 
L 327.784488 60.010099 
L 326.64874 61.278482 
L 323.114895 65.963342 
L 321.895418 68.381883 
L 320.655523 71.091237 
L 319.395422 73.310549 
L 318.11533 74.566672 
L 316.815468 75.222994 
L 315.496057 76.127565 
L 314.157324 77.350733 
L 312.799498 78.74893 
L 310.027502 81.049989 
L 308.613807 81.752767 
L 307.181968 81.935213 
L 304.264848 81.426068 
L 296.672088 81.679879 
L 295.104191 82.407823 
L 293.520465 83.848872 
L 291.921183 85.079176 
L 290.306618 85.818027 
L 288.677047 86.188799 
L 287.032749 86.839007 
L 282.014324 91.45249 
L 280.31396 91.980979 
L 278.600303 91.31737 
L 276.873645 90.29304 
L 275.134283 89.098897 
L 273.382515 87.307609 
L 271.61864 85.897688 
L 269.842962 85.112059 
L 268.055783 84.910581 
L 266.257411 85.759148 
L 264.448154 87.1951 
L 260.798225 88.956707 
L 257.108498 90.082669 
L 255.249499 91.181677 
L 253.381501 92.763637 
L 249.619789 96.266094 
L 247.72672 97.131571 
L 243.917777 98.144695 
L 242.002555 99.015558 
L 240.080604 100.336292 
L 238.152252 101.438186 
L 236.217832 102.284601 
L 234.277672 102.626499 
L 232.332107 102.780773 
L 230.38147 103.700856 
L 222.534892 108.761517 
L 218.589894 112.064384 
L 216.613149 114.062969 
L 214.634026 116.425304 
L 212.652862 118.14169 
L 208.685772 120.983888 
L 206.700527 121.931553 
L 204.7146 122.333417 
L 202.728333 122.979074 
L 200.742067 124.094132 
L 196.770894 128.238099 
L 194.786669 129.910503 
L 192.803805 131.310606 
L 188.843517 133.577064 
L 186.866773 135.151483 
L 180.954198 139.06857 
L 177.030572 140.666724 
L 175.075197 141.625712 
L 173.124559 142.1349 
L 169.238835 141.920027 
L 167.304414 142.017441 
L 165.376063 142.259382 
L 161.53889 143.15669 
L 155.836877 143.376077 
L 153.951843 143.608952 
L 152.075166 144.272043 
L 150.207168 145.105102 
L 148.348169 146.074827 
L 146.498488 146.588775 
L 141.008513 146.953271 
L 139.199255 147.183389 
L 137.400884 147.259576 
L 135.613705 146.957144 
L 132.074152 145.489503 
L 130.322383 145.454942 
L 128.583021 145.995758 
L 125.142706 147.845337 
L 123.442343 148.277729 
L 121.755565 148.176643 
L 120.082661 147.849568 
L 118.423918 146.961293 
L 116.77962 146.431578 
L 115.150049 146.711746 
L 113.535484 147.730034 
L 111.936201 149.288829 
L 110.352476 150.369269 
L 108.784579 150.845829 
L 107.232778 151.514362 
L 104.178528 153.43632 
L 102.676602 153.976844 
L 101.191819 153.939158 
L 96.84286 151.849716 
L 95.429165 150.974021 
L 94.033855 150.944468 
L 92.657169 151.437998 
L 91.299343 152.54734 
L 89.96061 154.362218 
L 87.341337 157.684049 
L 86.061245 159.331141 
L 84.801144 160.593641 
L 81.142923 163.531941 
L 79.964908 164.017559 
L 78.807927 164.045804 
L 77.672179 163.841543 
L 76.557859 163.22173 
L 75.465157 162.132362 
L 74.394262 161.641192 
L 73.345356 161.861051 
L 71.314227 163.639758 
L 70.332352 163.866239 
L 68.436823 163.250009 
L 67.523493 162.550575 
L 66.63333 161.690056 
L 65.766487 161.280812 
L 62.535214 160.993653 
L 61.787113 161.288822 
L 61.063162 162.017645 
L 60.363484 163.534073 
L 59.037425 166.80019 
L 58.411271 168.096853 
L 57.809845 168.797791 
L 56.681584 169.682052 
L 55.653417 170.823936 
L 55.177091 170.959918 
L 54.726047 170.642649 
L 54.300363 169.498535 
L 53.52536 166.2426 
L 53.176174 165.542511 
L 52.554733 165.726742 
L 52.282584 165.485181 
L 51.620971 163.093049 
L 51.45217 162.417125 
L 51.309289 162.328468 
L 51.101383 163.636133 
L 50.997394 165.335858 
L 50.997394 165.335858 
" style="fill:none;stroke:#f08080;stroke-linecap:square;stroke-width:1.5;"/>
   </g>
   <g id="patch_3">
    <path d="M 35.81 329.44 
L 35.81 8.991935 
" style="fill:none;stroke:#000000;stroke-linecap:square;stroke-linejoin:miter;stroke-width:0.8;"/>
   </g>
   <g id="patch_4">
    <path d="M 369.646667 329.44 
L 369.646667 8.991935 
" style="fill:none;stroke:#000000;stroke-linecap:square;stroke-linejoin:miter;stroke-width:0.8;"/>
   </g>
   <g id="patch_5">
    <path d="M 35.81 329.44 
L 369.646667 329.44 
" style="fill:none;stroke:#000000;stroke-linecap:square;stroke-linejoin:miter;stroke-width:0.8;"/>
   </g>
   <g id="patch_6">
    <path d="M 35.81 8.991935 
L 369.646667 8.991935 
" style="fill:none;stroke:#000000;stroke-linecap:square;stroke-linejoin:miter;stroke-width:0.8;"/>
   </g>
   <g id="legend_1">
    <g id="patch_7">
     <path d="M 40.71 24.866622 
L 102.866719 24.866622 
Q 104.266719 24.866622 104.266719 23.466622 
L 104.266719 13.891935 
Q 104.266719 12.491935 102.866719 12.491935 
L 40.71 12.491935 
Q 39.31 12.491935 39.31 13.891935 
L 39.31 23.466622 
Q 39.31 24.866622 40.71 24.866622 
z
" style="fill:#ffffff;opacity:0.8;stroke:#cccccc;stroke-linejoin:miter;"/>
    </g>
    <g id="line2d_14">
     <path d="M 42.11 18.160841 
L 56.11 18.160841 
" style="fill:none;stroke:#f08080;stroke-linecap:square;stroke-width:1.5;"/>
    </g>
    <g id="line2d_15"/>
    <g id="text_15">
     <text style="font-family:DejaVu Sans;font-size:7px;font-style:normal;font-weight:normal;text-anchor:start;" transform="rotate(-0, 61.71, 20.610841)" x="61.71" y="20.610841">First period</text>
    </g>
   </g>
  </g>
  <g id="axes_2">
   <g id="patch_8">
    <path d="M 387.206667 329.44 
L 721.043333 329.44 
L 721.043333 8.991935 
L 387.206667 8.991935 
z
" style="fill:#ffffff;"/>
   </g>
   <g id="matplotlib.axis_3">
    <g id="xtick_7">
     <g id="line2d_16">
      <g>
       <use style="stroke:#000000;stroke-width:0.8;" x="402.381061" xlink:href="#m237f02fe15" y="329.44"/>
      </g>
     </g>
     <g id="text_16">
      <text style="font-family:DejaVu Sans;font-size:7px;font-style:normal;font-weight:normal;text-anchor:middle;" transform="rotate(-0, 402.381061, 341.758906)" x="402.381061" y="341.758906">0.0</text>
     </g>
    </g>
    <g id="xtick_8">
     <g id="line2d_17">
      <g>
       <use style="stroke:#000000;stroke-width:0.8;" x="463.078636" xlink:href="#m237f02fe15" y="329.44"/>
      </g>
     </g>
     <g id="text_17">
      <text style="font-family:DejaVu Sans;font-size:7px;font-style:normal;font-weight:normal;text-anchor:middle;" transform="rotate(-0, 463.078636, 341.758906)" x="463.078636" y="341.758906">0.2</text>
     </g>
    </g>
    <g id="xtick_9">
     <g id="line2d_18">
      <g>
       <use style="stroke:#000000;stroke-width:0.8;" x="523.776212" xlink:href="#m237f02fe15" y="329.44"/>
      </g>
     </g>
     <g id="text_18">
      <text style="font-family:DejaVu Sans;font-size:7px;font-style:normal;font-weight:normal;text-anchor:middle;" transform="rotate(-0, 523.776212, 341.758906)" x="523.776212" y="341.758906">0.4</text>
     </g>
    </g>
    <g id="xtick_10">
     <g id="line2d_19">
      <g>
       <use style="stroke:#000000;stroke-width:0.8;" x="584.473788" xlink:href="#m237f02fe15" y="329.44"/>
      </g>
     </g>
     <g id="text_19">
      <text style="font-family:DejaVu Sans;font-size:7px;font-style:normal;font-weight:normal;text-anchor:middle;" transform="rotate(-0, 584.473788, 341.758906)" x="584.473788" y="341.758906">0.6</text>
     </g>
    </g>
    <g id="xtick_11">
     <g id="line2d_20">
      <g>
       <use style="stroke:#000000;stroke-width:0.8;" x="645.171364" xlink:href="#m237f02fe15" y="329.44"/>
      </g>
     </g>
     <g id="text_20">
      <text style="font-family:DejaVu Sans;font-size:7px;font-style:normal;font-weight:normal;text-anchor:middle;" transform="rotate(-0, 645.171364, 341.758906)" x="645.171364" y="341.758906">0.8</text>
     </g>
    </g>
    <g id="xtick_12">
     <g id="line2d_21">
      <g>
       <use style="stroke:#000000;stroke-width:0.8;" x="705.868939" xlink:href="#m237f02fe15" y="329.44"/>
      </g>
     </g>
     <g id="text_21">
      <text style="font-family:DejaVu Sans;font-size:7px;font-style:normal;font-weight:normal;text-anchor:middle;" transform="rotate(-0, 705.868939, 341.758906)" x="705.868939" y="341.758906">1.0</text>
     </g>
    </g>
    <g id="text_22">
     <text style="font-family:DejaVu Sans;font-size:7px;font-style:normal;font-weight:normal;text-anchor:middle;" transform="rotate(-0, 554.125, 352.533594)" x="554.125" y="352.533594">Stimulation Intensity</text>
    </g>
   </g>
   <g id="matplotlib.axis_4">
    <g id="ytick_7">
     <g id="line2d_22">
      <g>
       <use style="stroke:#000000;stroke-width:0.8;" x="387.206667" xlink:href="#m665b147d07" y="315.897911"/>
      </g>
     </g>
    </g>
    <g id="ytick_8">
     <g id="line2d_23">
      <g>
       <use style="stroke:#000000;stroke-width:0.8;" x="387.206667" xlink:href="#m665b147d07" y="254.768563"/>
      </g>
     </g>
    </g>
    <g id="ytick_9">
     <g id="line2d_24">
      <g>
       <use style="stroke:#000000;stroke-width:0.8;" x="387.206667" xlink:href="#m665b147d07" y="193.639214"/>
      </g>
     </g>
    </g>
    <g id="ytick_10">
     <g id="line2d_25">
      <g>
       <use style="stroke:#000000;stroke-width:0.8;" x="387.206667" xlink:href="#m665b147d07" y="132.509865"/>
      </g>
     </g>
    </g>
    <g id="ytick_11">
     <g id="line2d_26">
      <g>
       <use style="stroke:#000000;stroke-width:0.8;" x="387.206667" xlink:href="#m665b147d07" y="71.380516"/>
      </g>
     </g>
    </g>
    <g id="ytick_12">
     <g id="line2d_27">
      <g>
       <use style="stroke:#000000;stroke-width:0.8;" x="387.206667" xlink:href="#m665b147d07" y="10.251167"/>
      </g>
     </g>
    </g>
    <g id="text_23">
     <text style="font-family:DejaVu Sans;font-size:7px;font-style:normal;font-weight:normal;text-anchor:middle;" transform="rotate(-90, 381.750885, 169.215967)" x="381.750885" y="169.215967">Activity</text>
    </g>
   </g>
   <g id="line2d_28">
    <path clip-path="url(#pbbc5dfeb44)" d="M 402.381061 149.79846 
L 402.394061 149.946428 
L 402.433059 149.161148 
L 402.705956 145.68121 
L 403.017637 143.616504 
L 403.21233 143.591426 
L 403.679251 145.205354 
L 403.9514 145.21309 
L 405.296778 141.767706 
L 406.122714 141.454825 
L 406.573758 141.297276 
L 407.050084 141.870268 
L 407.55161 143.15359 
L 408.629916 147.038846 
L 411.084867 155.81947 
L 412.459828 158.516385 
L 413.18378 159.519766 
L 414.704002 161.058168 
L 415.500013 161.500461 
L 416.319777 161.817504 
L 417.163153 162.403413 
L 418.029997 163.461148 
L 419.83349 166.442067 
L 424.742023 171.464822 
L 425.790929 171.462755 
L 426.861824 170.601967 
L 427.954526 169.21062 
L 430.204593 166.912129 
L 431.361574 166.016093 
L 434.957915 164.010252 
L 437.457912 162.121377 
L 438.738003 161.677686 
L 441.357277 160.329857 
L 442.69601 159.909628 
L 444.053835 159.71767 
L 445.430521 160.192283 
L 446.825831 161.623509 
L 449.671365 165.5153 
L 451.121101 166.868268 
L 452.588486 167.982643 
L 454.073269 168.650436 
L 455.575195 168.810838 
L 457.094007 168.308756 
L 458.629445 167.472586 
L 460.181245 166.300182 
L 461.749143 165.307292 
L 463.332868 164.518519 
L 464.93215 164.113465 
L 468.176286 163.817669 
L 469.820584 163.932465 
L 471.479327 164.221146 
L 474.839009 164.250156 
L 476.539373 163.838463 
L 478.25303 162.515654 
L 479.979688 160.795599 
L 481.71905 159.496753 
L 483.470818 159.048284 
L 485.234693 158.828693 
L 487.010372 158.024171 
L 488.79755 156.838504 
L 490.595922 155.460289 
L 492.405179 154.252494 
L 494.225012 153.348215 
L 496.055108 153.418678 
L 497.895155 154.439924 
L 499.744836 155.654214 
L 503.471832 158.39591 
L 505.348509 159.448337 
L 507.233544 160.05916 
L 511.027393 160.698115 
L 512.935557 160.562592 
L 516.77273 159.33285 
L 518.701081 159.002437 
L 520.635502 158.497374 
L 524.521226 158.598244 
L 526.471863 157.843297 
L 528.427239 155.76514 
L 530.387018 153.211288 
L 532.350864 151.093825 
L 534.318441 149.826488 
L 536.289412 149.177516 
L 538.263439 149.166986 
L 540.240184 149.689248 
L 542.219308 150.984333 
L 544.200472 153.112378 
L 546.183336 155.012881 
L 548.167561 156.626599 
L 550.152807 157.950665 
L 552.138733 158.635788 
L 554.125 158.867402 
L 556.111267 158.966889 
L 562.066664 158.5795 
L 571.960588 156.302535 
L 575.899136 154.99012 
L 577.862982 154.633318 
L 579.822761 154.671148 
L 581.778137 154.410337 
L 585.674339 153.289252 
L 587.614498 153.017599 
L 589.548919 152.165579 
L 595.314443 147.522309 
L 597.222607 146.737086 
L 599.123387 146.19641 
L 601.016456 146.167395 
L 604.778168 146.666498 
L 606.646166 147.04114 
L 610.354845 148.113998 
L 612.194892 148.143777 
L 614.024988 147.647044 
L 615.844821 146.645571 
L 623.015307 142.114845 
L 624.779182 141.144078 
L 626.53095 140.963268 
L 628.270312 141.510809 
L 631.710627 143.800417 
L 633.410991 144.2407 
L 636.770673 144.484747 
L 638.429416 144.139761 
L 641.703285 142.568986 
L 643.31785 141.38625 
L 644.917132 139.283813 
L 648.068755 134.704118 
L 649.620555 133.422583 
L 651.155993 132.615506 
L 652.674805 132.831999 
L 654.176731 134.298767 
L 655.661514 136.694813 
L 658.578635 141.837008 
L 660.010473 143.489545 
L 661.424169 144.58599 
L 662.819479 144.742489 
L 664.196165 144.080361 
L 665.55399 142.892922 
L 669.511997 136.414253 
L 670.792088 134.506143 
L 674.511561 130.759479 
L 675.71041 129.340299 
L 676.888426 128.513352 
L 678.045407 128.242336 
L 679.181154 127.75825 
L 680.295474 126.603581 
L 683.507977 121.715745 
L 685.539106 118.79451 
L 686.520981 117.646152 
L 688.41651 115.223418 
L 690.220003 113.183053 
L 691.086847 112.85436 
L 691.930223 113.432931 
L 692.749987 114.774323 
L 695.06622 120.036639 
L 695.790172 121.105076 
L 696.489849 121.780172 
L 697.815908 123.343153 
L 699.043489 123.265909 
L 700.171749 123.680498 
L 701.676242 125.532878 
L 702.127286 125.363373 
L 702.953222 124.083233 
L 703.327973 123.697297 
L 703.677159 123.682849 
L 704.00072 124.128935 
L 704.2986 125.485092 
L 705.03767 129.850222 
L 705.401163 131.52042 
L 705.544044 131.050067 
L 705.855939 125.825697 
L 705.816941 121.495476 
L 705.66098 118.804789 
L 705.03767 114.764487 
L 704.81712 114.229803 
L 704.570749 114.083064 
L 704.2986 113.671308 
L 703.677159 113.350242 
L 702.953222 113.180966 
L 701.676242 111.85623 
L 701.199916 111.07153 
L 700.69839 111.498379 
L 699.043489 114.326319 
L 697.165133 118.511995 
L 696.489849 118.784212 
L 695.790172 118.792615 
L 693.545998 119.438944 
L 692.749987 119.25665 
L 691.930223 118.886276 
L 690.220003 119.24627 
L 689.32984 119.52241 
L 688.41651 120.15196 
L 687.480171 120.983322 
L 686.520981 122.290151 
L 685.539106 124.118976 
L 684.534714 125.316003 
L 682.459071 127.358237 
L 681.388176 128.609252 
L 680.295474 129.345253 
L 679.181154 129.246458 
L 678.045407 128.791899 
L 676.888426 128.092723 
L 675.71041 128.076381 
L 674.511561 127.747909 
L 673.292085 126.640409 
L 672.05219 125.053168 
L 670.792088 123.77924 
L 669.511997 123.2759 
L 668.212134 123.461229 
L 666.892723 123.913321 
L 665.55399 124.0512 
L 664.196165 123.615932 
L 662.819479 122.439077 
L 661.424169 121.060831 
L 660.010473 120.21833 
L 658.578635 120.124161 
L 657.128899 120.45491 
L 655.661514 120.342633 
L 652.674805 118.069699 
L 651.155993 117.353667 
L 649.620555 117.388111 
L 648.068755 118.079692 
L 646.500857 119.305593 
L 644.917132 120.997312 
L 643.31785 122.87342 
L 641.703285 124.307062 
L 640.073714 125.073619 
L 636.770673 124.981342 
L 633.410991 126.099996 
L 631.710627 126.118721 
L 629.99697 125.58776 
L 628.270312 124.841548 
L 626.53095 124.364013 
L 624.779182 124.537538 
L 623.015307 124.898299 
L 619.45245 125.952879 
L 617.654078 125.939712 
L 615.844821 125.18066 
L 614.024988 123.777132 
L 610.354845 120.280618 
L 608.505164 119.240307 
L 606.646166 118.463703 
L 604.778168 117.970334 
L 601.016456 117.804052 
L 597.222607 118.636081 
L 595.314443 119.473625 
L 593.399221 120.90488 
L 591.47727 121.842446 
L 589.548919 122.054741 
L 585.674339 120.941075 
L 583.728774 120.201084 
L 581.778137 119.976933 
L 579.822761 120.262803 
L 575.899136 122.40542 
L 571.960588 124.131421 
L 569.986561 124.826017 
L 568.009816 125.673969 
L 564.049528 128.136928 
L 562.066664 128.944656 
L 560.082439 129.083754 
L 558.097193 129.404583 
L 556.111267 130.301202 
L 550.152807 134.005583 
L 546.183336 137.32345 
L 544.200472 138.764692 
L 542.219308 139.577219 
L 540.240184 139.598972 
L 536.289412 138.853548 
L 534.318441 138.140693 
L 532.350864 137.551139 
L 530.387018 137.233822 
L 528.427239 136.789032 
L 524.521226 135.383589 
L 518.701081 133.838822 
L 514.850779 132.685216 
L 512.935557 133.102535 
L 511.027393 134.054949 
L 509.126613 134.840414 
L 507.233544 135.750433 
L 505.348509 136.860599 
L 503.471832 138.799716 
L 501.603834 140.13035 
L 499.744836 141.139803 
L 496.055108 142.175718 
L 494.225012 142.621389 
L 492.405179 142.487774 
L 490.595922 142.010567 
L 488.79755 140.843721 
L 485.234693 137.649893 
L 481.71905 135.336049 
L 479.979688 135.034617 
L 478.25303 134.917204 
L 476.539373 134.15731 
L 474.839009 132.788828 
L 471.479327 130.464544 
L 469.820584 129.8561 
L 468.176286 129.460904 
L 466.546715 129.643113 
L 464.93215 130.296548 
L 463.332868 131.234977 
L 461.749143 132.388601 
L 460.181245 133.277647 
L 457.094007 135.485633 
L 455.575195 136.523624 
L 454.073269 137.087712 
L 452.588486 137.296863 
L 451.121101 137.388557 
L 449.671365 137.616869 
L 448.239527 137.387165 
L 446.825831 137.00565 
L 444.053835 135.802882 
L 442.69601 135.588036 
L 441.357277 136.54572 
L 438.738003 139.317271 
L 437.457912 140.371754 
L 436.19781 141.695243 
L 434.957915 142.736729 
L 433.738439 143.195902 
L 432.53959 143.28175 
L 429.068846 141.127358 
L 426.861824 139.59636 
L 424.742023 137.455541 
L 422.710894 136.184466 
L 421.729019 136.137297 
L 420.769829 136.598476 
L 418.92016 136.931378 
L 418.029997 136.971711 
L 417.163153 137.143741 
L 416.319777 137.560644 
L 415.500013 137.57707 
L 414.704002 136.970222 
L 413.93188 135.902503 
L 413.18378 135.182299 
L 412.459828 135.168488 
L 411.760151 135.380283 
L 411.084867 135.839161 
L 408.078251 139.952126 
L 407.55161 140.564023 
L 407.050084 140.728177 
L 406.573758 140.459279 
L 406.122714 139.219647 
L 405.296778 137.884349 
L 404.922027 137.634263 
L 404.572841 137.219206 
L 403.679251 134.82794 
L 403.21233 134.172688 
L 403.017637 134.215567 
L 402.58902 135.1451 
L 402.394061 135.966302 
L 402.394061 135.966302 
" style="fill:none;stroke:#20b2aa;stroke-linecap:square;stroke-width:1.5;"/>
   </g>
   <g id="patch_9">
    <path d="M 387.206667 329.44 
L 387.206667 8.991935 
" style="fill:none;stroke:#000000;stroke-linecap:square;stroke-linejoin:miter;stroke-width:0.8;"/>
   </g>
   <g id="patch_10">
    <path d="M 721.043333 329.44 
L 721.043333 8.991935 
" style="fill:none;stroke:#000000;stroke-linecap:square;stroke-linejoin:miter;stroke-width:0.8;"/>
   </g>
   <g id="patch_11">
    <path d="M 387.206667 329.44 
L 721.043333 329.44 
" style="fill:none;stroke:#000000;stroke-linecap:square;stroke-linejoin:miter;stroke-width:0.8;"/>
   </g>
   <g id="patch_12">
    <path d="M 387.206667 8.991935 
L 721.043333 8.991935 
" style="fill:none;stroke:#000000;stroke-linecap:square;stroke-linejoin:miter;stroke-width:0.8;"/>
   </g>
   <g id="legend_2">
    <g id="patch_13">
     <path d="M 651.241302 24.866622 
L 716.143333 24.866622 
Q 717.543333 24.866622 717.543333 23.466622 
L 717.543333 13.891935 
Q 717.543333 12.491935 716.143333 12.491935 
L 651.241302 12.491935 
Q 649.841302 12.491935 649.841302 13.891935 
L 649.841302 23.466622 
Q 649.841302 24.866622 651.241302 24.866622 
z
" style="fill:#ffffff;opacity:0.8;stroke:#cccccc;stroke-linejoin:miter;"/>
    </g>
    <g id="line2d_29">
     <path d="M 652.641302 18.160841 
L 666.641302 18.160841 
" style="fill:none;stroke:#20b2aa;stroke-linecap:square;stroke-width:1.5;"/>
    </g>
    <g id="line2d_30"/>
    <g id="text_24">
     <text style="font-family:DejaVu Sans;font-size:7px;font-style:normal;font-weight:normal;text-anchor:start;" transform="rotate(-0, 672.241302, 20.610841)" x="672.241302" y="20.610841">Third period</text>
    </g>
   </g>
  </g>
  <g id="axes_3">
   <g id="patch_14">
    <path d="M 738.603333 329.44 
L 1072.44 329.44 
L 1072.44 8.991935 
L 738.603333 8.991935 
z
" style="fill:#ffffff;"/>
   </g>
   <g id="matplotlib.axis_5">
    <g id="xtick_13">
     <g id="line2d_31">
      <g>
       <use style="stroke:#000000;stroke-width:0.8;" x="753.777727" xlink:href="#m237f02fe15" y="329.44"/>
      </g>
     </g>
     <g id="text_25">
      <text style="font-family:DejaVu Sans;font-size:7px;font-style:normal;font-weight:normal;text-anchor:middle;" transform="rotate(-0, 753.777727, 341.758906)" x="753.777727" y="341.758906">0.0</text>
     </g>
    </g>
    <g id="xtick_14">
     <g id="line2d_32">
      <g>
       <use style="stroke:#000000;stroke-width:0.8;" x="814.475303" xlink:href="#m237f02fe15" y="329.44"/>
      </g>
     </g>
     <g id="text_26">
      <text style="font-family:DejaVu Sans;font-size:7px;font-style:normal;font-weight:normal;text-anchor:middle;" transform="rotate(-0, 814.475303, 341.758906)" x="814.475303" y="341.758906">0.2</text>
     </g>
    </g>
    <g id="xtick_15">
     <g id="line2d_33">
      <g>
       <use style="stroke:#000000;stroke-width:0.8;" x="875.172879" xlink:href="#m237f02fe15" y="329.44"/>
      </g>
     </g>
     <g id="text_27">
      <text style="font-family:DejaVu Sans;font-size:7px;font-style:normal;font-weight:normal;text-anchor:middle;" transform="rotate(-0, 875.172879, 341.758906)" x="875.172879" y="341.758906">0.4</text>
     </g>
    </g>
    <g id="xtick_16">
     <g id="line2d_34">
      <g>
       <use style="stroke:#000000;stroke-width:0.8;" x="935.870455" xlink:href="#m237f02fe15" y="329.44"/>
      </g>
     </g>
     <g id="text_28">
      <text style="font-family:DejaVu Sans;font-size:7px;font-style:normal;font-weight:normal;text-anchor:middle;" transform="rotate(-0, 935.870455, 341.758906)" x="935.870455" y="341.758906">0.6</text>
     </g>
    </g>
    <g id="xtick_17">
     <g id="line2d_35">
      <g>
       <use style="stroke:#000000;stroke-width:0.8;" x="996.56803" xlink:href="#m237f02fe15" y="329.44"/>
      </g>
     </g>
     <g id="text_29">
      <text style="font-family:DejaVu Sans;font-size:7px;font-style:normal;font-weight:normal;text-anchor:middle;" transform="rotate(-0, 996.56803, 341.758906)" x="996.56803" y="341.758906">0.8</text>
     </g>
    </g>
    <g id="xtick_18">
     <g id="line2d_36">
      <g>
       <use style="stroke:#000000;stroke-width:0.8;" x="1057.265606" xlink:href="#m237f02fe15" y="329.44"/>
      </g>
     </g>
     <g id="text_30">
      <text style="font-family:DejaVu Sans;font-size:7px;font-style:normal;font-weight:normal;text-anchor:middle;" transform="rotate(-0, 1057.265606, 341.758906)" x="1057.265606" y="341.758906">1.0</text>
     </g>
    </g>
    <g id="text_31">
     <text style="font-family:DejaVu Sans;font-size:7px;font-style:normal;font-weight:normal;text-anchor:middle;" transform="rotate(-0, 905.521667, 352.533594)" x="905.521667" y="352.533594">Stimulation Intensity</text>
    </g>
   </g>
   <g id="matplotlib.axis_6">
    <g id="ytick_13">
     <g id="line2d_37">
      <g>
       <use style="stroke:#000000;stroke-width:0.8;" x="738.603333" xlink:href="#m665b147d07" y="315.897911"/>
      </g>
     </g>
    </g>
    <g id="ytick_14">
     <g id="line2d_38">
      <g>
       <use style="stroke:#000000;stroke-width:0.8;" x="738.603333" xlink:href="#m665b147d07" y="254.768563"/>
      </g>
     </g>
    </g>
    <g id="ytick_15">
     <g id="line2d_39">
      <g>
       <use style="stroke:#000000;stroke-width:0.8;" x="738.603333" xlink:href="#m665b147d07" y="193.639214"/>
      </g>
     </g>
    </g>
    <g id="ytick_16">
     <g id="line2d_40">
      <g>
       <use style="stroke:#000000;stroke-width:0.8;" x="738.603333" xlink:href="#m665b147d07" y="132.509865"/>
      </g>
     </g>
    </g>
    <g id="ytick_17">
     <g id="line2d_41">
      <g>
       <use style="stroke:#000000;stroke-width:0.8;" x="738.603333" xlink:href="#m665b147d07" y="71.380516"/>
      </g>
     </g>
    </g>
    <g id="ytick_18">
     <g id="line2d_42">
      <g>
       <use style="stroke:#000000;stroke-width:0.8;" x="738.603333" xlink:href="#m665b147d07" y="10.251167"/>
      </g>
     </g>
    </g>
    <g id="text_32">
     <text style="font-family:DejaVu Sans;font-size:7px;font-style:normal;font-weight:normal;text-anchor:middle;" transform="rotate(-90, 733.147552, 169.215967)" x="733.147552" y="169.215967">Activity</text>
    </g>
   </g>
   <g id="line2d_43">
    <path clip-path="url(#pdb6342eaea)" d="M 753.777727 207.685809 
L 753.894716 203.529495 
L 753.985687 203.411348 
L 754.102623 203.597389 
L 754.414304 203.182946 
L 754.608996 202.896173 
L 754.829547 202.823894 
L 755.348067 203.38897 
L 756.318694 203.767978 
L 756.693445 204.032023 
L 757.519381 205.768378 
L 758.44675 207.585908 
L 758.948277 208.710005 
L 759.474918 210.2509 
L 760.026583 211.305406 
L 761.830758 213.185314 
L 763.856495 217.02495 
L 764.580446 219.17029 
L 766.100669 222.564146 
L 766.89668 224.133977 
L 769.426664 227.844837 
L 770.316827 229.627996 
L 771.230156 231.848388 
L 772.166496 233.750844 
L 773.125685 234.686283 
L 777.187595 235.765547 
L 778.258491 235.35747 
L 780.465512 234.129723 
L 781.60126 233.845276 
L 782.758241 234.215941 
L 783.936257 235.38427 
L 785.135105 236.954535 
L 787.594477 239.648241 
L 790.13467 242.198844 
L 795.450502 245.953757 
L 798.222498 248.277046 
L 799.636193 249.050164 
L 801.068032 249.244906 
L 802.517767 249.080667 
L 803.985152 249.517933 
L 806.971861 251.207822 
L 808.490674 251.927099 
L 810.026111 252.807373 
L 813.145809 254.919208 
L 814.729535 255.751177 
L 817.943382 256.868556 
L 821.217251 256.791135 
L 822.875994 256.466397 
L 824.548898 255.930775 
L 827.93604 255.218884 
L 833.115717 254.815146 
L 834.867485 254.124786 
L 836.63136 253.270923 
L 840.194217 251.904115 
L 843.801846 251.825513 
L 845.621679 251.542201 
L 847.451775 250.487523 
L 849.291821 249.124026 
L 851.141502 248.125958 
L 854.868499 247.118424 
L 856.745176 246.610531 
L 858.630211 246.409973 
L 860.52328 246.361482 
L 862.424059 246.192524 
L 864.332223 246.332705 
L 868.169396 246.304275 
L 873.972328 245.548773 
L 875.917893 244.527459 
L 879.823906 242.888358 
L 881.783685 241.85858 
L 883.747531 241.277913 
L 885.715108 240.91341 
L 887.686079 241.001103 
L 889.660106 240.819493 
L 891.636851 240.327078 
L 893.615974 239.626785 
L 895.597138 239.426748 
L 897.580002 239.060902 
L 901.549473 237.470695 
L 903.5354 237.110888 
L 905.521667 236.481364 
L 907.507933 235.975317 
L 909.49386 235.95847 
L 913.463331 236.557523 
L 915.446195 236.583837 
L 917.427359 236.255408 
L 919.406483 236.261917 
L 923.357254 236.820137 
L 925.328225 237.40343 
L 929.259649 238.974446 
L 931.219428 239.251141 
L 933.174803 238.936036 
L 939.011165 236.869367 
L 940.945586 236.852829 
L 942.873937 237.100553 
L 948.619274 238.511347 
L 950.520053 238.820923 
L 952.413123 238.631893 
L 954.298157 237.762048 
L 956.174834 236.328694 
L 958.042832 234.467933 
L 959.901831 232.427343 
L 961.751512 230.805488 
L 963.591558 229.813345 
L 965.421654 229.27577 
L 967.241487 229.353756 
L 970.849116 229.82532 
L 972.636295 229.330243 
L 974.411974 228.180128 
L 976.175848 226.555133 
L 977.927617 224.447315 
L 979.666979 221.983474 
L 983.107294 215.881931 
L 984.807657 213.824191 
L 986.494435 212.46848 
L 988.167339 211.377268 
L 989.826082 211.030754 
L 991.47038 211.136873 
L 993.099951 211.53736 
L 994.714516 211.34145 
L 999.465421 209.766446 
L 1001.017222 210.306353 
L 1002.55266 211.264253 
L 1004.071472 211.778024 
L 1005.573398 211.460326 
L 1007.058181 210.067871 
L 1008.525566 208.182134 
L 1009.975302 206.080655 
L 1011.40714 204.247275 
L 1012.820835 202.95453 
L 1015.592831 200.776769 
L 1018.28939 199.17583 
L 1019.608801 198.480786 
L 1022.188755 197.391691 
L 1023.448856 196.557188 
L 1024.688751 196.136943 
L 1028.285092 196.1386 
L 1029.442073 195.2665 
L 1030.577821 193.812184 
L 1031.692141 191.931098 
L 1032.784843 189.867098 
L 1033.855738 188.153266 
L 1034.904644 186.985392 
L 1035.931381 187.004744 
L 1036.935773 187.186826 
L 1037.917648 187.023573 
L 1041.61667 184.657988 
L 1042.483513 184.772183 
L 1043.326889 185.280403 
L 1044.942664 186.44139 
L 1045.714786 185.947522 
L 1047.186838 183.321312 
L 1047.886516 182.668478 
L 1048.5618 182.890882 
L 1049.838729 183.485464 
L 1050.440155 183.25784 
L 1051.01675 182.919712 
L 1051.568416 181.905901 
L 1052.596583 178.655714 
L 1053.072909 177.54973 
L 1053.523953 177.405832 
L 1054.72464 179.496149 
L 1055.073826 179.061497 
L 1055.695267 177.813378 
L 1056.213786 175.159762 
L 1056.940711 169.225171 
L 1057.265606 162.821114 
L 1056.629029 173.18347 
L 1056.434337 175.026429 
L 1056.213786 175.880514 
L 1055.967416 175.677784 
L 1055.695267 175.033264 
L 1054.72464 171.262221 
L 1053.949637 170.298601 
L 1053.523953 170.312577 
L 1053.072909 170.878144 
L 1052.596583 171.676487 
L 1052.095057 172.797827 
L 1050.440155 177.981629 
L 1049.838729 179.841206 
L 1049.212575 180.770855 
L 1048.5618 181.398745 
L 1047.886516 181.597801 
L 1047.186838 181.027278 
L 1045.714786 178.377483 
L 1044.942664 177.214479 
L 1044.146653 176.571858 
L 1043.326889 177.068193 
L 1042.483513 177.908743 
L 1041.61667 178.976551 
L 1040.726507 179.53179 
L 1039.813177 179.559652 
L 1038.876837 179.136489 
L 1036.935773 177.21713 
L 1035.931381 176.824599 
L 1034.904644 176.079632 
L 1033.855738 174.95715 
L 1031.692141 172.299843 
L 1030.577821 171.098673 
L 1029.442073 170.402831 
L 1028.285092 170.49782 
L 1027.107077 170.710217 
L 1024.688751 171.58387 
L 1023.448856 172.318995 
L 1022.188755 173.376035 
L 1020.908663 174.17189 
L 1018.28939 174.280365 
L 1014.216145 175.589729 
L 1012.820835 175.561521 
L 1009.975302 173.832185 
L 1008.525566 172.935465 
L 1007.058181 171.767715 
L 1005.573398 170.423117 
L 1004.071472 169.292835 
L 1002.55266 168.840543 
L 999.465421 169.152688 
L 997.897524 169.082003 
L 996.313799 168.539823 
L 994.714516 167.139832 
L 993.099951 165.115921 
L 989.826082 160.348656 
L 988.167339 158.574727 
L 986.494435 157.372748 
L 983.107294 155.774838 
L 981.393636 155.274215 
L 979.666979 155.050555 
L 977.927617 155.365417 
L 976.175848 156.289668 
L 974.411974 157.701775 
L 970.849116 161.143325 
L 969.050745 162.313711 
L 967.241487 163.235518 
L 965.421654 163.708383 
L 963.591558 163.81023 
L 961.751512 163.102632 
L 959.901831 162.766636 
L 958.042832 163.007141 
L 954.298157 164.171281 
L 952.413123 164.571987 
L 950.520053 165.298121 
L 948.619274 167.089633 
L 944.795888 171.493864 
L 942.873937 173.82514 
L 940.945586 175.93948 
L 939.011165 177.509499 
L 937.071006 178.494033 
L 935.125441 178.926352 
L 933.174803 179.192178 
L 929.259649 180.290591 
L 925.328225 181.687195 
L 923.357254 182.13599 
L 921.383227 183.642366 
L 919.406483 185.626826 
L 915.446195 190.828633 
L 913.463331 192.846625 
L 911.479106 194.142588 
L 907.507933 195.687517 
L 903.5354 198.580806 
L 901.549473 199.687705 
L 899.564228 199.820887 
L 897.580002 199.800905 
L 893.615974 200.10914 
L 891.636851 200.476082 
L 887.686079 200.720439 
L 885.715108 200.687638 
L 883.747531 200.997641 
L 881.783685 201.187182 
L 879.823906 200.95139 
L 877.86853 200.915773 
L 875.917893 201.089786 
L 872.032168 201.901084 
L 868.169396 202.963693 
L 866.247445 203.833976 
L 864.332223 204.430784 
L 862.424059 204.771107 
L 860.52328 205.241505 
L 858.630211 205.292213 
L 856.745176 205.455603 
L 854.868499 206.335569 
L 853.000501 207.362775 
L 849.291821 209.784753 
L 847.451775 211.101599 
L 845.621679 212.74813 
L 843.801846 214.14028 
L 841.992589 215.032509 
L 840.194217 215.537261 
L 834.867485 216.396533 
L 833.115717 216.288347 
L 829.649697 215.323958 
L 827.93604 215.243905 
L 826.235676 215.447682 
L 821.217251 216.846198 
L 816.328817 219.194673 
L 814.729535 219.466005 
L 813.145809 219.125927 
L 810.026111 218.834173 
L 808.490674 218.819052 
L 803.985152 219.931406 
L 801.068032 219.93697 
L 799.636193 219.652788 
L 796.827188 219.894997 
L 795.450502 219.556151 
L 792.753943 219.405276 
L 791.434532 218.907698 
L 790.13467 219.106894 
L 788.854578 219.950798 
L 785.135105 223.505626 
L 783.936257 224.773458 
L 782.758241 226.579255 
L 780.465512 230.457868 
L 779.351192 231.852682 
L 778.258491 233.026579 
L 777.187595 233.602296 
L 776.138689 233.810921 
L 775.111952 233.698198 
L 774.10756 232.723993 
L 773.125685 230.870152 
L 772.166496 228.759687 
L 771.230156 226.292337 
L 770.316827 224.44615 
L 769.426664 223.452211 
L 768.55982 223.173127 
L 767.716444 223.378078 
L 766.89668 224.138496 
L 766.100669 225.451044 
L 764.580446 228.648392 
L 763.856495 229.385713 
L 763.156817 229.204023 
L 761.830758 228.609954 
L 761.204604 227.680166 
L 760.603178 226.342899 
L 760.026583 225.436688 
L 759.474918 225.500486 
L 758.948277 225.694198 
L 758.44675 226.552009 
L 757.970424 226.832699 
L 757.093696 226.96055 
L 756.693445 226.427182 
L 755.969508 223.990046 
L 755.348067 221.535654 
L 754.829547 220.892537 
L 754.414304 219.632731 
L 754.245503 219.040713 
L 754.102623 219.200502 
L 753.985687 219.770349 
L 753.790728 224.048669 
L 753.790728 224.048669 
" style="fill:none;stroke:#b0c4de;stroke-linecap:square;stroke-width:1.5;"/>
   </g>
   <g id="patch_15">
    <path d="M 738.603333 329.44 
L 738.603333 8.991935 
" style="fill:none;stroke:#000000;stroke-linecap:square;stroke-linejoin:miter;stroke-width:0.8;"/>
   </g>
   <g id="patch_16">
    <path d="M 1072.44 329.44 
L 1072.44 8.991935 
" style="fill:none;stroke:#000000;stroke-linecap:square;stroke-linejoin:miter;stroke-width:0.8;"/>
   </g>
   <g id="patch_17">
    <path d="M 738.603333 329.44 
L 1072.44 329.44 
" style="fill:none;stroke:#000000;stroke-linecap:square;stroke-linejoin:miter;stroke-width:0.8;"/>
   </g>
   <g id="patch_18">
    <path d="M 738.603333 8.991935 
L 1072.44 8.991935 
" style="fill:none;stroke:#000000;stroke-linecap:square;stroke-linejoin:miter;stroke-width:0.8;"/>
   </g>
   <g id="legend_3">
    <g id="patch_19">
     <path d="M 991.796719 24.866622 
L 1067.54 24.866622 
Q 1068.94 24.866622 1068.94 23.466622 
L 1068.94 13.891935 
Q 1068.94 12.491935 1067.54 12.491935 
L 991.796719 12.491935 
Q 990.396719 12.491935 990.396719 13.891935 
L 990.396719 23.466622 
Q 990.396719 24.866622 991.796719 24.866622 
z
" style="fill:#ffffff;opacity:0.8;stroke:#cccccc;stroke-linejoin:miter;"/>
    </g>
    <g id="line2d_44">
     <path d="M 993.196719 18.160841 
L 1007.196719 18.160841 
" style="fill:none;stroke:#b0c4de;stroke-linecap:square;stroke-width:1.5;"/>
    </g>
    <g id="line2d_45"/>
    <g id="text_33">
     <text style="font-family:DejaVu Sans;font-size:7px;font-style:normal;font-weight:normal;text-anchor:start;" transform="rotate(-0, 1012.796719, 20.610841)" x="1012.796719" y="20.610841">Seventh period</text>
    </g>
   </g>
  </g>
 </g>
 <defs>
  <clipPath id="pe390957d8a">
   <rect height="320.448065" width="333.836667" x="35.81" y="8.991935"/>
  </clipPath>
  <clipPath id="pbbc5dfeb44">
   <rect height="320.448065" width="333.836667" x="387.206667" y="8.991935"/>
  </clipPath>
  <clipPath id="pdb6342eaea">
   <rect height="320.448065" width="333.836667" x="738.603333" y="8.991935"/>
  </clipPath>
 </defs>
</svg>
