<?xml version="1.0" encoding="utf-8" standalone="no"?>
<!DOCTYPE svg PUBLIC "-//W3C//DTD SVG 1.1//EN"
  "http://www.w3.org/Graphics/SVG/1.1/DTD/svg11.dtd">
<!-- Created with matplotlib (https://matplotlib.org/) -->
<svg height="360pt" version="1.1" viewBox="0 0 1080 360" width="1080pt" xmlns="http://www.w3.org/2000/svg" xmlns:xlink="http://www.w3.org/1999/xlink">
 <defs>
  <style type="text/css">
*{stroke-linecap:butt;stroke-linejoin:round;white-space:pre;}
  </style>
 </defs>
 <g id="figure_1">
  <g id="patch_1">
   <path d="M 0 360 
L 1080 360 
L 1080 0 
L 0 0 
z
" style="fill:#ffffff;"/>
  </g>
  <g id="axes_1">
   <g id="patch_2">
    <path d="M 35.81 329.44 
L 369.646667 329.44 
L 369.646667 7.56 
L 35.81 7.56 
z
" style="fill:#ffffff;"/>
   </g>
   <g id="matplotlib.axis_1">
    <g id="xtick_1">
     <g id="line2d_1">
      <defs>
       <path d="M 0 0 
L 0 3.5 
" id="m59f973b37c" style="stroke:#000000;stroke-width:0.8;"/>
      </defs>
      <g>
       <use style="stroke:#000000;stroke-width:0.8;" x="50.984394" xlink:href="#m59f973b37c" y="329.44"/>
      </g>
     </g>
     <g id="text_1">
      <text style="font-family:DejaVu Sans;font-size:7px;font-style:normal;font-weight:normal;text-anchor:middle;" transform="rotate(-0, 50.984394, 341.758906)" x="50.984394" y="341.758906">0.0</text>
     </g>
    </g>
    <g id="xtick_2">
     <g id="line2d_2">
      <g>
       <use style="stroke:#000000;stroke-width:0.8;" x="111.68197" xlink:href="#m59f973b37c" y="329.44"/>
      </g>
     </g>
     <g id="text_2">
      <text style="font-family:DejaVu Sans;font-size:7px;font-style:normal;font-weight:normal;text-anchor:middle;" transform="rotate(-0, 111.68197, 341.758906)" x="111.68197" y="341.758906">0.2</text>
     </g>
    </g>
    <g id="xtick_3">
     <g id="line2d_3">
      <g>
       <use style="stroke:#000000;stroke-width:0.8;" x="172.379545" xlink:href="#m59f973b37c" y="329.44"/>
      </g>
     </g>
     <g id="text_3">
      <text style="font-family:DejaVu Sans;font-size:7px;font-style:normal;font-weight:normal;text-anchor:middle;" transform="rotate(-0, 172.379545, 341.758906)" x="172.379545" y="341.758906">0.4</text>
     </g>
    </g>
    <g id="xtick_4">
     <g id="line2d_4">
      <g>
       <use style="stroke:#000000;stroke-width:0.8;" x="233.077121" xlink:href="#m59f973b37c" y="329.44"/>
      </g>
     </g>
     <g id="text_4">
      <text style="font-family:DejaVu Sans;font-size:7px;font-style:normal;font-weight:normal;text-anchor:middle;" transform="rotate(-0, 233.077121, 341.758906)" x="233.077121" y="341.758906">0.6</text>
     </g>
    </g>
    <g id="xtick_5">
     <g id="line2d_5">
      <g>
       <use style="stroke:#000000;stroke-width:0.8;" x="293.774697" xlink:href="#m59f973b37c" y="329.44"/>
      </g>
     </g>
     <g id="text_5">
      <text style="font-family:DejaVu Sans;font-size:7px;font-style:normal;font-weight:normal;text-anchor:middle;" transform="rotate(-0, 293.774697, 341.758906)" x="293.774697" y="341.758906">0.8</text>
     </g>
    </g>
    <g id="xtick_6">
     <g id="line2d_6">
      <g>
       <use style="stroke:#000000;stroke-width:0.8;" x="354.472273" xlink:href="#m59f973b37c" y="329.44"/>
      </g>
     </g>
     <g id="text_6">
      <text style="font-family:DejaVu Sans;font-size:7px;font-style:normal;font-weight:normal;text-anchor:middle;" transform="rotate(-0, 354.472273, 341.758906)" x="354.472273" y="341.758906">1.0</text>
     </g>
    </g>
    <g id="text_7">
     <text style="font-family:DejaVu Sans;font-size:7px;font-style:normal;font-weight:normal;text-anchor:middle;" transform="rotate(-0, 202.728333, 352.533594)" x="202.728333" y="352.533594">Stimulation Intensity</text>
    </g>
   </g>
   <g id="matplotlib.axis_2">
    <g id="ytick_1">
     <g id="line2d_7">
      <defs>
       <path d="M 0 0 
L -3.5 0 
" id="m8a6ead4b25" style="stroke:#000000;stroke-width:0.8;"/>
      </defs>
      <g>
       <use style="stroke:#000000;stroke-width:0.8;" x="35.81" xlink:href="#m8a6ead4b25" y="304.906619"/>
      </g>
     </g>
     <g id="text_8">
      <text style="font-family:DejaVu Sans;font-size:7px;font-style:normal;font-weight:normal;text-anchor:end;" transform="rotate(-0, 28.81, 307.566072)" x="28.81" y="307.566072">0.4</text>
     </g>
    </g>
    <g id="ytick_2">
     <g id="line2d_8">
      <g>
       <use style="stroke:#000000;stroke-width:0.8;" x="35.81" xlink:href="#m8a6ead4b25" y="249.146807"/>
      </g>
     </g>
     <g id="text_9">
      <text style="font-family:DejaVu Sans;font-size:7px;font-style:normal;font-weight:normal;text-anchor:end;" transform="rotate(-0, 28.81, 251.80626)" x="28.81" y="251.80626">0.6</text>
     </g>
    </g>
    <g id="ytick_3">
     <g id="line2d_9">
      <g>
       <use style="stroke:#000000;stroke-width:0.8;" x="35.81" xlink:href="#m8a6ead4b25" y="193.386995"/>
      </g>
     </g>
     <g id="text_10">
      <text style="font-family:DejaVu Sans;font-size:7px;font-style:normal;font-weight:normal;text-anchor:end;" transform="rotate(-0, 28.81, 196.046449)" x="28.81" y="196.046449">0.8</text>
     </g>
    </g>
    <g id="ytick_4">
     <g id="line2d_10">
      <g>
       <use style="stroke:#000000;stroke-width:0.8;" x="35.81" xlink:href="#m8a6ead4b25" y="137.627183"/>
      </g>
     </g>
     <g id="text_11">
      <text style="font-family:DejaVu Sans;font-size:7px;font-style:normal;font-weight:normal;text-anchor:end;" transform="rotate(-0, 28.81, 140.286637)" x="28.81" y="140.286637">1.0</text>
     </g>
    </g>
    <g id="ytick_5">
     <g id="line2d_11">
      <g>
       <use style="stroke:#000000;stroke-width:0.8;" x="35.81" xlink:href="#m8a6ead4b25" y="81.867372"/>
      </g>
     </g>
     <g id="text_12">
      <text style="font-family:DejaVu Sans;font-size:7px;font-style:normal;font-weight:normal;text-anchor:end;" transform="rotate(-0, 28.81, 84.526825)" x="28.81" y="84.526825">1.2</text>
     </g>
    </g>
    <g id="ytick_6">
     <g id="line2d_12">
      <g>
       <use style="stroke:#000000;stroke-width:0.8;" x="35.81" xlink:href="#m8a6ead4b25" y="26.10756"/>
      </g>
     </g>
     <g id="text_13">
      <text style="font-family:DejaVu Sans;font-size:7px;font-style:normal;font-weight:normal;text-anchor:end;" transform="rotate(-0, 28.81, 28.767013)" x="28.81" y="28.767013">1.4</text>
     </g>
    </g>
    <g id="text_14">
     <text style="font-family:DejaVu Sans;font-size:7px;font-style:normal;font-weight:normal;text-anchor:middle;" transform="rotate(-90, 12.222031, 168.5)" x="12.222031" y="168.5">Activity</text>
    </g>
   </g>
   <g id="line2d_13">
    <path clip-path="url(#p50e3300f00)" d="M 50.984394 310.162374 
L 51.007505 310.038759 
L 51.076832 310.196605 
L 51.192354 310.377222 
L 52.461156 314.215126 
L 52.852614 314.809091 
L 53.289725 314.736549 
L 55.491837 313.423322 
L 57.614882 311.622957 
L 59.25162 310.668636 
L 60.135673 310.097389 
L 61.063162 309.74793 
L 62.033803 309.126255 
L 66.341784 304.781112 
L 70.010094 301.962562 
L 71.314227 300.677024 
L 72.65839 299.564061 
L 74.042174 298.614771 
L 75.465157 298.09454 
L 76.926906 297.767779 
L 78.426975 297.707415 
L 79.964908 297.784544 
L 81.540235 297.633929 
L 83.152477 297.360247 
L 84.801144 296.836914 
L 86.485732 296.040993 
L 88.205729 295.041539 
L 89.96061 293.757172 
L 93.572878 290.468467 
L 101.191819 281.707084 
L 103.175352 279.426961 
L 105.189209 277.397308 
L 107.232778 275.114918 
L 111.406551 269.741964 
L 115.691585 263.783248 
L 117.874199 260.518135 
L 126.856364 245.70892 
L 131.488869 238.992993 
L 133.838026 235.815062 
L 136.208169 233.41112 
L 138.598573 231.651043 
L 143.437253 229.098235 
L 145.884053 227.948071 
L 150.828849 225.016043 
L 153.325339 223.349144 
L 155.836877 221.250497 
L 158.362699 218.503668 
L 166.018152 208.576009 
L 171.178994 201.756774 
L 176.378275 195.064135 
L 178.990351 192.012095 
L 181.609659 188.634781 
L 184.235399 184.92362 
L 192.143211 173.032753 
L 197.432546 165.67482 
L 200.080036 161.734541 
L 202.728333 158.272019 
L 208.02412 151.691162 
L 215.953689 142.811141 
L 218.589894 139.67626 
L 221.221268 136.01026 
L 223.847008 131.733138 
L 229.078392 122.795804 
L 234.277672 114.793048 
L 236.863292 111.081618 
L 242.002555 104.088027 
L 247.093968 96.626728 
L 249.619789 93.310171 
L 252.131328 90.480415 
L 254.627817 87.958746 
L 257.108498 85.963499 
L 259.572614 84.724132 
L 264.448154 82.470795 
L 266.858093 80.856176 
L 269.248498 79.062851 
L 271.61864 77.131627 
L 273.967798 74.930005 
L 276.295255 72.220892 
L 278.600303 68.919014 
L 283.14037 62.069301 
L 287.582467 55.764644 
L 289.765081 53.233342 
L 291.921183 51.113792 
L 296.151231 48.067235 
L 298.223889 46.717717 
L 300.267457 45.723911 
L 302.281315 44.899522 
L 304.264848 44.250877 
L 306.217451 43.463443 
L 308.138531 42.115172 
L 310.027502 40.188993 
L 311.883788 38.075062 
L 315.496057 34.761621 
L 317.250938 33.30157 
L 318.970935 32.271044 
L 320.655523 31.865406 
L 325.491759 31.693268 
L 327.029691 31.949478 
L 328.52976 32.374949 
L 329.991509 32.64386 
L 331.414492 32.773339 
L 332.798276 32.419209 
L 334.14244 31.891135 
L 335.446573 31.211868 
L 336.710279 30.216507 
L 337.933173 28.963396 
L 339.114883 28.205114 
L 340.255047 28.492416 
L 341.35332 29.292783 
L 344.393505 30.75048 
L 345.320993 31.114659 
L 346.205047 31.110678 
L 347.045396 30.157396 
L 348.59397 26.756146 
L 349.301723 26.010167 
L 350.583085 25.935207 
L 352.995511 23.649521 
L 353.894841 22.383375 
L 354.102632 22.190909 
L 354.264313 22.289525 
L 354.379834 22.549918 
L 354.472273 24.376083 
L 354.379834 26.291611 
L 354.264313 26.971464 
L 354.102632 26.979292 
L 353.641004 25.911035 
L 352.995511 24.124494 
L 352.604053 24.006527 
L 352.166941 24.149289 
L 351.684309 24.512968 
L 350.583085 26.23107 
L 349.301723 29.240418 
L 347.045396 35.046323 
L 346.205047 36.693379 
L 345.320993 38.157206 
L 344.393505 38.808562 
L 343.422864 38.37518 
L 342.409366 37.33989 
L 341.35332 35.388167 
L 339.114883 30.303667 
L 337.933173 28.132988 
L 336.710279 26.366843 
L 335.446573 25.103359 
L 334.14244 24.388818 
L 332.798276 24.450727 
L 331.414492 25.155398 
L 329.991509 25.752708 
L 328.52976 26.079912 
L 327.029691 25.836185 
L 325.491759 25.300217 
L 323.916432 24.315548 
L 322.304189 23.463347 
L 320.655523 23.209007 
L 318.970935 23.979699 
L 317.250938 25.357011 
L 313.706825 28.629289 
L 311.883788 30.200946 
L 310.027502 31.981967 
L 308.138531 34.112844 
L 306.217451 35.98142 
L 304.264848 37.472419 
L 302.281315 38.377583 
L 300.267457 38.734144 
L 298.223889 39.414507 
L 296.151231 40.536003 
L 294.050116 42.316558 
L 287.582467 49.230336 
L 285.374006 51.286278 
L 283.14037 52.617344 
L 280.88224 53.72228 
L 278.600303 54.993056 
L 273.967798 58.098164 
L 271.61864 58.988778 
L 264.448154 59.767288 
L 262.019414 59.908888 
L 257.108498 60.414709 
L 254.627817 60.883757 
L 249.619789 61.300569 
L 247.093968 62.102561 
L 242.002555 64.661902 
L 239.438515 65.381897 
L 236.863292 65.549234 
L 234.277672 65.955052 
L 231.682442 66.100198 
L 229.078392 65.765099 
L 223.847008 64.870469 
L 218.589894 64.806128 
L 215.953689 64.862279 
L 213.313455 64.248107 
L 208.02412 62.51823 
L 205.37663 62.235511 
L 202.728333 62.165373 
L 194.786669 62.977455 
L 192.143211 63.344677 
L 189.502978 63.525477 
L 186.866773 63.359353 
L 184.235399 62.794523 
L 181.609659 62.668421 
L 178.990351 62.888384 
L 176.378275 63.576922 
L 171.178994 65.44361 
L 166.018152 68.146721 
L 163.454112 69.983634 
L 160.902035 72.094763 
L 158.362699 74.616652 
L 153.325339 79.861103 
L 150.828849 82.253492 
L 148.348169 83.854444 
L 145.884053 84.833855 
L 143.437253 85.138938 
L 141.008513 85.190809 
L 136.208169 84.523529 
L 133.838026 84.842811 
L 131.488869 86.007919 
L 124.574427 90.33677 
L 122.316297 91.887478 
L 120.082661 93.270112 
L 117.874199 93.992941 
L 113.535484 94.825548 
L 111.406551 94.926666 
L 109.305436 94.791967 
L 107.232778 93.953305 
L 105.189209 92.691249 
L 103.175352 91.309154 
L 101.191819 90.402036 
L 99.239216 89.980563 
L 97.318136 89.849769 
L 93.572878 90.402414 
L 91.749842 90.230946 
L 89.96061 89.658895 
L 88.205729 88.689862 
L 84.801144 86.234933 
L 83.152477 85.584349 
L 81.540235 85.326859 
L 79.964908 85.384477 
L 78.426975 86.397203 
L 76.926906 88.335595 
L 75.465157 90.878358 
L 72.65839 96.749938 
L 71.314227 99.94895 
L 68.746387 106.713044 
L 67.523493 109.499502 
L 66.341784 111.426428 
L 64.103347 113.443669 
L 63.047301 114.708767 
L 61.063162 117.652318 
L 60.135673 119.065063 
L 59.25162 120.081058 
L 58.411271 120.230194 
L 57.614882 119.500898 
L 56.862697 117.837278 
L 54.873581 111.87446 
L 52.461156 106.778167 
L 52.11547 106.563123 
L 51.815663 107.203605 
L 51.192354 109.492846 
L 51.007505 111.573931 
L 51.007505 111.573931 
" style="fill:none;stroke:#f08080;stroke-linecap:square;stroke-width:1.5;"/>
   </g>
   <g id="patch_3">
    <path d="M 35.81 329.44 
L 35.81 7.56 
" style="fill:none;stroke:#000000;stroke-linecap:square;stroke-linejoin:miter;stroke-width:0.8;"/>
   </g>
   <g id="patch_4">
    <path d="M 369.646667 329.44 
L 369.646667 7.56 
" style="fill:none;stroke:#000000;stroke-linecap:square;stroke-linejoin:miter;stroke-width:0.8;"/>
   </g>
   <g id="patch_5">
    <path d="M 35.81 329.44 
L 369.646667 329.44 
" style="fill:none;stroke:#000000;stroke-linecap:square;stroke-linejoin:miter;stroke-width:0.8;"/>
   </g>
   <g id="patch_6">
    <path d="M 35.81 7.56 
L 369.646667 7.56 
" style="fill:none;stroke:#000000;stroke-linecap:square;stroke-linejoin:miter;stroke-width:0.8;"/>
   </g>
   <g id="legend_1">
    <g id="patch_7">
     <path d="M 40.71 23.434688 
L 102.866719 23.434688 
Q 104.266719 23.434688 104.266719 22.034688 
L 104.266719 12.46 
Q 104.266719 11.06 102.866719 11.06 
L 40.71 11.06 
Q 39.31 11.06 39.31 12.46 
L 39.31 22.034688 
Q 39.31 23.434688 40.71 23.434688 
z
" style="fill:#ffffff;opacity:0.8;stroke:#cccccc;stroke-linejoin:miter;"/>
    </g>
    <g id="line2d_14">
     <path d="M 42.11 16.728906 
L 56.11 16.728906 
" style="fill:none;stroke:#f08080;stroke-linecap:square;stroke-width:1.5;"/>
    </g>
    <g id="line2d_15"/>
    <g id="text_15">
     <text style="font-family:DejaVu Sans;font-size:7px;font-style:normal;font-weight:normal;text-anchor:start;" transform="rotate(-0, 61.71, 19.178906)" x="61.71" y="19.178906">First period</text>
    </g>
   </g>
  </g>
  <g id="axes_2">
   <g id="patch_8">
    <path d="M 387.206667 329.44 
L 721.043333 329.44 
L 721.043333 7.56 
L 387.206667 7.56 
z
" style="fill:#ffffff;"/>
   </g>
   <g id="matplotlib.axis_3">
    <g id="xtick_7">
     <g id="line2d_16">
      <g>
       <use style="stroke:#000000;stroke-width:0.8;" x="402.381061" xlink:href="#m59f973b37c" y="329.44"/>
      </g>
     </g>
     <g id="text_16">
      <text style="font-family:DejaVu Sans;font-size:7px;font-style:normal;font-weight:normal;text-anchor:middle;" transform="rotate(-0, 402.381061, 341.758906)" x="402.381061" y="341.758906">0.0</text>
     </g>
    </g>
    <g id="xtick_8">
     <g id="line2d_17">
      <g>
       <use style="stroke:#000000;stroke-width:0.8;" x="463.078636" xlink:href="#m59f973b37c" y="329.44"/>
      </g>
     </g>
     <g id="text_17">
      <text style="font-family:DejaVu Sans;font-size:7px;font-style:normal;font-weight:normal;text-anchor:middle;" transform="rotate(-0, 463.078636, 341.758906)" x="463.078636" y="341.758906">0.2</text>
     </g>
    </g>
    <g id="xtick_9">
     <g id="line2d_18">
      <g>
       <use style="stroke:#000000;stroke-width:0.8;" x="523.776212" xlink:href="#m59f973b37c" y="329.44"/>
      </g>
     </g>
     <g id="text_18">
      <text style="font-family:DejaVu Sans;font-size:7px;font-style:normal;font-weight:normal;text-anchor:middle;" transform="rotate(-0, 523.776212, 341.758906)" x="523.776212" y="341.758906">0.4</text>
     </g>
    </g>
    <g id="xtick_10">
     <g id="line2d_19">
      <g>
       <use style="stroke:#000000;stroke-width:0.8;" x="584.473788" xlink:href="#m59f973b37c" y="329.44"/>
      </g>
     </g>
     <g id="text_19">
      <text style="font-family:DejaVu Sans;font-size:7px;font-style:normal;font-weight:normal;text-anchor:middle;" transform="rotate(-0, 584.473788, 341.758906)" x="584.473788" y="341.758906">0.6</text>
     </g>
    </g>
    <g id="xtick_11">
     <g id="line2d_20">
      <g>
       <use style="stroke:#000000;stroke-width:0.8;" x="645.171364" xlink:href="#m59f973b37c" y="329.44"/>
      </g>
     </g>
     <g id="text_20">
      <text style="font-family:DejaVu Sans;font-size:7px;font-style:normal;font-weight:normal;text-anchor:middle;" transform="rotate(-0, 645.171364, 341.758906)" x="645.171364" y="341.758906">0.8</text>
     </g>
    </g>
    <g id="xtick_12">
     <g id="line2d_21">
      <g>
       <use style="stroke:#000000;stroke-width:0.8;" x="705.868939" xlink:href="#m59f973b37c" y="329.44"/>
      </g>
     </g>
     <g id="text_21">
      <text style="font-family:DejaVu Sans;font-size:7px;font-style:normal;font-weight:normal;text-anchor:middle;" transform="rotate(-0, 705.868939, 341.758906)" x="705.868939" y="341.758906">1.0</text>
     </g>
    </g>
    <g id="text_22">
     <text style="font-family:DejaVu Sans;font-size:7px;font-style:normal;font-weight:normal;text-anchor:middle;" transform="rotate(-0, 554.125, 352.533594)" x="554.125" y="352.533594">Stimulation Intensity</text>
    </g>
   </g>
   <g id="matplotlib.axis_4">
    <g id="ytick_7">
     <g id="line2d_22">
      <g>
       <use style="stroke:#000000;stroke-width:0.8;" x="387.206667" xlink:href="#m8a6ead4b25" y="304.906619"/>
      </g>
     </g>
    </g>
    <g id="ytick_8">
     <g id="line2d_23">
      <g>
       <use style="stroke:#000000;stroke-width:0.8;" x="387.206667" xlink:href="#m8a6ead4b25" y="249.146807"/>
      </g>
     </g>
    </g>
    <g id="ytick_9">
     <g id="line2d_24">
      <g>
       <use style="stroke:#000000;stroke-width:0.8;" x="387.206667" xlink:href="#m8a6ead4b25" y="193.386995"/>
      </g>
     </g>
    </g>
    <g id="ytick_10">
     <g id="line2d_25">
      <g>
       <use style="stroke:#000000;stroke-width:0.8;" x="387.206667" xlink:href="#m8a6ead4b25" y="137.627183"/>
      </g>
     </g>
    </g>
    <g id="ytick_11">
     <g id="line2d_26">
      <g>
       <use style="stroke:#000000;stroke-width:0.8;" x="387.206667" xlink:href="#m8a6ead4b25" y="81.867372"/>
      </g>
     </g>
    </g>
    <g id="ytick_12">
     <g id="line2d_27">
      <g>
       <use style="stroke:#000000;stroke-width:0.8;" x="387.206667" xlink:href="#m8a6ead4b25" y="26.10756"/>
      </g>
     </g>
    </g>
    <g id="text_23">
     <text style="font-family:DejaVu Sans;font-size:7px;font-style:normal;font-weight:normal;text-anchor:middle;" transform="rotate(-90, 381.750885, 168.5)" x="381.750885" y="168.5">Activity</text>
    </g>
   </g>
   <g id="line2d_28">
    <path clip-path="url(#p3b0160ccb8)" d="M 402.381061 125.603609 
L 402.58902 128.364578 
L 402.958492 129.923201 
L 405.169024 136.519705 
L 405.69703 137.683132 
L 409.011549 141.354355 
L 411.53234 142.176811 
L 412.459828 143.104443 
L 415.500013 146.984878 
L 416.598286 148.289321 
L 418.92016 150.357187 
L 420.143054 151.060817 
L 421.40676 151.959043 
L 422.710894 152.564195 
L 424.055057 152.684552 
L 425.438841 153.110128 
L 426.861824 153.357096 
L 428.323573 153.3402 
L 429.823642 152.695641 
L 432.936902 150.217272 
L 434.549144 148.753882 
L 437.882398 144.990524 
L 439.602395 143.462718 
L 441.357277 142.498091 
L 443.146508 142.190219 
L 444.969545 142.822722 
L 446.825831 143.799119 
L 452.588486 146.029423 
L 454.572018 146.416312 
L 456.585876 146.565586 
L 460.702102 147.141577 
L 462.803218 147.737876 
L 467.088252 148.438775 
L 469.270866 148.318112 
L 473.712963 147.293134 
L 475.971094 146.892483 
L 478.25303 146.914329 
L 480.558078 147.414103 
L 485.234693 149.015358 
L 487.604835 149.310898 
L 494.833919 148.044383 
L 497.28072 147.832102 
L 499.744836 147.00949 
L 502.225516 145.346304 
L 504.722006 142.76969 
L 507.233544 140.711738 
L 509.759366 139.534564 
L 512.298702 139.331475 
L 525.170891 140.052338 
L 530.387018 140.133142 
L 535.632066 141.214292 
L 540.899644 141.44416 
L 546.183336 140.328902 
L 548.829213 140.68022 
L 554.125 141.698867 
L 556.773297 141.943134 
L 562.066664 141.974574 
L 567.350356 141.28851 
L 569.986561 140.940989 
L 572.617934 141.01846 
L 575.243675 141.464182 
L 577.862982 142.109612 
L 580.475059 142.538336 
L 583.079109 142.341855 
L 585.674339 141.881401 
L 588.259959 141.002564 
L 590.835181 139.937667 
L 593.399221 139.063122 
L 595.951298 138.371989 
L 598.490634 138.043754 
L 601.016456 137.433667 
L 603.527994 136.616233 
L 606.024484 135.595124 
L 608.505164 134.788853 
L 610.96928 134.170736 
L 613.416081 133.387874 
L 615.844821 132.810397 
L 623.015307 131.500219 
L 625.364464 131.447183 
L 629.99697 130.733845 
L 634.537037 130.573531 
L 636.770673 130.037064 
L 638.979134 128.699128 
L 641.161748 126.646891 
L 645.446782 122.360916 
L 647.547898 121.135388 
L 649.620555 121.568846 
L 651.664124 122.891805 
L 653.677982 123.811446 
L 655.661514 124.086489 
L 657.614118 123.824492 
L 659.535198 123.026468 
L 663.280455 120.597157 
L 665.103492 119.977114 
L 666.892723 119.965831 
L 668.647605 120.220192 
L 670.367602 120.073443 
L 672.05219 119.398853 
L 673.700856 119.128094 
L 675.313098 119.328289 
L 676.888426 119.725646 
L 678.426358 120.605028 
L 682.811159 124.366067 
L 684.194943 124.923504 
L 685.539106 124.298461 
L 686.84324 123.485116 
L 688.106946 123.506657 
L 689.32984 123.895225 
L 690.511549 124.129709 
L 691.651714 123.940863 
L 692.749987 124.038582 
L 693.806033 124.011357 
L 694.819531 123.476777 
L 695.790172 122.316751 
L 696.71766 120.536258 
L 698.442062 116.148125 
L 700.69839 110.656462 
L 701.361496 109.224466 
L 701.979752 108.208396 
L 702.55297 107.768284 
L 703.080976 108.267769 
L 704.00072 109.833662 
L 704.392178 109.942803 
L 704.737863 109.690298 
L 705.03767 109.770176 
L 705.66098 110.537207 
L 705.845828 110.521784 
L 705.845828 111.659982 
L 705.66098 112.33702 
L 705.499299 112.704072 
L 704.737863 115.445271 
L 703.563608 117.301777 
L 703.080976 117.755366 
L 702.55297 117.848902 
L 701.979752 117.148445 
L 701.361496 116.197658 
L 700.69839 115.716802 
L 699.990637 115.475309 
L 699.238451 115.091946 
L 698.442062 114.111807 
L 695.790172 110.376645 
L 694.819531 110.272214 
L 693.806033 110.518335 
L 692.749987 111.03544 
L 691.651714 111.369624 
L 690.511549 111.364552 
L 686.84324 110.538176 
L 685.539106 110.510545 
L 684.194943 111.015781 
L 681.388176 112.455562 
L 679.926427 113.077837 
L 676.888426 113.858963 
L 672.05219 116.023703 
L 670.367602 116.006773 
L 666.892723 113.841656 
L 663.280455 111.914841 
L 661.424169 111.44396 
L 657.614118 111.460047 
L 653.677982 110.520948 
L 647.547898 108.073679 
L 645.446782 107.794014 
L 643.31785 107.96956 
L 634.537037 107.153727 
L 632.278906 106.892503 
L 627.691922 106.811525 
L 625.364464 106.494343 
L 623.015307 105.706663 
L 620.645165 105.02955 
L 618.25476 104.852275 
L 615.844821 105.205379 
L 613.416081 106.333883 
L 610.96928 107.978125 
L 608.505164 109.412303 
L 606.024484 110.451075 
L 603.527994 111.038829 
L 601.016456 111.787145 
L 598.490634 112.878118 
L 585.674339 120.861692 
L 580.475059 123.742389 
L 577.862982 124.88513 
L 575.243675 125.80349 
L 572.617934 126.349681 
L 567.350356 126.469483 
L 564.710122 126.968654 
L 562.066664 128.074477 
L 559.420787 129.06025 
L 556.773297 129.687516 
L 554.125 129.783372 
L 551.476703 129.995127 
L 548.829213 130.964177 
L 546.183336 132.64096 
L 543.539878 134.056046 
L 538.263439 135.51658 
L 527.774941 141.737064 
L 522.575661 144.088382 
L 519.990041 144.821607 
L 517.414819 145.344692 
L 514.850779 145.621936 
L 512.298702 145.395437 
L 509.759366 144.927733 
L 504.722006 144.175717 
L 499.744836 142.353731 
L 492.405179 139.514137 
L 489.99524 139.041912 
L 487.604835 138.358079 
L 485.234693 137.335599 
L 482.885536 136.128072 
L 480.558078 134.743167 
L 478.25303 133.720695 
L 475.971094 132.936728 
L 471.479327 132.001767 
L 469.270866 131.457238 
L 467.088252 131.170662 
L 462.803218 130.98982 
L 460.702102 130.619237 
L 458.629445 129.871221 
L 454.572018 127.650124 
L 452.588486 126.881345 
L 448.714802 124.947159 
L 446.825831 123.880628 
L 444.969545 123.101696 
L 443.146508 122.564109 
L 441.357277 122.967826 
L 439.602395 123.57573 
L 437.882398 123.999969 
L 432.936902 124.600061 
L 431.361574 124.929879 
L 429.823642 124.835994 
L 425.438841 122.338035 
L 424.055057 122.162124 
L 422.710894 122.534044 
L 421.40676 123.300527 
L 420.143054 124.485078 
L 418.92016 125.338411 
L 417.738451 125.569986 
L 416.598286 125.490576 
L 415.500013 125.543114 
L 414.443967 126.122345 
L 413.430469 126.91879 
L 412.459828 127.332024 
L 411.53234 127.55244 
L 410.648287 127.144727 
L 409.807938 125.757385 
L 408.259363 121.810559 
L 407.55161 120.475331 
L 406.888504 120.32718 
L 406.270248 120.88473 
L 405.69703 121.867078 
L 405.169024 122.339642 
L 404.686392 121.790597 
L 403.857822 119.822129 
L 402.58902 117.877251 
L 402.404172 116.169097 
L 402.404172 116.169097 
" style="fill:none;stroke:#20b2aa;stroke-linecap:square;stroke-width:1.5;"/>
   </g>
   <g id="patch_9">
    <path d="M 387.206667 329.44 
L 387.206667 7.56 
" style="fill:none;stroke:#000000;stroke-linecap:square;stroke-linejoin:miter;stroke-width:0.8;"/>
   </g>
   <g id="patch_10">
    <path d="M 721.043333 329.44 
L 721.043333 7.56 
" style="fill:none;stroke:#000000;stroke-linecap:square;stroke-linejoin:miter;stroke-width:0.8;"/>
   </g>
   <g id="patch_11">
    <path d="M 387.206667 329.44 
L 721.043333 329.44 
" style="fill:none;stroke:#000000;stroke-linecap:square;stroke-linejoin:miter;stroke-width:0.8;"/>
   </g>
   <g id="patch_12">
    <path d="M 387.206667 7.56 
L 721.043333 7.56 
" style="fill:none;stroke:#000000;stroke-linecap:square;stroke-linejoin:miter;stroke-width:0.8;"/>
   </g>
   <g id="legend_2">
    <g id="patch_13">
     <path d="M 646.417865 23.434688 
L 716.143333 23.434688 
Q 717.543333 23.434688 717.543333 22.034688 
L 717.543333 12.46 
Q 717.543333 11.06 716.143333 11.06 
L 646.417865 11.06 
Q 645.017865 11.06 645.017865 12.46 
L 645.017865 22.034688 
Q 645.017865 23.434688 646.417865 23.434688 
z
" style="fill:#ffffff;opacity:0.8;stroke:#cccccc;stroke-linejoin:miter;"/>
    </g>
    <g id="line2d_29">
     <path d="M 647.817865 16.728906 
L 661.817865 16.728906 
" style="fill:none;stroke:#20b2aa;stroke-linecap:square;stroke-width:1.5;"/>
    </g>
    <g id="line2d_30"/>
    <g id="text_24">
     <text style="font-family:DejaVu Sans;font-size:7px;font-style:normal;font-weight:normal;text-anchor:start;" transform="rotate(-0, 667.417865, 19.178906)" x="667.417865" y="19.178906">Fourth period</text>
    </g>
   </g>
  </g>
  <g id="axes_3">
   <g id="patch_14">
    <path d="M 738.603333 329.44 
L 1072.44 329.44 
L 1072.44 7.56 
L 738.603333 7.56 
z
" style="fill:#ffffff;"/>
   </g>
   <g id="matplotlib.axis_5">
    <g id="xtick_13">
     <g id="line2d_31">
      <g>
       <use style="stroke:#000000;stroke-width:0.8;" x="753.777727" xlink:href="#m59f973b37c" y="329.44"/>
      </g>
     </g>
     <g id="text_25">
      <text style="font-family:DejaVu Sans;font-size:7px;font-style:normal;font-weight:normal;text-anchor:middle;" transform="rotate(-0, 753.777727, 341.758906)" x="753.777727" y="341.758906">0.0</text>
     </g>
    </g>
    <g id="xtick_14">
     <g id="line2d_32">
      <g>
       <use style="stroke:#000000;stroke-width:0.8;" x="814.475303" xlink:href="#m59f973b37c" y="329.44"/>
      </g>
     </g>
     <g id="text_26">
      <text style="font-family:DejaVu Sans;font-size:7px;font-style:normal;font-weight:normal;text-anchor:middle;" transform="rotate(-0, 814.475303, 341.758906)" x="814.475303" y="341.758906">0.2</text>
     </g>
    </g>
    <g id="xtick_15">
     <g id="line2d_33">
      <g>
       <use style="stroke:#000000;stroke-width:0.8;" x="875.172879" xlink:href="#m59f973b37c" y="329.44"/>
      </g>
     </g>
     <g id="text_27">
      <text style="font-family:DejaVu Sans;font-size:7px;font-style:normal;font-weight:normal;text-anchor:middle;" transform="rotate(-0, 875.172879, 341.758906)" x="875.172879" y="341.758906">0.4</text>
     </g>
    </g>
    <g id="xtick_16">
     <g id="line2d_34">
      <g>
       <use style="stroke:#000000;stroke-width:0.8;" x="935.870455" xlink:href="#m59f973b37c" y="329.44"/>
      </g>
     </g>
     <g id="text_28">
      <text style="font-family:DejaVu Sans;font-size:7px;font-style:normal;font-weight:normal;text-anchor:middle;" transform="rotate(-0, 935.870455, 341.758906)" x="935.870455" y="341.758906">0.6</text>
     </g>
    </g>
    <g id="xtick_17">
     <g id="line2d_35">
      <g>
       <use style="stroke:#000000;stroke-width:0.8;" x="996.56803" xlink:href="#m59f973b37c" y="329.44"/>
      </g>
     </g>
     <g id="text_29">
      <text style="font-family:DejaVu Sans;font-size:7px;font-style:normal;font-weight:normal;text-anchor:middle;" transform="rotate(-0, 996.56803, 341.758906)" x="996.56803" y="341.758906">0.8</text>
     </g>
    </g>
    <g id="xtick_18">
     <g id="line2d_36">
      <g>
       <use style="stroke:#000000;stroke-width:0.8;" x="1057.265606" xlink:href="#m59f973b37c" y="329.44"/>
      </g>
     </g>
     <g id="text_30">
      <text style="font-family:DejaVu Sans;font-size:7px;font-style:normal;font-weight:normal;text-anchor:middle;" transform="rotate(-0, 1057.265606, 341.758906)" x="1057.265606" y="341.758906">1.0</text>
     </g>
    </g>
    <g id="text_31">
     <text style="font-family:DejaVu Sans;font-size:7px;font-style:normal;font-weight:normal;text-anchor:middle;" transform="rotate(-0, 905.521667, 352.533594)" x="905.521667" y="352.533594">Stimulation Intensity</text>
    </g>
   </g>
   <g id="matplotlib.axis_6">
    <g id="ytick_13">
     <g id="line2d_37">
      <g>
       <use style="stroke:#000000;stroke-width:0.8;" x="738.603333" xlink:href="#m8a6ead4b25" y="304.906619"/>
      </g>
     </g>
    </g>
    <g id="ytick_14">
     <g id="line2d_38">
      <g>
       <use style="stroke:#000000;stroke-width:0.8;" x="738.603333" xlink:href="#m8a6ead4b25" y="249.146807"/>
      </g>
     </g>
    </g>
    <g id="ytick_15">
     <g id="line2d_39">
      <g>
       <use style="stroke:#000000;stroke-width:0.8;" x="738.603333" xlink:href="#m8a6ead4b25" y="193.386995"/>
      </g>
     </g>
    </g>
    <g id="ytick_16">
     <g id="line2d_40">
      <g>
       <use style="stroke:#000000;stroke-width:0.8;" x="738.603333" xlink:href="#m8a6ead4b25" y="137.627183"/>
      </g>
     </g>
    </g>
    <g id="ytick_17">
     <g id="line2d_41">
      <g>
       <use style="stroke:#000000;stroke-width:0.8;" x="738.603333" xlink:href="#m8a6ead4b25" y="81.867372"/>
      </g>
     </g>
    </g>
    <g id="ytick_18">
     <g id="line2d_42">
      <g>
       <use style="stroke:#000000;stroke-width:0.8;" x="738.603333" xlink:href="#m8a6ead4b25" y="26.10756"/>
      </g>
     </g>
    </g>
    <g id="text_32">
     <text style="font-family:DejaVu Sans;font-size:7px;font-style:normal;font-weight:normal;text-anchor:middle;" transform="rotate(-90, 733.147552, 168.5)" x="733.147552" y="168.5">Activity</text>
    </g>
   </g>
   <g id="line2d_43">
    <path clip-path="url(#p3a0f203be4)" d="M 753.777727 204.843157 
L 753.870166 206.024256 
L 753.985687 206.384472 
L 754.355159 208.286861 
L 754.608996 209.151283 
L 754.908804 209.185146 
L 755.254489 209.377771 
L 755.645947 210.326613 
L 756.565691 213.696145 
L 757.666915 217.750721 
L 758.285171 219.058263 
L 758.948277 219.9119 
L 759.65603 220.312221 
L 761.204604 220.318813 
L 762.044953 220.914191 
L 762.929007 222.195306 
L 765.840634 227.014175 
L 772.803427 236.11292 
L 774.10756 237.199565 
L 776.835508 238.561965 
L 778.258491 239.142631 
L 779.72024 239.287612 
L 781.220309 239.585308 
L 782.758241 240.224575 
L 784.333568 241.049965 
L 785.945811 242.207801 
L 787.594477 242.947995 
L 792.753943 244.42956 
L 794.543175 245.222377 
L 796.366212 246.239831 
L 800.111469 248.796366 
L 802.032549 249.932801 
L 807.982543 252.798293 
L 812.098769 255.27065 
L 814.199884 256.28026 
L 816.328817 257.071945 
L 818.484919 257.317727 
L 820.667533 257.300589 
L 822.875994 257.024043 
L 829.649697 255.487797 
L 834.282202 254.012297 
L 836.63136 253.72099 
L 841.391907 252.764752 
L 843.801846 252.177289 
L 846.230586 252.186144 
L 848.677386 252.740312 
L 851.141502 252.885233 
L 856.118672 252.266931 
L 861.156032 252.344661 
L 866.247445 252.984287 
L 868.811485 252.95595 
L 871.386708 252.410439 
L 879.171608 250.456194 
L 884.402992 249.106048 
L 892.296311 246.326204 
L 894.936545 245.840825 
L 897.580002 245.757697 
L 900.22588 245.522514 
L 905.521667 244.188159 
L 908.169964 243.897765 
L 910.817454 243.723192 
L 913.463331 243.700488 
L 916.106789 243.436282 
L 918.747022 243.031713 
L 924.014601 241.569217 
L 931.871725 238.080687 
L 934.475775 237.536442 
L 939.656626 237.297784 
L 942.231848 237.658789 
L 944.795888 238.146528 
L 949.887301 239.700014 
L 952.413123 239.811761 
L 959.901831 239.73929 
L 962.365947 239.022482 
L 964.812747 237.644342 
L 967.241487 235.906644 
L 969.651427 234.732741 
L 976.761131 232.201692 
L 981.393636 229.744083 
L 983.675573 228.754011 
L 985.933703 228.150569 
L 988.167339 227.980519 
L 992.558415 227.277684 
L 994.714516 226.431473 
L 998.944564 225.325719 
L 1001.017222 224.462343 
L 1003.060791 223.089894 
L 1007.058181 218.589433 
L 1009.010784 216.142768 
L 1010.931864 213.517787 
L 1012.820835 210.502199 
L 1014.677122 207.806818 
L 1016.500158 205.756592 
L 1018.28939 204.398671 
L 1025.097523 201.994309 
L 1028.285092 201.406061 
L 1029.823025 201.298165 
L 1031.323094 200.434284 
L 1032.784843 198.487498 
L 1034.207826 195.959729 
L 1035.59161 193.16902 
L 1043.048381 176.659028 
L 1044.146653 175.17538 
L 1045.202699 174.42965 
L 1046.216197 174.411818 
L 1047.186838 174.594699 
L 1048.114327 174.599558 
L 1048.99838 174.37278 
L 1049.838729 173.945885 
L 1050.635118 173.399019 
L 1051.387303 172.343258 
L 1052.758163 169.74017 
L 1053.376419 168.224203 
L 1053.949637 166.361418 
L 1054.960275 162.49951 
L 1055.397386 161.149514 
L 1055.788844 160.717466 
L 1056.434337 160.942179 
L 1056.688175 161.140703 
L 1056.895965 161.057568 
L 1057.057646 160.517018 
L 1057.242495 157.329135 
L 1057.242495 154.48934 
L 1056.895965 148.047272 
L 1056.688175 146.567725 
L 1056.434337 146.053867 
L 1056.13453 146.038484 
L 1055.788844 146.373187 
L 1053.376419 150.567578 
L 1050.635118 152.814161 
L 1048.114327 154.223173 
L 1047.186838 154.446312 
L 1046.216197 154.531269 
L 1044.146653 154.874722 
L 1043.048381 154.459884 
L 1041.908216 153.404298 
L 1040.726507 151.873209 
L 1039.503613 150.473524 
L 1036.935773 148.427631 
L 1035.59161 147.861067 
L 1034.207826 147.728836 
L 1032.784843 147.85806 
L 1026.709765 148.953954 
L 1025.097523 149.114905 
L 1021.764268 149.888511 
L 1014.677122 151.933258 
L 1012.820835 152.019165 
L 1010.931864 151.709193 
L 1007.058181 150.577119 
L 1005.074648 149.727204 
L 1003.060791 149.345892 
L 1001.017222 149.675384 
L 998.944564 150.421154 
L 996.843449 151.013979 
L 994.714516 150.933378 
L 992.558415 150.722539 
L 990.375801 150.33096 
L 988.167339 150.105343 
L 985.933703 150.315825 
L 981.393636 151.552095 
L 969.651427 155.625111 
L 967.241487 156.483945 
L 964.812747 156.587855 
L 962.365947 156.297938 
L 952.413123 154.589597 
L 949.887301 153.828029 
L 947.347965 152.570434 
L 944.795888 151.042201 
L 942.231848 150.59629 
L 939.656626 150.862939 
L 937.071006 151.592794 
L 931.871725 154.122577 
L 926.640341 156.909715 
L 924.014601 158.021081 
L 921.383227 158.023024 
L 918.747022 157.580032 
L 916.106789 156.850717 
L 913.463331 155.853948 
L 910.817454 155.063538 
L 908.169964 154.963829 
L 905.521667 155.446192 
L 902.87337 156.400866 
L 900.22588 157.587644 
L 897.580002 159.316493 
L 894.936545 160.702072 
L 892.296311 161.828995 
L 889.660106 162.440631 
L 887.028732 162.453244 
L 876.567558 163.111907 
L 873.972328 163.128625 
L 871.386708 163.723912 
L 868.811485 164.694427 
L 861.156032 168.798915 
L 858.630211 170.556499 
L 851.141502 176.270661 
L 848.677386 177.493378 
L 846.230586 177.882256 
L 843.801846 177.985497 
L 841.391907 177.824834 
L 839.001502 177.918094 
L 836.63136 178.19832 
L 829.649697 179.401689 
L 827.36776 179.991542 
L 825.10963 181.116447 
L 822.875994 182.514461 
L 818.484919 184.692469 
L 816.328817 185.910237 
L 807.982543 189.133726 
L 802.032549 192.076393 
L 800.111469 192.758294 
L 798.222498 192.848005 
L 794.543175 192.439733 
L 792.753943 192.305669 
L 785.945811 193.795675 
L 782.758241 193.288237 
L 776.835508 191.208057 
L 774.10756 190.007449 
L 771.539721 189.756114 
L 770.316827 189.806013 
L 769.135117 189.999401 
L 767.994953 190.963955 
L 766.89668 192.614876 
L 763.856495 198.491222 
L 762.044953 200.796508 
L 761.204604 201.598301 
L 760.408216 201.849536 
L 759.65603 201.876135 
L 758.948277 201.77592 
L 758.285171 202.129823 
L 757.666915 202.913958 
L 756.565691 205.073413 
L 756.083059 205.514555 
L 754.908804 207.071597 
L 754.608996 207.397469 
L 754.355159 207.029436 
L 754.147368 206.480389 
L 753.800839 204.393034 
L 753.800839 204.393034 
" style="fill:none;stroke:#b0c4de;stroke-linecap:square;stroke-width:1.5;"/>
   </g>
   <g id="patch_15">
    <path d="M 738.603333 329.44 
L 738.603333 7.56 
" style="fill:none;stroke:#000000;stroke-linecap:square;stroke-linejoin:miter;stroke-width:0.8;"/>
   </g>
   <g id="patch_16">
    <path d="M 1072.44 329.44 
L 1072.44 7.56 
" style="fill:none;stroke:#000000;stroke-linecap:square;stroke-linejoin:miter;stroke-width:0.8;"/>
   </g>
   <g id="patch_17">
    <path d="M 738.603333 329.44 
L 1072.44 329.44 
" style="fill:none;stroke:#000000;stroke-linecap:square;stroke-linejoin:miter;stroke-width:0.8;"/>
   </g>
   <g id="patch_18">
    <path d="M 738.603333 7.56 
L 1072.44 7.56 
" style="fill:none;stroke:#000000;stroke-linecap:square;stroke-linejoin:miter;stroke-width:0.8;"/>
   </g>
   <g id="legend_3">
    <g id="patch_19">
     <path d="M 1001.816563 23.434688 
L 1067.54 23.434688 
Q 1068.94 23.434688 1068.94 22.034688 
L 1068.94 12.46 
Q 1068.94 11.06 1067.54 11.06 
L 1001.816563 11.06 
Q 1000.416563 11.06 1000.416563 12.46 
L 1000.416563 22.034688 
Q 1000.416563 23.434688 1001.816563 23.434688 
z
" style="fill:#ffffff;opacity:0.8;stroke:#cccccc;stroke-linejoin:miter;"/>
    </g>
    <g id="line2d_44">
     <path d="M 1003.216563 16.728906 
L 1017.216563 16.728906 
" style="fill:none;stroke:#b0c4de;stroke-linecap:square;stroke-width:1.5;"/>
    </g>
    <g id="line2d_45"/>
    <g id="text_33">
     <text style="font-family:DejaVu Sans;font-size:7px;font-style:normal;font-weight:normal;text-anchor:start;" transform="rotate(-0, 1022.816563, 19.178906)" x="1022.816563" y="19.178906">Ninth period</text>
    </g>
   </g>
  </g>
 </g>
 <defs>
  <clipPath id="p50e3300f00">
   <rect height="321.88" width="333.836667" x="35.81" y="7.56"/>
  </clipPath>
  <clipPath id="p3b0160ccb8">
   <rect height="321.88" width="333.836667" x="387.206667" y="7.56"/>
  </clipPath>
  <clipPath id="p3a0f203be4">
   <rect height="321.88" width="333.836667" x="738.603333" y="7.56"/>
  </clipPath>
 </defs>
</svg>
