<?xml version="1.0" encoding="utf-8" standalone="no"?>
<!DOCTYPE svg PUBLIC "-//W3C//DTD SVG 1.1//EN"
  "http://www.w3.org/Graphics/SVG/1.1/DTD/svg11.dtd">
<!-- Created with matplotlib (https://matplotlib.org/) -->
<svg height="360pt" version="1.1" viewBox="0 0 1080 360" width="1080pt" xmlns="http://www.w3.org/2000/svg" xmlns:xlink="http://www.w3.org/1999/xlink">
 <defs>
  <style type="text/css">
*{stroke-linecap:butt;stroke-linejoin:round;white-space:pre;}
  </style>
 </defs>
 <g id="figure_1">
  <g id="patch_1">
   <path d="M 0 360 
L 1080 360 
L 1080 0 
L 0 0 
z
" style="fill:#ffffff;"/>
  </g>
  <g id="axes_1">
   <g id="patch_2">
    <path d="M 35.81 329.44 
L 369.646667 329.44 
L 369.646667 7.56 
L 35.81 7.56 
z
" style="fill:#ffffff;"/>
   </g>
   <g id="matplotlib.axis_1">
    <g id="xtick_1">
     <g id="line2d_1">
      <defs>
       <path d="M 0 0 
L 0 3.5 
" id="mf17076246f" style="stroke:#000000;stroke-width:0.8;"/>
      </defs>
      <g>
       <use style="stroke:#000000;stroke-width:0.8;" x="50.984394" xlink:href="#mf17076246f" y="329.44"/>
      </g>
     </g>
     <g id="text_1">
      <text style="font-family:DejaVu Sans;font-size:7px;font-style:normal;font-weight:normal;text-anchor:middle;" transform="rotate(-0, 50.984394, 341.758906)" x="50.984394" y="341.758906">0.0</text>
     </g>
    </g>
    <g id="xtick_2">
     <g id="line2d_2">
      <g>
       <use style="stroke:#000000;stroke-width:0.8;" x="111.68197" xlink:href="#mf17076246f" y="329.44"/>
      </g>
     </g>
     <g id="text_2">
      <text style="font-family:DejaVu Sans;font-size:7px;font-style:normal;font-weight:normal;text-anchor:middle;" transform="rotate(-0, 111.68197, 341.758906)" x="111.68197" y="341.758906">0.2</text>
     </g>
    </g>
    <g id="xtick_3">
     <g id="line2d_3">
      <g>
       <use style="stroke:#000000;stroke-width:0.8;" x="172.379545" xlink:href="#mf17076246f" y="329.44"/>
      </g>
     </g>
     <g id="text_3">
      <text style="font-family:DejaVu Sans;font-size:7px;font-style:normal;font-weight:normal;text-anchor:middle;" transform="rotate(-0, 172.379545, 341.758906)" x="172.379545" y="341.758906">0.4</text>
     </g>
    </g>
    <g id="xtick_4">
     <g id="line2d_4">
      <g>
       <use style="stroke:#000000;stroke-width:0.8;" x="233.077121" xlink:href="#mf17076246f" y="329.44"/>
      </g>
     </g>
     <g id="text_4">
      <text style="font-family:DejaVu Sans;font-size:7px;font-style:normal;font-weight:normal;text-anchor:middle;" transform="rotate(-0, 233.077121, 341.758906)" x="233.077121" y="341.758906">0.6</text>
     </g>
    </g>
    <g id="xtick_5">
     <g id="line2d_5">
      <g>
       <use style="stroke:#000000;stroke-width:0.8;" x="293.774697" xlink:href="#mf17076246f" y="329.44"/>
      </g>
     </g>
     <g id="text_5">
      <text style="font-family:DejaVu Sans;font-size:7px;font-style:normal;font-weight:normal;text-anchor:middle;" transform="rotate(-0, 293.774697, 341.758906)" x="293.774697" y="341.758906">0.8</text>
     </g>
    </g>
    <g id="xtick_6">
     <g id="line2d_6">
      <g>
       <use style="stroke:#000000;stroke-width:0.8;" x="354.472273" xlink:href="#mf17076246f" y="329.44"/>
      </g>
     </g>
     <g id="text_6">
      <text style="font-family:DejaVu Sans;font-size:7px;font-style:normal;font-weight:normal;text-anchor:middle;" transform="rotate(-0, 354.472273, 341.758906)" x="354.472273" y="341.758906">1.0</text>
     </g>
    </g>
    <g id="text_7">
     <text style="font-family:DejaVu Sans;font-size:7px;font-style:normal;font-weight:normal;text-anchor:middle;" transform="rotate(-0, 202.728333, 352.533594)" x="202.728333" y="352.533594">Stimulation Intensity</text>
    </g>
   </g>
   <g id="matplotlib.axis_2">
    <g id="ytick_1">
     <g id="line2d_7">
      <defs>
       <path d="M 0 0 
L -3.5 0 
" id="m714f52835a" style="stroke:#000000;stroke-width:0.8;"/>
      </defs>
      <g>
       <use style="stroke:#000000;stroke-width:0.8;" x="35.81" xlink:href="#m714f52835a" y="295.590786"/>
      </g>
     </g>
     <g id="text_8">
      <text style="font-family:DejaVu Sans;font-size:7px;font-style:normal;font-weight:normal;text-anchor:end;" transform="rotate(-0, 28.81, 298.250239)" x="28.81" y="298.250239">0.4</text>
     </g>
    </g>
    <g id="ytick_2">
     <g id="line2d_8">
      <g>
       <use style="stroke:#000000;stroke-width:0.8;" x="35.81" xlink:href="#m714f52835a" y="233.724491"/>
      </g>
     </g>
     <g id="text_9">
      <text style="font-family:DejaVu Sans;font-size:7px;font-style:normal;font-weight:normal;text-anchor:end;" transform="rotate(-0, 28.81, 236.383944)" x="28.81" y="236.383944">0.6</text>
     </g>
    </g>
    <g id="ytick_3">
     <g id="line2d_9">
      <g>
       <use style="stroke:#000000;stroke-width:0.8;" x="35.81" xlink:href="#m714f52835a" y="171.858197"/>
      </g>
     </g>
     <g id="text_10">
      <text style="font-family:DejaVu Sans;font-size:7px;font-style:normal;font-weight:normal;text-anchor:end;" transform="rotate(-0, 28.81, 174.51765)" x="28.81" y="174.51765">0.8</text>
     </g>
    </g>
    <g id="ytick_4">
     <g id="line2d_10">
      <g>
       <use style="stroke:#000000;stroke-width:0.8;" x="35.81" xlink:href="#m714f52835a" y="109.991902"/>
      </g>
     </g>
     <g id="text_11">
      <text style="font-family:DejaVu Sans;font-size:7px;font-style:normal;font-weight:normal;text-anchor:end;" transform="rotate(-0, 28.81, 112.651355)" x="28.81" y="112.651355">1.0</text>
     </g>
    </g>
    <g id="ytick_5">
     <g id="line2d_11">
      <g>
       <use style="stroke:#000000;stroke-width:0.8;" x="35.81" xlink:href="#m714f52835a" y="48.125607"/>
      </g>
     </g>
     <g id="text_12">
      <text style="font-family:DejaVu Sans;font-size:7px;font-style:normal;font-weight:normal;text-anchor:end;" transform="rotate(-0, 28.81, 50.78506)" x="28.81" y="50.78506">1.2</text>
     </g>
    </g>
    <g id="text_13">
     <text style="font-family:DejaVu Sans;font-size:7px;font-style:normal;font-weight:normal;text-anchor:middle;" transform="rotate(-90, 12.222031, 168.5)" x="12.222031" y="168.5">Activity</text>
    </g>
   </g>
   <g id="line2d_12">
    <path clip-path="url(#p7d49662167)" d="M 50.984394 305.200292 
L 51.14165 307.186478 
L 51.613093 308.158005 
L 52.397745 308.865239 
L 52.907042 309.370381 
L 54.158257 309.379659 
L 54.899527 309.088016 
L 55.717406 308.917581 
L 56.611471 308.847705 
L 57.581258 308.426115 
L 58.626264 308.607264 
L 62.206993 312.948958 
L 63.547077 314.022333 
L 64.959289 314.649814 
L 66.442897 314.809091 
L 67.997133 314.271922 
L 73.075367 311.529286 
L 74.903697 310.256691 
L 78.758103 306.807867 
L 80.782182 305.529312 
L 85.018846 304.227113 
L 87.229236 302.925468 
L 89.499481 301.42961 
L 91.828405 299.625383 
L 96.657431 294.523545 
L 101.706305 288.530224 
L 106.964563 281.524362 
L 109.668821 278.120681 
L 118.065223 268.669277 
L 120.953731 264.658449 
L 126.856364 255.35207 
L 129.867429 250.258423 
L 136.001254 240.538681 
L 139.120837 235.805427 
L 142.273383 231.291039 
L 145.457258 227.003922 
L 148.670813 222.94596 
L 151.912382 218.410429 
L 155.180285 213.213817 
L 161.788308 201.359408 
L 165.125004 195.726224 
L 168.481186 190.708573 
L 171.855116 185.965986 
L 175.245046 180.684168 
L 178.649219 174.642696 
L 199.274156 134.599084 
L 209.634898 113.367754 
L 213.083706 107.188653 
L 216.527148 102.120323 
L 219.963438 98.583429 
L 223.390797 95.644037 
L 230.21162 90.318649 
L 233.60155 87.740074 
L 240.331663 83.45274 
L 246.983837 78.4934 
L 250.276381 75.753847 
L 256.785854 69.324241 
L 259.999409 67.069675 
L 263.183284 66.622236 
L 266.33583 66.538926 
L 269.455412 66.56957 
L 272.540415 65.472685 
L 275.589238 63.8873 
L 278.600303 61.45208 
L 281.572049 58.314246 
L 287.391444 50.859983 
L 290.236077 47.60986 
L 293.035361 44.013596 
L 298.492104 35.699857 
L 301.146735 32.729089 
L 303.750362 30.218777 
L 306.301636 28.237973 
L 308.799236 26.547366 
L 311.241866 25.270429 
L 313.628262 24.850369 
L 315.957185 25.132204 
L 318.22743 26.400896 
L 320.43782 28.468171 
L 322.58721 29.327454 
L 324.674485 28.572362 
L 326.698563 27.449869 
L 328.658397 26.543467 
L 330.55297 25.533778 
L 335.835477 22.190909 
L 337.459534 22.726149 
L 340.497377 25.987853 
L 341.909589 27.092736 
L 343.249674 28.712132 
L 344.516935 31.871922 
L 347.875409 44.204431 
L 348.845196 46.175623 
L 349.739261 47.355681 
L 351.29841 50.122908 
L 351.962686 50.510473 
L 352.549625 50.354746 
L 353.058921 50.989646 
L 354.118523 53.240977 
L 354.315016 52.577724 
L 354.472273 50.536491 
L 354.315016 48.641311 
L 353.058921 52.244755 
L 352.549625 53.503598 
L 351.962686 54.599032 
L 350.55714 57.813453 
L 349.739261 60.379103 
L 348.845196 62.698796 
L 346.830402 66.017621 
L 345.710718 66.933253 
L 344.516935 66.511702 
L 343.249674 64.55415 
L 341.909589 61.830174 
L 340.497377 60.403905 
L 339.013769 61.533508 
L 334.14244 68.178138 
L 330.55297 73.034113 
L 328.658397 74.975512 
L 326.698563 76.55993 
L 324.674485 78.004514 
L 322.58721 79.26132 
L 320.43782 79.965439 
L 318.22743 80.495503 
L 315.957185 79.968801 
L 311.241866 78.039546 
L 308.799236 78.735517 
L 303.750362 82.300784 
L 301.146735 83.241586 
L 295.787846 82.680086 
L 293.035361 82.893444 
L 290.236077 82.785533 
L 287.391444 81.844957 
L 284.502935 81.249711 
L 281.572049 81.640813 
L 275.589238 85.601261 
L 272.540415 86.623988 
L 269.455412 87.352095 
L 266.33583 87.791028 
L 263.183284 88.776912 
L 259.999409 89.912946 
L 256.785854 89.739244 
L 253.544285 87.368737 
L 250.276381 83.242052 
L 246.983837 78.807501 
L 243.668358 74.885226 
L 240.331663 72.144416 
L 236.975481 70.669886 
L 233.60155 70.479655 
L 230.21162 71.269405 
L 226.807448 72.978791 
L 223.390797 75.870456 
L 219.963438 79.352283 
L 216.527148 82.083506 
L 213.083706 84.369087 
L 206.182511 87.887422 
L 202.728333 89.214198 
L 199.274156 90.280021 
L 195.821769 91.744952 
L 188.929519 95.528905 
L 185.493228 96.756764 
L 182.06587 96.666525 
L 178.649219 95.730361 
L 175.245046 95.347081 
L 171.855116 95.943734 
L 168.481186 97.511953 
L 165.125004 98.724209 
L 161.788308 99.162854 
L 155.180285 99.414265 
L 151.912382 99.230873 
L 148.670813 98.043477 
L 145.457258 96.620918 
L 142.273383 95.643083 
L 136.001254 94.136613 
L 132.916252 93.585446 
L 129.867429 92.746534 
L 126.856364 91.455847 
L 123.884618 90.688967 
L 120.953731 90.366857 
L 118.065223 91.172548 
L 115.220589 92.222209 
L 112.421305 93.43287 
L 109.668821 93.493532 
L 104.309932 91.987841 
L 101.706305 91.628516 
L 99.155031 92.460364 
L 96.657431 94.418286 
L 94.2148 96.853864 
L 91.828405 99.893813 
L 89.499481 102.327656 
L 87.229236 103.604773 
L 85.018846 104.121272 
L 82.869457 103.926684 
L 80.782182 104.024411 
L 78.758103 105.238523 
L 76.79827 106.786265 
L 74.903697 106.888239 
L 71.314227 105.102586 
L 69.62119 105.700598 
L 67.997133 106.887488 
L 66.442897 108.475853 
L 64.959289 110.825123 
L 63.547077 113.773028 
L 62.206993 115.998185 
L 60.939732 116.292253 
L 58.626264 114.925375 
L 57.581258 113.77007 
L 56.611471 111.961199 
L 55.717406 109.383026 
L 54.899527 107.511671 
L 54.158257 107.475112 
L 53.49398 108.044898 
L 52.907042 109.04619 
L 51.966354 109.109076 
L 51.613093 109.499756 
L 51.338144 109.326716 
L 51.023713 108.712088 
L 51.023713 108.712088 
" style="fill:none;stroke:#f08080;stroke-linecap:square;stroke-width:1.5;"/>
   </g>
   <g id="patch_3">
    <path d="M 35.81 329.44 
L 35.81 7.56 
" style="fill:none;stroke:#000000;stroke-linecap:square;stroke-linejoin:miter;stroke-width:0.8;"/>
   </g>
   <g id="patch_4">
    <path d="M 369.646667 329.44 
L 369.646667 7.56 
" style="fill:none;stroke:#000000;stroke-linecap:square;stroke-linejoin:miter;stroke-width:0.8;"/>
   </g>
   <g id="patch_5">
    <path d="M 35.81 329.44 
L 369.646667 329.44 
" style="fill:none;stroke:#000000;stroke-linecap:square;stroke-linejoin:miter;stroke-width:0.8;"/>
   </g>
   <g id="patch_6">
    <path d="M 35.81 7.56 
L 369.646667 7.56 
" style="fill:none;stroke:#000000;stroke-linecap:square;stroke-linejoin:miter;stroke-width:0.8;"/>
   </g>
   <g id="legend_1">
    <g id="patch_7">
     <path d="M 40.71 23.434688 
L 102.866719 23.434688 
Q 104.266719 23.434688 104.266719 22.034688 
L 104.266719 12.46 
Q 104.266719 11.06 102.866719 11.06 
L 40.71 11.06 
Q 39.31 11.06 39.31 12.46 
L 39.31 22.034688 
Q 39.31 23.434688 40.71 23.434688 
z
" style="fill:#ffffff;opacity:0.8;stroke:#cccccc;stroke-linejoin:miter;"/>
    </g>
    <g id="line2d_13">
     <path d="M 42.11 16.728906 
L 56.11 16.728906 
" style="fill:none;stroke:#f08080;stroke-linecap:square;stroke-width:1.5;"/>
    </g>
    <g id="line2d_14"/>
    <g id="text_14">
     <text style="font-family:DejaVu Sans;font-size:7px;font-style:normal;font-weight:normal;text-anchor:start;" transform="rotate(-0, 61.71, 19.178906)" x="61.71" y="19.178906">First period</text>
    </g>
   </g>
  </g>
  <g id="axes_2">
   <g id="patch_8">
    <path d="M 387.206667 329.44 
L 721.043333 329.44 
L 721.043333 7.56 
L 387.206667 7.56 
z
" style="fill:#ffffff;"/>
   </g>
   <g id="matplotlib.axis_3">
    <g id="xtick_7">
     <g id="line2d_15">
      <g>
       <use style="stroke:#000000;stroke-width:0.8;" x="402.381061" xlink:href="#mf17076246f" y="329.44"/>
      </g>
     </g>
     <g id="text_15">
      <text style="font-family:DejaVu Sans;font-size:7px;font-style:normal;font-weight:normal;text-anchor:middle;" transform="rotate(-0, 402.381061, 341.758906)" x="402.381061" y="341.758906">0.0</text>
     </g>
    </g>
    <g id="xtick_8">
     <g id="line2d_16">
      <g>
       <use style="stroke:#000000;stroke-width:0.8;" x="463.078636" xlink:href="#mf17076246f" y="329.44"/>
      </g>
     </g>
     <g id="text_16">
      <text style="font-family:DejaVu Sans;font-size:7px;font-style:normal;font-weight:normal;text-anchor:middle;" transform="rotate(-0, 463.078636, 341.758906)" x="463.078636" y="341.758906">0.2</text>
     </g>
    </g>
    <g id="xtick_9">
     <g id="line2d_17">
      <g>
       <use style="stroke:#000000;stroke-width:0.8;" x="523.776212" xlink:href="#mf17076246f" y="329.44"/>
      </g>
     </g>
     <g id="text_17">
      <text style="font-family:DejaVu Sans;font-size:7px;font-style:normal;font-weight:normal;text-anchor:middle;" transform="rotate(-0, 523.776212, 341.758906)" x="523.776212" y="341.758906">0.4</text>
     </g>
    </g>
    <g id="xtick_10">
     <g id="line2d_18">
      <g>
       <use style="stroke:#000000;stroke-width:0.8;" x="584.473788" xlink:href="#mf17076246f" y="329.44"/>
      </g>
     </g>
     <g id="text_18">
      <text style="font-family:DejaVu Sans;font-size:7px;font-style:normal;font-weight:normal;text-anchor:middle;" transform="rotate(-0, 584.473788, 341.758906)" x="584.473788" y="341.758906">0.6</text>
     </g>
    </g>
    <g id="xtick_11">
     <g id="line2d_19">
      <g>
       <use style="stroke:#000000;stroke-width:0.8;" x="645.171364" xlink:href="#mf17076246f" y="329.44"/>
      </g>
     </g>
     <g id="text_19">
      <text style="font-family:DejaVu Sans;font-size:7px;font-style:normal;font-weight:normal;text-anchor:middle;" transform="rotate(-0, 645.171364, 341.758906)" x="645.171364" y="341.758906">0.8</text>
     </g>
    </g>
    <g id="xtick_12">
     <g id="line2d_20">
      <g>
       <use style="stroke:#000000;stroke-width:0.8;" x="705.868939" xlink:href="#mf17076246f" y="329.44"/>
      </g>
     </g>
     <g id="text_20">
      <text style="font-family:DejaVu Sans;font-size:7px;font-style:normal;font-weight:normal;text-anchor:middle;" transform="rotate(-0, 705.868939, 341.758906)" x="705.868939" y="341.758906">1.0</text>
     </g>
    </g>
    <g id="text_21">
     <text style="font-family:DejaVu Sans;font-size:7px;font-style:normal;font-weight:normal;text-anchor:middle;" transform="rotate(-0, 554.125, 352.533594)" x="554.125" y="352.533594">Stimulation Intensity</text>
    </g>
   </g>
   <g id="matplotlib.axis_4">
    <g id="ytick_6">
     <g id="line2d_21">
      <g>
       <use style="stroke:#000000;stroke-width:0.8;" x="387.206667" xlink:href="#m714f52835a" y="295.590786"/>
      </g>
     </g>
    </g>
    <g id="ytick_7">
     <g id="line2d_22">
      <g>
       <use style="stroke:#000000;stroke-width:0.8;" x="387.206667" xlink:href="#m714f52835a" y="233.724491"/>
      </g>
     </g>
    </g>
    <g id="ytick_8">
     <g id="line2d_23">
      <g>
       <use style="stroke:#000000;stroke-width:0.8;" x="387.206667" xlink:href="#m714f52835a" y="171.858197"/>
      </g>
     </g>
    </g>
    <g id="ytick_9">
     <g id="line2d_24">
      <g>
       <use style="stroke:#000000;stroke-width:0.8;" x="387.206667" xlink:href="#m714f52835a" y="109.991902"/>
      </g>
     </g>
    </g>
    <g id="ytick_10">
     <g id="line2d_25">
      <g>
       <use style="stroke:#000000;stroke-width:0.8;" x="387.206667" xlink:href="#m714f52835a" y="48.125607"/>
      </g>
     </g>
    </g>
    <g id="text_22">
     <text style="font-family:DejaVu Sans;font-size:7px;font-style:normal;font-weight:normal;text-anchor:middle;" transform="rotate(-90, 381.750885, 168.5)" x="381.750885" y="168.5">Activity</text>
    </g>
   </g>
   <g id="line2d_26">
    <path clip-path="url(#p9aefabc047)" d="M 402.381061 134.376725 
L 402.538317 132.333278 
L 402.734811 131.983411 
L 403.794412 134.033467 
L 404.303709 133.771953 
L 404.890647 132.853145 
L 405.554924 131.342632 
L 406.296193 130.83751 
L 407.114073 131.573633 
L 408.008138 133.169486 
L 408.977924 135.499223 
L 411.142616 139.120865 
L 412.336398 141.75068 
L 416.355956 152.745555 
L 417.839564 155.631504 
L 419.393799 157.751102 
L 421.017856 158.993285 
L 422.710894 159.148254 
L 424.472034 158.919697 
L 426.300364 158.352253 
L 428.194937 157.991511 
L 432.178849 156.934277 
L 438.625903 153.965985 
L 440.896148 153.699448 
L 445.611467 154.303992 
L 448.054098 155.11619 
L 450.551697 156.364562 
L 455.706599 159.845742 
L 461.065487 164.067771 
L 463.817972 165.814111 
L 466.617256 167.435041 
L 469.46189 168.921302 
L 472.350398 169.92634 
L 475.281285 169.595817 
L 478.25303 168.145955 
L 481.264095 166.045906 
L 484.312919 163.636771 
L 487.397921 161.760404 
L 490.517503 160.187387 
L 493.670049 157.828892 
L 496.853924 154.79792 
L 500.067479 151.57215 
L 503.309048 148.978632 
L 506.576952 147.519699 
L 509.869496 146.942263 
L 513.184975 146.940368 
L 516.52167 147.463081 
L 519.877853 147.361957 
L 526.641713 144.04851 
L 530.045885 142.061305 
L 533.462536 139.495368 
L 536.889895 136.382977 
L 543.769627 129.594337 
L 547.218435 126.893277 
L 550.670823 125.273025 
L 554.125 125.316079 
L 557.579177 126.679765 
L 561.031565 128.617982 
L 564.480373 130.699891 
L 567.923814 132.972792 
L 571.360105 135.033622 
L 574.787464 136.778522 
L 578.204115 138.019855 
L 581.608287 138.741924 
L 584.998217 139.267594 
L 591.72833 140.825466 
L 595.065025 140.736913 
L 598.380504 139.279619 
L 601.673048 137.098876 
L 604.940952 134.736087 
L 608.182521 133.579226 
L 611.396076 134.118891 
L 614.579951 135.485907 
L 617.732497 137.15896 
L 620.852079 138.23302 
L 623.937081 138.750048 
L 626.985905 138.227473 
L 629.99697 137.120774 
L 632.968715 135.77509 
L 638.78811 132.643933 
L 641.632744 131.493444 
L 644.432028 130.963482 
L 647.184513 130.754344 
L 649.888771 129.85484 
L 652.543401 129.604711 
L 655.147028 130.063723 
L 657.698303 130.659584 
L 660.195902 130.98951 
L 662.638533 130.579379 
L 665.024928 129.546097 
L 669.624097 126.990721 
L 671.834487 125.133065 
L 673.983876 122.656837 
L 676.071151 121.126398 
L 678.09523 120.349354 
L 680.055063 119.897098 
L 681.949636 119.613513 
L 683.777966 119.895324 
L 685.539106 121.62428 
L 687.232144 123.795256 
L 688.856201 125.370811 
L 690.410436 126.093305 
L 691.894044 127.330478 
L 694.64634 131.186698 
L 695.913602 130.951841 
L 697.107384 128.447031 
L 699.272076 121.682006 
L 700.241862 118.432912 
L 701.953807 114.12119 
L 702.695076 113.235754 
L 703.359353 112.876713 
L 703.946291 112.303575 
L 704.455588 111.597005 
L 704.886979 110.033104 
L 705.24024 110.021411 
L 705.515189 111.847881 
L 705.868939 116.691567 
L 705.711683 115.103463 
L 705.515189 113.513347 
L 704.886979 111.99467 
L 704.455588 111.243645 
L 703.946291 110.969264 
L 703.359353 111.24444 
L 702.695076 112.334661 
L 701.953807 112.592236 
L 701.135927 112.259399 
L 700.241862 112.621898 
L 699.272076 113.675433 
L 698.227069 115.55648 
L 695.913602 120.431945 
L 694.64634 122.286047 
L 693.306256 123.090459 
L 691.894044 123.798054 
L 690.410436 125.906339 
L 688.856201 127.698268 
L 687.232144 128.877228 
L 685.539106 128.93959 
L 683.777966 127.990298 
L 681.949636 127.576 
L 680.055063 127.476293 
L 678.09523 127.661409 
L 676.071151 126.918574 
L 673.983876 125.875762 
L 671.834487 125.262988 
L 669.624097 125.441008 
L 665.024928 128.284757 
L 662.638533 129.379748 
L 655.147028 133.361723 
L 652.543401 134.627542 
L 644.432028 136.231627 
L 638.78811 139.832492 
L 635.899602 141.194862 
L 632.968715 142.778282 
L 629.99697 144.095597 
L 626.985905 144.961175 
L 623.937081 144.895864 
L 620.852079 143.442281 
L 617.732497 140.981443 
L 614.579951 139.199428 
L 611.396076 137.940241 
L 608.182521 137.394119 
L 604.940952 137.396383 
L 601.673048 138.511684 
L 591.72833 144.042119 
L 588.372147 145.264345 
L 584.998217 145.171101 
L 581.608287 143.681214 
L 578.204115 141.712406 
L 574.787464 140.049152 
L 571.360105 139.058816 
L 567.923814 138.955253 
L 561.031565 140.042746 
L 557.579177 139.783844 
L 554.125 138.560853 
L 547.218435 134.538996 
L 543.769627 133.324491 
L 540.326186 132.748753 
L 536.889895 133.482767 
L 533.462536 135.097597 
L 526.641713 137.771466 
L 523.251783 138.793796 
L 513.184975 140.469562 
L 509.869496 140.5444 
L 506.576952 140.35166 
L 503.309048 139.841657 
L 500.067479 139.99603 
L 496.853924 139.790546 
L 493.670049 138.089692 
L 490.517503 135.73065 
L 487.397921 132.853982 
L 481.264095 125.800941 
L 478.25303 123.528314 
L 475.281285 122.933972 
L 472.350398 124.518635 
L 469.46189 127.67083 
L 466.617256 131.050414 
L 463.817972 133.515454 
L 461.065487 135.427649 
L 458.361229 138.417475 
L 455.706599 141.784169 
L 453.102972 144.254267 
L 450.551697 145.645162 
L 448.054098 145.629564 
L 445.611467 144.345718 
L 443.225072 142.362997 
L 440.896148 139.558735 
L 438.625903 136.494386 
L 436.415513 133.840523 
L 434.266124 132.121387 
L 432.178849 131.251987 
L 430.15477 131.386662 
L 428.194937 131.196977 
L 426.300364 129.822576 
L 424.472034 127.843628 
L 422.710894 125.6597 
L 421.017856 124.0767 
L 419.393799 123.943547 
L 416.355956 124.966185 
L 414.943744 125.038667 
L 413.60366 124.266747 
L 412.336398 122.9181 
L 410.022931 119.723865 
L 408.977924 118.467429 
L 407.114073 116.715945 
L 406.296193 116.250674 
L 405.554924 115.587403 
L 404.890647 115.157162 
L 404.303709 115.281222 
L 403.794412 116.805939 
L 402.42038 122.870412 
L 402.42038 122.870412 
" style="fill:none;stroke:#20b2aa;stroke-linecap:square;stroke-width:1.5;"/>
   </g>
   <g id="patch_9">
    <path d="M 387.206667 329.44 
L 387.206667 7.56 
" style="fill:none;stroke:#000000;stroke-linecap:square;stroke-linejoin:miter;stroke-width:0.8;"/>
   </g>
   <g id="patch_10">
    <path d="M 721.043333 329.44 
L 721.043333 7.56 
" style="fill:none;stroke:#000000;stroke-linecap:square;stroke-linejoin:miter;stroke-width:0.8;"/>
   </g>
   <g id="patch_11">
    <path d="M 387.206667 329.44 
L 721.043333 329.44 
" style="fill:none;stroke:#000000;stroke-linecap:square;stroke-linejoin:miter;stroke-width:0.8;"/>
   </g>
   <g id="patch_12">
    <path d="M 387.206667 7.56 
L 721.043333 7.56 
" style="fill:none;stroke:#000000;stroke-linecap:square;stroke-linejoin:miter;stroke-width:0.8;"/>
   </g>
   <g id="legend_2">
    <g id="patch_13">
     <path d="M 646.417865 23.434688 
L 716.143333 23.434688 
Q 717.543333 23.434688 717.543333 22.034688 
L 717.543333 12.46 
Q 717.543333 11.06 716.143333 11.06 
L 646.417865 11.06 
Q 645.017865 11.06 645.017865 12.46 
L 645.017865 22.034688 
Q 645.017865 23.434688 646.417865 23.434688 
z
" style="fill:#ffffff;opacity:0.8;stroke:#cccccc;stroke-linejoin:miter;"/>
    </g>
    <g id="line2d_27">
     <path d="M 647.817865 16.728906 
L 661.817865 16.728906 
" style="fill:none;stroke:#20b2aa;stroke-linecap:square;stroke-width:1.5;"/>
    </g>
    <g id="line2d_28"/>
    <g id="text_23">
     <text style="font-family:DejaVu Sans;font-size:7px;font-style:normal;font-weight:normal;text-anchor:start;" transform="rotate(-0, 667.417865, 19.178906)" x="667.417865" y="19.178906">Fourth period</text>
    </g>
   </g>
  </g>
  <g id="axes_3">
   <g id="patch_14">
    <path d="M 738.603333 329.44 
L 1072.44 329.44 
L 1072.44 7.56 
L 738.603333 7.56 
z
" style="fill:#ffffff;"/>
   </g>
   <g id="matplotlib.axis_5">
    <g id="xtick_13">
     <g id="line2d_29">
      <g>
       <use style="stroke:#000000;stroke-width:0.8;" x="753.777727" xlink:href="#mf17076246f" y="329.44"/>
      </g>
     </g>
     <g id="text_24">
      <text style="font-family:DejaVu Sans;font-size:7px;font-style:normal;font-weight:normal;text-anchor:middle;" transform="rotate(-0, 753.777727, 341.758906)" x="753.777727" y="341.758906">0.0</text>
     </g>
    </g>
    <g id="xtick_14">
     <g id="line2d_30">
      <g>
       <use style="stroke:#000000;stroke-width:0.8;" x="814.475303" xlink:href="#mf17076246f" y="329.44"/>
      </g>
     </g>
     <g id="text_25">
      <text style="font-family:DejaVu Sans;font-size:7px;font-style:normal;font-weight:normal;text-anchor:middle;" transform="rotate(-0, 814.475303, 341.758906)" x="814.475303" y="341.758906">0.2</text>
     </g>
    </g>
    <g id="xtick_15">
     <g id="line2d_31">
      <g>
       <use style="stroke:#000000;stroke-width:0.8;" x="875.172879" xlink:href="#mf17076246f" y="329.44"/>
      </g>
     </g>
     <g id="text_26">
      <text style="font-family:DejaVu Sans;font-size:7px;font-style:normal;font-weight:normal;text-anchor:middle;" transform="rotate(-0, 875.172879, 341.758906)" x="875.172879" y="341.758906">0.4</text>
     </g>
    </g>
    <g id="xtick_16">
     <g id="line2d_32">
      <g>
       <use style="stroke:#000000;stroke-width:0.8;" x="935.870455" xlink:href="#mf17076246f" y="329.44"/>
      </g>
     </g>
     <g id="text_27">
      <text style="font-family:DejaVu Sans;font-size:7px;font-style:normal;font-weight:normal;text-anchor:middle;" transform="rotate(-0, 935.870455, 341.758906)" x="935.870455" y="341.758906">0.6</text>
     </g>
    </g>
    <g id="xtick_17">
     <g id="line2d_33">
      <g>
       <use style="stroke:#000000;stroke-width:0.8;" x="996.56803" xlink:href="#mf17076246f" y="329.44"/>
      </g>
     </g>
     <g id="text_28">
      <text style="font-family:DejaVu Sans;font-size:7px;font-style:normal;font-weight:normal;text-anchor:middle;" transform="rotate(-0, 996.56803, 341.758906)" x="996.56803" y="341.758906">0.8</text>
     </g>
    </g>
    <g id="xtick_18">
     <g id="line2d_34">
      <g>
       <use style="stroke:#000000;stroke-width:0.8;" x="1057.265606" xlink:href="#mf17076246f" y="329.44"/>
      </g>
     </g>
     <g id="text_29">
      <text style="font-family:DejaVu Sans;font-size:7px;font-style:normal;font-weight:normal;text-anchor:middle;" transform="rotate(-0, 1057.265606, 341.758906)" x="1057.265606" y="341.758906">1.0</text>
     </g>
    </g>
    <g id="text_30">
     <text style="font-family:DejaVu Sans;font-size:7px;font-style:normal;font-weight:normal;text-anchor:middle;" transform="rotate(-0, 905.521667, 352.533594)" x="905.521667" y="352.533594">Stimulation Intensity</text>
    </g>
   </g>
   <g id="matplotlib.axis_6">
    <g id="ytick_11">
     <g id="line2d_35">
      <g>
       <use style="stroke:#000000;stroke-width:0.8;" x="738.603333" xlink:href="#m714f52835a" y="295.590786"/>
      </g>
     </g>
    </g>
    <g id="ytick_12">
     <g id="line2d_36">
      <g>
       <use style="stroke:#000000;stroke-width:0.8;" x="738.603333" xlink:href="#m714f52835a" y="233.724491"/>
      </g>
     </g>
    </g>
    <g id="ytick_13">
     <g id="line2d_37">
      <g>
       <use style="stroke:#000000;stroke-width:0.8;" x="738.603333" xlink:href="#m714f52835a" y="171.858197"/>
      </g>
     </g>
    </g>
    <g id="ytick_14">
     <g id="line2d_38">
      <g>
       <use style="stroke:#000000;stroke-width:0.8;" x="738.603333" xlink:href="#m714f52835a" y="109.991902"/>
      </g>
     </g>
    </g>
    <g id="ytick_15">
     <g id="line2d_39">
      <g>
       <use style="stroke:#000000;stroke-width:0.8;" x="738.603333" xlink:href="#m714f52835a" y="48.125607"/>
      </g>
     </g>
    </g>
    <g id="text_31">
     <text style="font-family:DejaVu Sans;font-size:7px;font-style:normal;font-weight:normal;text-anchor:middle;" transform="rotate(-90, 733.147552, 168.5)" x="733.147552" y="168.5">Activity</text>
    </g>
   </g>
   <g id="line2d_40">
    <path clip-path="url(#p02518f33c8)" d="M 753.777727 216.978986 
L 753.934984 220.469181 
L 754.406426 223.560519 
L 754.759688 225.083428 
L 755.191079 226.38261 
L 756.287314 228.230356 
L 756.95159 229.08326 
L 757.69286 229.656777 
L 758.510739 229.635248 
L 759.404804 229.848226 
L 760.374591 229.934681 
L 761.419598 230.263328 
L 763.733065 231.171225 
L 766.340411 233.983971 
L 769.236231 239.575722 
L 770.790466 242.626719 
L 772.414523 245.17941 
L 774.10756 247.310716 
L 777.69703 250.741172 
L 779.591603 251.951212 
L 781.551437 252.737626 
L 783.575515 253.232828 
L 785.66279 253.869816 
L 787.81218 254.242848 
L 790.02257 254.457382 
L 792.292815 253.905647 
L 794.621738 253.636332 
L 797.008134 253.977178 
L 799.450764 255.243286 
L 801.948364 256.790765 
L 804.499638 258.666513 
L 807.103265 260.219868 
L 809.757896 260.995641 
L 812.462154 261.578945 
L 820.858556 262.200518 
L 823.747065 262.071905 
L 826.677951 261.474975 
L 829.649697 260.239225 
L 832.660762 258.736228 
L 835.709585 257.589606 
L 838.794588 257.640908 
L 841.91417 258.475021 
L 845.066716 259.815508 
L 848.250591 261.405878 
L 851.464146 262.774055 
L 854.705715 263.993902 
L 857.973619 265.043 
L 861.266163 265.451353 
L 864.581642 265.698355 
L 871.274519 266.97207 
L 874.64845 267.110058 
L 878.03838 266.716788 
L 881.442552 265.520389 
L 884.859203 263.978134 
L 888.286562 262.664365 
L 898.615102 260.771405 
L 902.067489 259.567977 
L 908.975844 254.680972 
L 912.428231 253.739146 
L 915.877039 254.646186 
L 919.320481 255.748119 
L 922.756772 256.703436 
L 926.18413 256.557275 
L 933.004954 255.571342 
L 939.768814 253.583062 
L 943.124996 252.698077 
L 949.77717 251.666086 
L 956.337618 250.096339 
L 959.579187 249.549189 
L 962.792742 248.560319 
L 965.976617 247.734546 
L 969.129163 247.176077 
L 972.248746 246.822472 
L 975.333748 245.364674 
L 978.382571 242.617195 
L 981.393636 239.381633 
L 984.365382 236.500356 
L 987.296269 234.777147 
L 990.184777 233.649413 
L 993.029411 232.805022 
L 995.828695 231.717874 
L 998.581179 230.26764 
L 1003.940068 227.013714 
L 1006.543695 225.813152 
L 1009.094969 225.01633 
L 1014.0352 224.043438 
L 1016.421595 223.016038 
L 1021.020764 219.736705 
L 1029.491897 211.344022 
L 1031.45173 209.84858 
L 1035.174633 207.566399 
L 1036.935773 207.393853 
L 1038.62881 208.421816 
L 1040.252867 209.563898 
L 1043.290711 212.201768 
L 1044.702923 212.837611 
L 1046.043007 212.244447 
L 1047.310268 210.904738 
L 1048.504051 208.687593 
L 1049.623736 206.130372 
L 1050.668742 204.035255 
L 1052.532594 199.592357 
L 1053.350473 197.106951 
L 1054.091743 194.205965 
L 1054.75602 192.287045 
L 1055.342958 191.952235 
L 1056.283646 192.646881 
L 1057.10835 194.254714 
L 1057.226287 193.902576 
L 1057.226287 192.447144 
L 1057.10835 192.336824 
L 1056.911856 192.414073 
L 1056.283646 192.355121 
L 1055.852255 191.897217 
L 1055.342958 191.840806 
L 1054.75602 192.790329 
L 1054.091743 193.065261 
L 1053.350473 192.489564 
L 1051.638529 189.998717 
L 1050.668742 188.593989 
L 1049.623736 187.572575 
L 1046.043007 183.309175 
L 1044.702923 181.768416 
L 1043.290711 180.909935 
L 1041.807103 180.432385 
L 1040.252867 180.762986 
L 1038.62881 181.477259 
L 1036.935773 181.997922 
L 1035.174633 182.192688 
L 1033.346303 181.874476 
L 1031.45173 181.32033 
L 1029.491897 180.568368 
L 1027.467818 180.728329 
L 1025.380543 181.802202 
L 1023.231154 183.34979 
L 1018.750519 188.396037 
L 1016.421595 190.324147 
L 1014.0352 192.006711 
L 1011.592569 193.339679 
L 1009.094969 194.500364 
L 1006.543695 195.046331 
L 1003.940068 194.610035 
L 1001.285437 193.770506 
L 998.581179 192.554201 
L 995.828695 191.444197 
L 993.029411 190.490052 
L 984.365382 188.96405 
L 981.393636 188.718665 
L 975.333748 187.540078 
L 969.129163 187.611682 
L 965.976617 186.730168 
L 962.792742 185.43507 
L 959.579187 183.877422 
L 956.337618 183.323261 
L 953.069715 183.314334 
L 949.77717 184.65214 
L 946.461692 186.734969 
L 943.124996 189.542183 
L 939.768814 192.033943 
L 936.394884 193.811433 
L 926.18413 198.744639 
L 922.756772 199.873146 
L 919.320481 201.266268 
L 912.428231 203.053522 
L 905.521667 205.98089 
L 902.067489 206.515524 
L 898.615102 206.283203 
L 891.722852 204.782773 
L 888.286562 204.779568 
L 884.859203 204.953247 
L 878.03838 206.71401 
L 874.64845 206.611229 
L 871.274519 206.303192 
L 867.918337 205.59892 
L 864.581642 205.073876 
L 861.266163 205.481183 
L 857.973619 206.702543 
L 854.705715 208.403324 
L 851.464146 210.866047 
L 848.250591 213.032643 
L 845.066716 214.726968 
L 841.91417 215.835404 
L 838.794588 216.178364 
L 835.709585 216.360487 
L 832.660762 216.339115 
L 829.649697 215.802185 
L 823.747065 213.478635 
L 818.013923 211.805477 
L 815.214639 211.561262 
L 812.462154 212.200718 
L 809.757896 214.42495 
L 807.103265 217.592727 
L 801.948364 225.013986 
L 799.450764 228.155535 
L 797.008134 230.356681 
L 794.621738 232.062717 
L 792.292815 232.847994 
L 790.02257 233.818532 
L 787.81218 234.558925 
L 783.575515 235.308002 
L 781.551437 235.398405 
L 777.69703 234.966812 
L 775.8687 235.201138 
L 774.10756 235.869823 
L 770.790466 237.852525 
L 767.752623 240.62145 
L 766.340411 241.33312 
L 765.000326 241.670685 
L 763.733065 241.521862 
L 762.539282 240.855309 
L 761.419598 239.397346 
L 760.374591 237.514122 
L 759.404804 235.379369 
L 758.510739 233.888802 
L 757.69286 233.432771 
L 756.95159 233.702304 
L 756.287314 235.090421 
L 755.700375 236.0245 
L 754.759688 237.79076 
L 754.406426 237.97739 
L 754.131477 237.863922 
L 753.934984 237.479521 
L 753.817046 236.996769 
L 753.817046 236.996769 
" style="fill:none;stroke:#b0c4de;stroke-linecap:square;stroke-width:1.5;"/>
   </g>
   <g id="patch_15">
    <path d="M 738.603333 329.44 
L 738.603333 7.56 
" style="fill:none;stroke:#000000;stroke-linecap:square;stroke-linejoin:miter;stroke-width:0.8;"/>
   </g>
   <g id="patch_16">
    <path d="M 1072.44 329.44 
L 1072.44 7.56 
" style="fill:none;stroke:#000000;stroke-linecap:square;stroke-linejoin:miter;stroke-width:0.8;"/>
   </g>
   <g id="patch_17">
    <path d="M 738.603333 329.44 
L 1072.44 329.44 
" style="fill:none;stroke:#000000;stroke-linecap:square;stroke-linejoin:miter;stroke-width:0.8;"/>
   </g>
   <g id="patch_18">
    <path d="M 738.603333 7.56 
L 1072.44 7.56 
" style="fill:none;stroke:#000000;stroke-linecap:square;stroke-linejoin:miter;stroke-width:0.8;"/>
   </g>
   <g id="legend_3">
    <g id="patch_19">
     <path d="M 997.053281 23.434688 
L 1067.54 23.434688 
Q 1068.94 23.434688 1068.94 22.034688 
L 1068.94 12.46 
Q 1068.94 11.06 1067.54 11.06 
L 997.053281 11.06 
Q 995.653281 11.06 995.653281 12.46 
L 995.653281 22.034688 
Q 995.653281 23.434688 997.053281 23.434688 
z
" style="fill:#ffffff;opacity:0.8;stroke:#cccccc;stroke-linejoin:miter;"/>
    </g>
    <g id="line2d_41">
     <path d="M 998.453281 16.728906 
L 1012.453281 16.728906 
" style="fill:none;stroke:#b0c4de;stroke-linecap:square;stroke-width:1.5;"/>
    </g>
    <g id="line2d_42"/>
    <g id="text_32">
     <text style="font-family:DejaVu Sans;font-size:7px;font-style:normal;font-weight:normal;text-anchor:start;" transform="rotate(-0, 1018.053281, 19.178906)" x="1018.053281" y="19.178906">Eleven period</text>
    </g>
   </g>
  </g>
 </g>
 <defs>
  <clipPath id="p7d49662167">
   <rect height="321.88" width="333.836667" x="35.81" y="7.56"/>
  </clipPath>
  <clipPath id="p9aefabc047">
   <rect height="321.88" width="333.836667" x="387.206667" y="7.56"/>
  </clipPath>
  <clipPath id="p02518f33c8">
   <rect height="321.88" width="333.836667" x="738.603333" y="7.56"/>
  </clipPath>
 </defs>
</svg>
