<?xml version="1.0" encoding="utf-8" standalone="no"?>
<!DOCTYPE svg PUBLIC "-//W3C//DTD SVG 1.1//EN"
  "http://www.w3.org/Graphics/SVG/1.1/DTD/svg11.dtd">
<!-- Created with matplotlib (https://matplotlib.org/) -->
<svg height="360pt" version="1.1" viewBox="0 0 1080 360" width="1080pt" xmlns="http://www.w3.org/2000/svg" xmlns:xlink="http://www.w3.org/1999/xlink">
 <defs>
  <style type="text/css">
*{stroke-linecap:butt;stroke-linejoin:round;white-space:pre;}
  </style>
 </defs>
 <g id="figure_1">
  <g id="patch_1">
   <path d="M 0 360 
L 1080 360 
L 1080 0 
L 0 0 
z
" style="fill:#ffffff;"/>
  </g>
  <g id="axes_1">
   <g id="patch_2">
    <path d="M 35.81 329.44 
L 369.646667 329.44 
L 369.646667 7.56 
L 35.81 7.56 
z
" style="fill:#ffffff;"/>
   </g>
   <g id="matplotlib.axis_1">
    <g id="xtick_1">
     <g id="line2d_1">
      <defs>
       <path d="M 0 0 
L 0 3.5 
" id="m4062177986" style="stroke:#000000;stroke-width:0.8;"/>
      </defs>
      <g>
       <use style="stroke:#000000;stroke-width:0.8;" x="50.984394" xlink:href="#m4062177986" y="329.44"/>
      </g>
     </g>
     <g id="text_1">
      <text style="font-family:DejaVu Sans;font-size:7px;font-style:normal;font-weight:normal;text-anchor:middle;" transform="rotate(-0, 50.984394, 341.758906)" x="50.984394" y="341.758906">0.0</text>
     </g>
    </g>
    <g id="xtick_2">
     <g id="line2d_2">
      <g>
       <use style="stroke:#000000;stroke-width:0.8;" x="111.68197" xlink:href="#m4062177986" y="329.44"/>
      </g>
     </g>
     <g id="text_2">
      <text style="font-family:DejaVu Sans;font-size:7px;font-style:normal;font-weight:normal;text-anchor:middle;" transform="rotate(-0, 111.68197, 341.758906)" x="111.68197" y="341.758906">0.2</text>
     </g>
    </g>
    <g id="xtick_3">
     <g id="line2d_3">
      <g>
       <use style="stroke:#000000;stroke-width:0.8;" x="172.379545" xlink:href="#m4062177986" y="329.44"/>
      </g>
     </g>
     <g id="text_3">
      <text style="font-family:DejaVu Sans;font-size:7px;font-style:normal;font-weight:normal;text-anchor:middle;" transform="rotate(-0, 172.379545, 341.758906)" x="172.379545" y="341.758906">0.4</text>
     </g>
    </g>
    <g id="xtick_4">
     <g id="line2d_4">
      <g>
       <use style="stroke:#000000;stroke-width:0.8;" x="233.077121" xlink:href="#m4062177986" y="329.44"/>
      </g>
     </g>
     <g id="text_4">
      <text style="font-family:DejaVu Sans;font-size:7px;font-style:normal;font-weight:normal;text-anchor:middle;" transform="rotate(-0, 233.077121, 341.758906)" x="233.077121" y="341.758906">0.6</text>
     </g>
    </g>
    <g id="xtick_5">
     <g id="line2d_5">
      <g>
       <use style="stroke:#000000;stroke-width:0.8;" x="293.774697" xlink:href="#m4062177986" y="329.44"/>
      </g>
     </g>
     <g id="text_5">
      <text style="font-family:DejaVu Sans;font-size:7px;font-style:normal;font-weight:normal;text-anchor:middle;" transform="rotate(-0, 293.774697, 341.758906)" x="293.774697" y="341.758906">0.8</text>
     </g>
    </g>
    <g id="xtick_6">
     <g id="line2d_6">
      <g>
       <use style="stroke:#000000;stroke-width:0.8;" x="354.472273" xlink:href="#m4062177986" y="329.44"/>
      </g>
     </g>
     <g id="text_6">
      <text style="font-family:DejaVu Sans;font-size:7px;font-style:normal;font-weight:normal;text-anchor:middle;" transform="rotate(-0, 354.472273, 341.758906)" x="354.472273" y="341.758906">1.0</text>
     </g>
    </g>
    <g id="text_7">
     <text style="font-family:DejaVu Sans;font-size:7px;font-style:normal;font-weight:normal;text-anchor:middle;" transform="rotate(-0, 202.728333, 352.533594)" x="202.728333" y="352.533594">Stimulation Intensity</text>
    </g>
   </g>
   <g id="matplotlib.axis_2">
    <g id="ytick_1">
     <g id="line2d_7">
      <defs>
       <path d="M 0 0 
L -3.5 0 
" id="m59b96d8410" style="stroke:#000000;stroke-width:0.8;"/>
      </defs>
      <g>
       <use style="stroke:#000000;stroke-width:0.8;" x="35.81" xlink:href="#m59b96d8410" y="291.503334"/>
      </g>
     </g>
     <g id="text_8">
      <text style="font-family:DejaVu Sans;font-size:7px;font-style:normal;font-weight:normal;text-anchor:end;" transform="rotate(-0, 28.81, 294.162788)" x="28.81" y="294.162788">0.4</text>
     </g>
    </g>
    <g id="ytick_2">
     <g id="line2d_8">
      <g>
       <use style="stroke:#000000;stroke-width:0.8;" x="35.81" xlink:href="#m59b96d8410" y="233.097835"/>
      </g>
     </g>
     <g id="text_9">
      <text style="font-family:DejaVu Sans;font-size:7px;font-style:normal;font-weight:normal;text-anchor:end;" transform="rotate(-0, 28.81, 235.757288)" x="28.81" y="235.757288">0.6</text>
     </g>
    </g>
    <g id="ytick_3">
     <g id="line2d_9">
      <g>
       <use style="stroke:#000000;stroke-width:0.8;" x="35.81" xlink:href="#m59b96d8410" y="174.692335"/>
      </g>
     </g>
     <g id="text_10">
      <text style="font-family:DejaVu Sans;font-size:7px;font-style:normal;font-weight:normal;text-anchor:end;" transform="rotate(-0, 28.81, 177.351788)" x="28.81" y="177.351788">0.8</text>
     </g>
    </g>
    <g id="ytick_4">
     <g id="line2d_10">
      <g>
       <use style="stroke:#000000;stroke-width:0.8;" x="35.81" xlink:href="#m59b96d8410" y="116.286835"/>
      </g>
     </g>
     <g id="text_11">
      <text style="font-family:DejaVu Sans;font-size:7px;font-style:normal;font-weight:normal;text-anchor:end;" transform="rotate(-0, 28.81, 118.946288)" x="28.81" y="118.946288">1.0</text>
     </g>
    </g>
    <g id="ytick_5">
     <g id="line2d_11">
      <g>
       <use style="stroke:#000000;stroke-width:0.8;" x="35.81" xlink:href="#m59b96d8410" y="57.881336"/>
      </g>
     </g>
     <g id="text_12">
      <text style="font-family:DejaVu Sans;font-size:7px;font-style:normal;font-weight:normal;text-anchor:end;" transform="rotate(-0, 28.81, 60.540789)" x="28.81" y="60.540789">1.2</text>
     </g>
    </g>
    <g id="text_13">
     <text style="font-family:DejaVu Sans;font-size:7px;font-style:normal;font-weight:normal;text-anchor:middle;" transform="rotate(-90, 12.222031, 168.5)" x="12.222031" y="168.5">Activity</text>
    </g>
   </g>
   <g id="line2d_12">
    <path clip-path="url(#pb9b0330b3c)" d="M 50.984394 310.044575 
L 51.146309 311.724313 
L 51.631707 313.863435 
L 51.865232 314.46893 
L 52.134536 314.809091 
L 52.439553 314.695242 
L 53.156432 313.782718 
L 55.567526 309.380222 
L 58.12516 308.366907 
L 58.850701 308.362739 
L 60.403968 308.745583 
L 61.231324 308.945437 
L 62.092237 308.867052 
L 62.986502 308.476956 
L 63.913908 307.853531 
L 64.874234 306.821377 
L 66.892729 303.825279 
L 70.16143 298.409278 
L 71.314227 296.593083 
L 73.713036 293.4401 
L 74.958479 292.005376 
L 76.234224 291.158258 
L 77.539967 290.463209 
L 78.875399 289.277944 
L 80.240203 287.187649 
L 84.507578 279.280966 
L 90.588209 268.513805 
L 97.094226 258.039885 
L 98.784339 255.672386 
L 102.23811 251.313523 
L 104.000949 248.895558 
L 109.428249 240.042071 
L 113.157797 235.21812 
L 115.054656 232.95759 
L 118.910296 228.911906 
L 120.868163 226.95391 
L 122.845443 224.40412 
L 124.841668 221.282601 
L 128.889053 213.702256 
L 130.939253 209.588243 
L 133.006479 206.002348 
L 135.090239 202.850125 
L 137.19004 199.889771 
L 139.305384 197.275443 
L 141.435769 195.134232 
L 143.580689 193.593502 
L 145.739637 192.499379 
L 150.097563 190.903679 
L 152.295507 189.533237 
L 154.505411 187.679219 
L 156.726752 185.283067 
L 161.201633 180.055068 
L 163.454112 177.221754 
L 165.715905 174.075131 
L 170.265285 166.761682 
L 177.145735 154.641122 
L 179.452079 150.23034 
L 186.402039 136.159389 
L 188.727169 131.729706 
L 191.05562 126.927142 
L 193.386839 122.393771 
L 195.720273 118.318979 
L 198.05537 114.666107 
L 200.391574 111.581338 
L 202.728333 109.237157 
L 207.401297 104.115923 
L 212.069828 99.65839 
L 214.401047 97.714075 
L 216.729498 95.612501 
L 219.054628 93.231862 
L 221.375887 90.30139 
L 223.692723 86.59354 
L 228.310932 78.297661 
L 232.904874 70.928191 
L 235.191382 67.079788 
L 237.470192 64.433776 
L 239.740762 62.329558 
L 242.002555 60.911681 
L 244.255034 59.751087 
L 246.497664 58.010152 
L 253.16116 51.680147 
L 255.359104 49.585129 
L 257.544567 47.66713 
L 259.71703 46.472001 
L 261.875977 45.976203 
L 264.020898 46.071143 
L 266.151283 46.43781 
L 268.266626 46.487721 
L 270.366427 46.822459 
L 272.450188 47.003223 
L 274.517413 47.024063 
L 276.567614 47.184031 
L 280.614999 47.341599 
L 282.611224 47.484309 
L 284.588504 47.185357 
L 286.54637 46.320116 
L 290.402011 44.039269 
L 294.174487 41.328549 
L 301.455717 33.89297 
L 303.218557 31.776411 
L 308.362441 26.339594 
L 311.667117 23.246333 
L 313.280896 22.51352 
L 314.868458 22.190909 
L 316.429425 22.398176 
L 319.470101 24.276723 
L 320.949089 24.716958 
L 322.40004 25.005926 
L 323.822611 24.752607 
L 326.581268 22.953674 
L 327.9167 22.669173 
L 331.743631 22.679656 
L 332.958478 23.026985 
L 335.295236 25.610724 
L 336.416594 26.921161 
L 337.506248 28.55301 
L 338.563938 30.746822 
L 340.582432 35.518227 
L 341.542759 36.876417 
L 342.470164 36.986582 
L 343.36443 36.284392 
L 344.225343 36.020044 
L 345.846303 35.806191 
L 346.605965 35.554816 
L 347.331506 35.095416 
L 348.022755 34.474354 
L 348.679545 33.280796 
L 349.889141 28.828843 
L 350.959145 24.56367 
L 351.441479 23.414334 
L 351.888544 23.192798 
L 352.300235 23.881245 
L 353.017114 26.090318 
L 353.591434 29.305403 
L 353.82496 29.681759 
L 354.022652 29.612373 
L 354.400304 30.719037 
L 354.472273 30.327869 
L 354.454279 30.775229 
L 354.184464 34.360312 
L 353.82496 37.867799 
L 353.322131 40.196104 
L 352.300235 44.304899 
L 351.888544 45.630166 
L 350.959145 47.337074 
L 350.441658 47.658879 
L 349.889141 47.700253 
L 349.301723 47.132463 
L 348.679545 46.1853 
L 348.022755 45.714871 
L 347.331506 45.975657 
L 345.052699 49.112204 
L 344.225343 49.964357 
L 343.36443 51.148762 
L 342.470164 52.869949 
L 341.542759 54.216174 
L 340.582432 55.164908 
L 339.589414 55.391813 
L 338.563938 54.501529 
L 337.506248 52.772235 
L 334.14244 44.24482 
L 332.958478 43.276449 
L 331.743631 44.507662 
L 330.498188 46.657186 
L 329.222443 48.53684 
L 327.9167 50.17218 
L 325.216464 52.795018 
L 323.822611 53.548643 
L 322.40004 53.928464 
L 320.949089 54.181218 
L 314.868458 54.517052 
L 313.280896 54.253805 
L 311.667117 53.54984 
L 310.027502 53.036605 
L 308.362441 53.08621 
L 306.672328 54.284811 
L 304.957564 56.523454 
L 303.218557 59.138838 
L 301.455717 62.525628 
L 299.669464 66.317921 
L 297.860221 69.828868 
L 296.028417 72.465453 
L 294.174487 74.747005 
L 292.29887 76.687514 
L 290.402011 77.607821 
L 288.484359 77.616093 
L 286.54637 76.945224 
L 284.588504 76.387267 
L 282.611224 76.646972 
L 276.567614 79.369838 
L 274.517413 79.827451 
L 272.450188 79.96169 
L 270.366427 80.610558 
L 266.151283 82.919955 
L 264.020898 83.484884 
L 259.71703 84.125917 
L 257.544567 84.736112 
L 255.359104 85.557718 
L 253.16116 86.10487 
L 250.951255 86.166465 
L 248.729914 85.809968 
L 246.497664 84.384509 
L 244.255034 82.819246 
L 242.002555 81.636155 
L 239.740762 80.612557 
L 237.470192 79.783864 
L 230.611209 78.446449 
L 228.310932 77.548401 
L 223.692723 75.518235 
L 221.375887 74.931534 
L 219.054628 74.841783 
L 216.729498 75.110926 
L 214.401047 75.860989 
L 209.736393 78.651745 
L 207.401297 79.628121 
L 205.065092 79.981084 
L 202.728333 79.988583 
L 200.391574 80.461318 
L 198.05537 81.748587 
L 195.720273 83.381672 
L 188.727169 89.199355 
L 186.402039 91.650312 
L 181.763944 97.262588 
L 179.452079 99.696461 
L 177.145735 101.864113 
L 174.845458 103.26708 
L 172.551793 103.475124 
L 170.265285 102.961453 
L 167.986475 101.805834 
L 165.715905 100.178334 
L 163.454112 98.271538 
L 161.201633 96.62264 
L 158.959003 95.872392 
L 156.726752 95.836758 
L 150.097563 96.898121 
L 147.9121 96.889965 
L 145.739637 96.483056 
L 143.580689 96.620278 
L 141.435769 97.199307 
L 137.19004 98.520938 
L 135.090239 98.884299 
L 133.006479 98.66208 
L 128.889053 97.752263 
L 126.856364 98.182257 
L 124.841668 99.231853 
L 118.910296 103.817623 
L 116.972308 104.8241 
L 113.157797 106.1641 
L 109.428249 108.464098 
L 102.23811 113.926304 
L 100.499102 114.817657 
L 98.784339 115.925851 
L 95.429165 118.362876 
L 93.78955 119.319956 
L 92.17577 119.572585 
L 90.588209 119.615431 
L 89.027242 119.524523 
L 85.986566 118.765348 
L 84.507578 118.21519 
L 81.634056 116.850175 
L 80.240203 116.356771 
L 78.875399 116.1659 
L 77.539967 116.367597 
L 76.234224 117.446409 
L 74.958479 118.865381 
L 73.713036 119.973472 
L 72.498189 120.674358 
L 69.040072 121.098309 
L 67.950419 121.469415 
L 66.892729 122.000738 
L 65.867253 122.170719 
L 64.874234 121.83671 
L 63.913908 121.079937 
L 62.986502 120.71517 
L 62.092237 120.602912 
L 61.231324 120.945431 
L 58.850701 123.529322 
L 58.12516 124.530433 
L 56.777121 125.484579 
L 56.154943 126.045115 
L 55.567526 126.888357 
L 55.015008 127.893624 
L 54.497521 128.441431 
L 54.015188 128.453342 
L 53.156432 127.199772 
L 52.134536 127.122013 
L 51.865232 127.489783 
L 51.631707 127.601111 
L 51.434015 127.418253 
L 51.146309 126.809859 
L 51.056363 126.916511 
L 51.002387 127.416025 
L 51.002387 127.416025 
" style="fill:none;stroke:#f08080;stroke-linecap:square;stroke-width:1.5;"/>
   </g>
   <g id="patch_3">
    <path d="M 35.81 329.44 
L 35.81 7.56 
" style="fill:none;stroke:#000000;stroke-linecap:square;stroke-linejoin:miter;stroke-width:0.8;"/>
   </g>
   <g id="patch_4">
    <path d="M 369.646667 329.44 
L 369.646667 7.56 
" style="fill:none;stroke:#000000;stroke-linecap:square;stroke-linejoin:miter;stroke-width:0.8;"/>
   </g>
   <g id="patch_5">
    <path d="M 35.81 329.44 
L 369.646667 329.44 
" style="fill:none;stroke:#000000;stroke-linecap:square;stroke-linejoin:miter;stroke-width:0.8;"/>
   </g>
   <g id="patch_6">
    <path d="M 35.81 7.56 
L 369.646667 7.56 
" style="fill:none;stroke:#000000;stroke-linecap:square;stroke-linejoin:miter;stroke-width:0.8;"/>
   </g>
   <g id="legend_1">
    <g id="patch_7">
     <path d="M 40.71 23.434688 
L 102.866719 23.434688 
Q 104.266719 23.434688 104.266719 22.034688 
L 104.266719 12.46 
Q 104.266719 11.06 102.866719 11.06 
L 40.71 11.06 
Q 39.31 11.06 39.31 12.46 
L 39.31 22.034688 
Q 39.31 23.434688 40.71 23.434688 
z
" style="fill:#ffffff;opacity:0.8;stroke:#cccccc;stroke-linejoin:miter;"/>
    </g>
    <g id="line2d_13">
     <path d="M 42.11 16.728906 
L 56.11 16.728906 
" style="fill:none;stroke:#f08080;stroke-linecap:square;stroke-width:1.5;"/>
    </g>
    <g id="line2d_14"/>
    <g id="text_14">
     <text style="font-family:DejaVu Sans;font-size:7px;font-style:normal;font-weight:normal;text-anchor:start;" transform="rotate(-0, 61.71, 19.178906)" x="61.71" y="19.178906">First period</text>
    </g>
   </g>
  </g>
  <g id="axes_2">
   <g id="patch_8">
    <path d="M 387.206667 329.44 
L 721.043333 329.44 
L 721.043333 7.56 
L 387.206667 7.56 
z
" style="fill:#ffffff;"/>
   </g>
   <g id="matplotlib.axis_3">
    <g id="xtick_7">
     <g id="line2d_15">
      <g>
       <use style="stroke:#000000;stroke-width:0.8;" x="402.381061" xlink:href="#m4062177986" y="329.44"/>
      </g>
     </g>
     <g id="text_15">
      <text style="font-family:DejaVu Sans;font-size:7px;font-style:normal;font-weight:normal;text-anchor:middle;" transform="rotate(-0, 402.381061, 341.758906)" x="402.381061" y="341.758906">0.0</text>
     </g>
    </g>
    <g id="xtick_8">
     <g id="line2d_16">
      <g>
       <use style="stroke:#000000;stroke-width:0.8;" x="463.078636" xlink:href="#m4062177986" y="329.44"/>
      </g>
     </g>
     <g id="text_16">
      <text style="font-family:DejaVu Sans;font-size:7px;font-style:normal;font-weight:normal;text-anchor:middle;" transform="rotate(-0, 463.078636, 341.758906)" x="463.078636" y="341.758906">0.2</text>
     </g>
    </g>
    <g id="xtick_9">
     <g id="line2d_17">
      <g>
       <use style="stroke:#000000;stroke-width:0.8;" x="523.776212" xlink:href="#m4062177986" y="329.44"/>
      </g>
     </g>
     <g id="text_17">
      <text style="font-family:DejaVu Sans;font-size:7px;font-style:normal;font-weight:normal;text-anchor:middle;" transform="rotate(-0, 523.776212, 341.758906)" x="523.776212" y="341.758906">0.4</text>
     </g>
    </g>
    <g id="xtick_10">
     <g id="line2d_18">
      <g>
       <use style="stroke:#000000;stroke-width:0.8;" x="584.473788" xlink:href="#m4062177986" y="329.44"/>
      </g>
     </g>
     <g id="text_18">
      <text style="font-family:DejaVu Sans;font-size:7px;font-style:normal;font-weight:normal;text-anchor:middle;" transform="rotate(-0, 584.473788, 341.758906)" x="584.473788" y="341.758906">0.6</text>
     </g>
    </g>
    <g id="xtick_11">
     <g id="line2d_19">
      <g>
       <use style="stroke:#000000;stroke-width:0.8;" x="645.171364" xlink:href="#m4062177986" y="329.44"/>
      </g>
     </g>
     <g id="text_19">
      <text style="font-family:DejaVu Sans;font-size:7px;font-style:normal;font-weight:normal;text-anchor:middle;" transform="rotate(-0, 645.171364, 341.758906)" x="645.171364" y="341.758906">0.8</text>
     </g>
    </g>
    <g id="xtick_12">
     <g id="line2d_20">
      <g>
       <use style="stroke:#000000;stroke-width:0.8;" x="705.868939" xlink:href="#m4062177986" y="329.44"/>
      </g>
     </g>
     <g id="text_20">
      <text style="font-family:DejaVu Sans;font-size:7px;font-style:normal;font-weight:normal;text-anchor:middle;" transform="rotate(-0, 705.868939, 341.758906)" x="705.868939" y="341.758906">1.0</text>
     </g>
    </g>
    <g id="text_21">
     <text style="font-family:DejaVu Sans;font-size:7px;font-style:normal;font-weight:normal;text-anchor:middle;" transform="rotate(-0, 554.125, 352.533594)" x="554.125" y="352.533594">Stimulation Intensity</text>
    </g>
   </g>
   <g id="matplotlib.axis_4">
    <g id="ytick_6">
     <g id="line2d_21">
      <g>
       <use style="stroke:#000000;stroke-width:0.8;" x="387.206667" xlink:href="#m59b96d8410" y="291.503334"/>
      </g>
     </g>
    </g>
    <g id="ytick_7">
     <g id="line2d_22">
      <g>
       <use style="stroke:#000000;stroke-width:0.8;" x="387.206667" xlink:href="#m59b96d8410" y="233.097835"/>
      </g>
     </g>
    </g>
    <g id="ytick_8">
     <g id="line2d_23">
      <g>
       <use style="stroke:#000000;stroke-width:0.8;" x="387.206667" xlink:href="#m59b96d8410" y="174.692335"/>
      </g>
     </g>
    </g>
    <g id="ytick_9">
     <g id="line2d_24">
      <g>
       <use style="stroke:#000000;stroke-width:0.8;" x="387.206667" xlink:href="#m59b96d8410" y="116.286835"/>
      </g>
     </g>
    </g>
    <g id="ytick_10">
     <g id="line2d_25">
      <g>
       <use style="stroke:#000000;stroke-width:0.8;" x="387.206667" xlink:href="#m59b96d8410" y="57.881336"/>
      </g>
     </g>
    </g>
    <g id="text_22">
     <text style="font-family:DejaVu Sans;font-size:7px;font-style:normal;font-weight:normal;text-anchor:middle;" transform="rotate(-90, 381.750885, 168.5)" x="381.750885" y="168.5">Activity</text>
    </g>
   </g>
   <g id="line2d_26">
    <path clip-path="url(#pe6477f448f)" d="M 402.381061 164.29503 
L 402.542975 161.378006 
L 402.830681 159.670705 
L 403.028373 159.490182 
L 403.261899 159.743464 
L 403.83622 160.607232 
L 404.176878 161.000872 
L 404.553098 161.133998 
L 404.96479 161.44443 
L 405.894188 163.422257 
L 406.411675 164.070623 
L 406.964193 164.080078 
L 407.55161 163.859914 
L 409.521827 162.12945 
L 410.247368 161.799069 
L 411.007031 161.906532 
L 411.800634 162.202759 
L 412.627991 162.730526 
L 414.383169 164.699299 
L 416.270901 166.024122 
L 417.26392 166.602602 
L 419.347086 167.49119 
L 422.710894 169.25746 
L 423.894856 169.977753 
L 425.109702 170.863336 
L 426.355146 172.363169 
L 427.63089 174.188759 
L 428.936633 175.53355 
L 430.272065 176.587214 
L 431.636869 177.409802 
L 434.453293 178.408153 
L 435.904245 178.554242 
L 437.383233 178.347377 
L 440.423909 177.652806 
L 441.984876 177.664642 
L 443.572437 177.89424 
L 445.186217 178.55314 
L 446.825831 178.857342 
L 450.181006 178.891118 
L 451.895769 178.732882 
L 453.634777 178.939244 
L 455.397616 179.296164 
L 457.183869 179.014444 
L 458.993112 177.995661 
L 462.678846 175.660931 
L 470.306963 172.838816 
L 472.26483 172.338569 
L 474.24211 172.503951 
L 478.25303 173.395081 
L 480.285719 173.304095 
L 482.33592 172.916293 
L 484.403146 172.375621 
L 486.486906 172.134638 
L 490.702051 172.704682 
L 492.832436 172.881758 
L 494.977356 172.738161 
L 499.308766 171.886026 
L 503.692173 170.809919 
L 505.902078 170.636618 
L 508.123419 170.343501 
L 510.355669 169.792421 
L 512.5983 169.407241 
L 514.850779 168.89463 
L 517.112571 168.523885 
L 519.383142 168.267762 
L 521.661951 167.724421 
L 523.948459 166.494403 
L 526.242124 165.10784 
L 528.542402 163.885397 
L 530.848746 162.939245 
L 533.16061 162.932634 
L 540.123836 163.704048 
L 542.452287 164.400381 
L 547.11694 167.565274 
L 549.452037 168.591346 
L 556.461759 170.640487 
L 558.797963 171.541874 
L 561.13306 171.925863 
L 563.466494 172.063694 
L 565.797713 171.743962 
L 568.126164 171.184971 
L 570.451295 170.13635 
L 572.772553 168.555431 
L 575.08939 166.417317 
L 579.707598 161.145701 
L 582.007876 159.025859 
L 584.301541 157.829656 
L 588.866858 157.098161 
L 591.137429 156.539613 
L 593.399221 156.347401 
L 595.6517 156.514466 
L 597.894331 156.352901 
L 602.347922 154.318806 
L 604.557827 154.005147 
L 606.755771 154.161935 
L 608.941234 154.035781 
L 613.272644 153.000166 
L 615.417564 152.705417 
L 617.547949 152.236603 
L 619.663293 151.513148 
L 621.763094 150.136981 
L 623.846854 148.532109 
L 625.91408 147.318992 
L 627.964281 146.84899 
L 632.011666 147.202092 
L 634.00789 147.484802 
L 635.98517 147.879208 
L 637.943037 148.064477 
L 639.881026 147.696856 
L 641.798677 146.882688 
L 647.425084 142.968898 
L 649.256888 142.43325 
L 651.066131 143.176898 
L 652.852384 144.284535 
L 656.354231 145.958143 
L 659.759107 147.16017 
L 661.424169 147.679735 
L 664.677563 149.166017 
L 667.826091 149.757217 
L 669.360094 149.768258 
L 670.866767 149.587261 
L 672.345755 149.668704 
L 673.796707 149.507132 
L 675.219278 148.985284 
L 676.613131 148.238504 
L 680.61911 145.720564 
L 681.894854 144.739119 
L 683.140298 144.228349 
L 684.355144 143.856616 
L 686.691903 143.988704 
L 687.813261 143.648752 
L 689.960604 142.315488 
L 694.761097 138.553736 
L 695.622009 138.195006 
L 696.449366 138.23207 
L 697.242969 138.449883 
L 698.002632 138.899064 
L 699.419421 140.023005 
L 700.69839 140.676581 
L 701.285807 141.236745 
L 701.838325 141.416349 
L 702.355812 140.991025 
L 703.28521 139.584229 
L 703.696902 139.075136 
L 704.073122 138.923376 
L 704.41378 138.432993 
L 705.419319 134.570185 
L 705.79697 134.784361 
L 705.850946 133.547618 
L 705.707025 134.652744 
L 705.419319 136.649044 
L 704.988101 137.621623 
L 704.718798 137.902288 
L 704.41378 138.382823 
L 703.28521 141.942089 
L 702.838145 142.835316 
L 702.355812 143.439042 
L 701.285807 143.656092 
L 700.69839 143.318944 
L 700.076212 142.535281 
L 698.728173 139.383282 
L 697.242969 135.378045 
L 696.449366 133.949727 
L 695.622009 133.07067 
L 694.761097 132.923774 
L 693.866831 133.447591 
L 689.960604 136.904447 
L 688.902914 137.388122 
L 687.813261 138.062027 
L 685.539106 138.96568 
L 684.355144 139.71081 
L 681.894854 141.569729 
L 680.61911 142.310705 
L 679.313367 142.720904 
L 677.977935 142.941763 
L 676.613131 142.784064 
L 675.219278 143.228572 
L 673.796707 143.874975 
L 670.866767 144.621207 
L 669.360094 144.57789 
L 667.826091 144.259346 
L 664.677563 143.405907 
L 663.063783 143.333024 
L 661.424169 143.903407 
L 659.759107 144.633071 
L 658.068994 145.24882 
L 656.354231 145.508037 
L 654.615223 145.112117 
L 652.852384 144.521759 
L 651.066131 144.286732 
L 649.256888 144.436571 
L 645.571154 145.336116 
L 639.881026 145.484202 
L 637.943037 145.756035 
L 634.00789 145.47021 
L 632.011666 145.618467 
L 627.964281 146.632717 
L 625.91408 146.654959 
L 623.846854 146.345855 
L 621.763094 146.53364 
L 619.663293 147.20652 
L 617.547949 147.721911 
L 615.417564 148.007896 
L 608.941234 147.951027 
L 606.755771 148.006275 
L 602.347922 147.928128 
L 597.894331 147.46635 
L 595.6517 147.437109 
L 593.399221 147.257052 
L 591.137429 146.617909 
L 586.588049 144.737202 
L 584.301541 144.023398 
L 582.007876 143.852351 
L 579.707598 143.816348 
L 577.401254 143.538824 
L 575.08939 143.026316 
L 572.772553 142.29072 
L 570.451295 141.432352 
L 568.126164 140.772058 
L 565.797713 140.53171 
L 563.466494 140.918961 
L 558.797963 143.325518 
L 556.461759 143.881799 
L 551.788241 144.198112 
L 549.452037 144.322836 
L 544.783506 145.511669 
L 542.452287 145.767731 
L 540.123836 145.110504 
L 537.798705 143.607619 
L 533.16061 140.264595 
L 530.848746 139.273977 
L 526.242124 138.360949 
L 523.948459 137.557303 
L 521.661951 136.547472 
L 519.383142 135.767007 
L 512.5983 134.510416 
L 510.355669 133.560683 
L 508.123419 132.139218 
L 505.902078 130.586075 
L 503.692173 129.342599 
L 501.494229 129.012548 
L 499.308766 129.211029 
L 494.977356 130.204462 
L 490.702051 130.378467 
L 488.586707 130.787062 
L 486.486906 131.786368 
L 484.403146 133.09486 
L 482.33592 134.01437 
L 480.285719 134.517181 
L 478.25303 134.716888 
L 476.238334 135.609678 
L 474.24211 137.256344 
L 472.26483 138.653906 
L 470.306963 139.501738 
L 468.368974 139.933372 
L 466.451323 139.79813 
L 464.554463 139.424272 
L 462.678846 138.778847 
L 460.824916 137.758068 
L 458.993112 136.902818 
L 457.183869 136.357333 
L 455.397616 136.310782 
L 451.895769 136.924707 
L 448.490893 136.957347 
L 446.825831 136.687023 
L 445.186217 136.548907 
L 443.572437 136.56049 
L 441.984876 137.396771 
L 440.423909 138.965113 
L 437.383233 143.341803 
L 435.904245 144.455521 
L 434.453293 145.008311 
L 433.030722 144.986717 
L 428.936633 144.60104 
L 427.63089 143.941034 
L 426.355146 143.092689 
L 425.109702 142.478418 
L 423.894856 142.189052 
L 422.710894 141.728598 
L 421.558097 140.702808 
L 420.436739 139.928134 
L 419.347086 139.60837 
L 418.289396 140.097169 
L 417.26392 141.06894 
L 416.270901 141.5512 
L 414.383169 141.211504 
L 413.488903 140.425793 
L 412.627991 139.219247 
L 411.800634 138.341232 
L 411.007031 138.062327 
L 408.830579 139.327493 
L 408.173788 139.896021 
L 406.964193 141.42319 
L 406.411675 141.573665 
L 405.411855 140.697201 
L 404.553098 139.782468 
L 403.83622 139.821161 
L 403.531202 139.546104 
L 402.45303 136.252515 
L 402.399054 136.425891 
" style="fill:none;stroke:#20b2aa;stroke-linecap:square;stroke-width:1.5;"/>
   </g>
   <g id="patch_9">
    <path d="M 387.206667 329.44 
L 387.206667 7.56 
" style="fill:none;stroke:#000000;stroke-linecap:square;stroke-linejoin:miter;stroke-width:0.8;"/>
   </g>
   <g id="patch_10">
    <path d="M 721.043333 329.44 
L 721.043333 7.56 
" style="fill:none;stroke:#000000;stroke-linecap:square;stroke-linejoin:miter;stroke-width:0.8;"/>
   </g>
   <g id="patch_11">
    <path d="M 387.206667 329.44 
L 721.043333 329.44 
" style="fill:none;stroke:#000000;stroke-linecap:square;stroke-linejoin:miter;stroke-width:0.8;"/>
   </g>
   <g id="patch_12">
    <path d="M 387.206667 7.56 
L 721.043333 7.56 
" style="fill:none;stroke:#000000;stroke-linecap:square;stroke-linejoin:miter;stroke-width:0.8;"/>
   </g>
   <g id="legend_2">
    <g id="patch_13">
     <path d="M 651.241302 23.434688 
L 716.143333 23.434688 
Q 717.543333 23.434688 717.543333 22.034688 
L 717.543333 12.46 
Q 717.543333 11.06 716.143333 11.06 
L 651.241302 11.06 
Q 649.841302 11.06 649.841302 12.46 
L 649.841302 22.034688 
Q 649.841302 23.434688 651.241302 23.434688 
z
" style="fill:#ffffff;opacity:0.8;stroke:#cccccc;stroke-linejoin:miter;"/>
    </g>
    <g id="line2d_27">
     <path d="M 652.641302 16.728906 
L 666.641302 16.728906 
" style="fill:none;stroke:#20b2aa;stroke-linecap:square;stroke-width:1.5;"/>
    </g>
    <g id="line2d_28"/>
    <g id="text_23">
     <text style="font-family:DejaVu Sans;font-size:7px;font-style:normal;font-weight:normal;text-anchor:start;" transform="rotate(-0, 672.241302, 19.178906)" x="672.241302" y="19.178906">Third period</text>
    </g>
   </g>
  </g>
  <g id="axes_3">
   <g id="patch_14">
    <path d="M 738.603333 329.44 
L 1072.44 329.44 
L 1072.44 7.56 
L 738.603333 7.56 
z
" style="fill:#ffffff;"/>
   </g>
   <g id="matplotlib.axis_5">
    <g id="xtick_13">
     <g id="line2d_29">
      <g>
       <use style="stroke:#000000;stroke-width:0.8;" x="753.777727" xlink:href="#m4062177986" y="329.44"/>
      </g>
     </g>
     <g id="text_24">
      <text style="font-family:DejaVu Sans;font-size:7px;font-style:normal;font-weight:normal;text-anchor:middle;" transform="rotate(-0, 753.777727, 341.758906)" x="753.777727" y="341.758906">0.0</text>
     </g>
    </g>
    <g id="xtick_14">
     <g id="line2d_30">
      <g>
       <use style="stroke:#000000;stroke-width:0.8;" x="814.475303" xlink:href="#m4062177986" y="329.44"/>
      </g>
     </g>
     <g id="text_25">
      <text style="font-family:DejaVu Sans;font-size:7px;font-style:normal;font-weight:normal;text-anchor:middle;" transform="rotate(-0, 814.475303, 341.758906)" x="814.475303" y="341.758906">0.2</text>
     </g>
    </g>
    <g id="xtick_15">
     <g id="line2d_31">
      <g>
       <use style="stroke:#000000;stroke-width:0.8;" x="875.172879" xlink:href="#m4062177986" y="329.44"/>
      </g>
     </g>
     <g id="text_26">
      <text style="font-family:DejaVu Sans;font-size:7px;font-style:normal;font-weight:normal;text-anchor:middle;" transform="rotate(-0, 875.172879, 341.758906)" x="875.172879" y="341.758906">0.4</text>
     </g>
    </g>
    <g id="xtick_16">
     <g id="line2d_32">
      <g>
       <use style="stroke:#000000;stroke-width:0.8;" x="935.870455" xlink:href="#m4062177986" y="329.44"/>
      </g>
     </g>
     <g id="text_27">
      <text style="font-family:DejaVu Sans;font-size:7px;font-style:normal;font-weight:normal;text-anchor:middle;" transform="rotate(-0, 935.870455, 341.758906)" x="935.870455" y="341.758906">0.6</text>
     </g>
    </g>
    <g id="xtick_17">
     <g id="line2d_33">
      <g>
       <use style="stroke:#000000;stroke-width:0.8;" x="996.56803" xlink:href="#m4062177986" y="329.44"/>
      </g>
     </g>
     <g id="text_28">
      <text style="font-family:DejaVu Sans;font-size:7px;font-style:normal;font-weight:normal;text-anchor:middle;" transform="rotate(-0, 996.56803, 341.758906)" x="996.56803" y="341.758906">0.8</text>
     </g>
    </g>
    <g id="xtick_18">
     <g id="line2d_34">
      <g>
       <use style="stroke:#000000;stroke-width:0.8;" x="1057.265606" xlink:href="#m4062177986" y="329.44"/>
      </g>
     </g>
     <g id="text_29">
      <text style="font-family:DejaVu Sans;font-size:7px;font-style:normal;font-weight:normal;text-anchor:middle;" transform="rotate(-0, 1057.265606, 341.758906)" x="1057.265606" y="341.758906">1.0</text>
     </g>
    </g>
    <g id="text_30">
     <text style="font-family:DejaVu Sans;font-size:7px;font-style:normal;font-weight:normal;text-anchor:middle;" transform="rotate(-0, 905.521667, 352.533594)" x="905.521667" y="352.533594">Stimulation Intensity</text>
    </g>
   </g>
   <g id="matplotlib.axis_6">
    <g id="ytick_11">
     <g id="line2d_35">
      <g>
       <use style="stroke:#000000;stroke-width:0.8;" x="738.603333" xlink:href="#m59b96d8410" y="291.503334"/>
      </g>
     </g>
    </g>
    <g id="ytick_12">
     <g id="line2d_36">
      <g>
       <use style="stroke:#000000;stroke-width:0.8;" x="738.603333" xlink:href="#m59b96d8410" y="233.097835"/>
      </g>
     </g>
    </g>
    <g id="ytick_13">
     <g id="line2d_37">
      <g>
       <use style="stroke:#000000;stroke-width:0.8;" x="738.603333" xlink:href="#m59b96d8410" y="174.692335"/>
      </g>
     </g>
    </g>
    <g id="ytick_14">
     <g id="line2d_38">
      <g>
       <use style="stroke:#000000;stroke-width:0.8;" x="738.603333" xlink:href="#m59b96d8410" y="116.286835"/>
      </g>
     </g>
    </g>
    <g id="ytick_15">
     <g id="line2d_39">
      <g>
       <use style="stroke:#000000;stroke-width:0.8;" x="738.603333" xlink:href="#m59b96d8410" y="57.881336"/>
      </g>
     </g>
    </g>
    <g id="text_31">
     <text style="font-family:DejaVu Sans;font-size:7px;font-style:normal;font-weight:normal;text-anchor:middle;" transform="rotate(-90, 733.147552, 168.5)" x="733.147552" y="168.5">Activity</text>
    </g>
   </g>
   <g id="line2d_40">
    <path clip-path="url(#p0f39f1c91d)" d="M 753.777727 221.661771 
L 753.939642 224.692311 
L 754.42504 227.901549 
L 754.658566 228.785496 
L 754.927869 229.291596 
L 755.573545 229.560495 
L 757.290855 231.596201 
L 761.644035 240.002858 
L 762.403697 240.950434 
L 763.197301 241.464782 
L 764.024657 242.26879 
L 764.88557 243.517051 
L 765.779836 245.085667 
L 766.707241 246.368189 
L 767.667568 247.419465 
L 768.660586 248.195162 
L 769.686062 248.591678 
L 770.743752 248.880374 
L 771.833406 248.936129 
L 772.954764 249.239347 
L 774.10756 249.751075 
L 775.291522 250.52518 
L 776.506369 251.525601 
L 777.751812 252.342061 
L 779.027557 252.764593 
L 780.3333 253.0677 
L 781.668732 253.562517 
L 784.427389 255.429615 
L 788.779899 257.707025 
L 791.820575 259.273983 
L 793.381542 259.742115 
L 794.969104 259.750921 
L 796.582883 259.533151 
L 798.222498 259.716719 
L 799.887559 260.099646 
L 805.031443 261.950687 
L 806.794283 262.233 
L 808.580536 262.268978 
L 810.389779 261.976708 
L 815.95113 261.774022 
L 817.847989 261.916267 
L 821.70363 262.713767 
L 825.638776 263.403692 
L 829.649697 263.81446 
L 835.799812 264.537257 
L 839.983374 265.973502 
L 844.229102 268.046996 
L 846.374023 268.916054 
L 848.53297 269.528502 
L 850.705433 269.829548 
L 852.890896 269.859542 
L 855.08884 269.753202 
L 857.298745 269.776727 
L 859.520086 270.04891 
L 866.247445 271.393297 
L 868.509238 270.60202 
L 873.058618 267.725979 
L 875.345126 266.839775 
L 877.638791 266.176983 
L 882.245413 265.154906 
L 884.557277 264.326929 
L 889.195372 261.969674 
L 891.520502 260.704085 
L 893.848953 259.199084 
L 896.180172 257.858022 
L 898.513607 257.018395 
L 900.848703 256.69744 
L 905.521667 256.486421 
L 907.858426 256.650399 
L 912.529727 258.104333 
L 917.19438 258.982397 
L 921.847961 260.318711 
L 928.797921 263.417969 
L 931.104265 264.018397 
L 933.404542 264.040577 
L 935.698207 263.814431 
L 937.984715 263.434852 
L 947.048367 260.777198 
L 949.290997 260.295465 
L 951.523248 260.113877 
L 955.954493 259.412344 
L 958.152437 258.742214 
L 962.510363 256.484925 
L 964.669311 255.737658 
L 966.814231 255.301951 
L 971.05996 254.817514 
L 973.159761 254.496555 
L 975.243521 253.906087 
L 979.360947 252.320765 
L 981.393636 251.099431 
L 983.408332 249.134464 
L 985.404557 246.904786 
L 987.381837 245.251511 
L 991.277692 243.340005 
L 993.195344 242.004807 
L 995.092203 240.231492 
L 996.96782 237.973781 
L 998.821751 235.311405 
L 1000.653555 233.113725 
L 1002.462798 231.248277 
L 1004.249051 229.794946 
L 1006.01189 227.878423 
L 1007.750898 225.757951 
L 1009.465661 224.170037 
L 1011.155774 222.871055 
L 1012.820835 221.863803 
L 1016.07423 221.176497 
L 1019.222758 219.989265 
L 1023.742422 219.131977 
L 1025.193374 218.595058 
L 1026.615944 217.826489 
L 1028.009797 216.33714 
L 1029.374601 214.106172 
L 1032.015776 209.20529 
L 1038.08857 199.270243 
L 1039.209928 198.058921 
L 1041.357271 196.687243 
L 1042.382747 196.193869 
L 1043.375766 196.126752 
L 1044.336092 196.250035 
L 1046.157763 196.907887 
L 1047.846032 198.604417 
L 1048.639636 198.717936 
L 1050.12484 198.547599 
L 1051.472879 198.203931 
L 1052.095057 197.855315 
L 1052.682474 197.342723 
L 1054.234812 195.566702 
L 1055.093568 194.958077 
L 1056.115464 193.003081 
L 1056.815985 190.797696 
L 1057.103691 187.962671 
L 1057.265606 185.123382 
L 1057.193637 185.318944 
L 1056.977798 185.482863 
L 1056.384768 185.56275 
L 1055.810447 186.265264 
L 1055.469788 186.22532 
L 1054.681877 185.176573 
L 1054.234812 184.232487 
L 1053.752479 183.487622 
L 1053.234992 183.13324 
L 1052.682474 183.008289 
L 1052.095057 183.017439 
L 1051.472879 182.79782 
L 1049.399299 180.160161 
L 1048.639636 179.862448 
L 1047.018676 180.768037 
L 1046.157763 180.569284 
L 1044.336092 179.66626 
L 1043.375766 179.560634 
L 1042.382747 179.610339 
L 1041.357271 179.540662 
L 1039.209928 179.109367 
L 1036.935773 179.340215 
L 1035.751811 179.798696 
L 1032.015776 182.209685 
L 1029.374601 183.479713 
L 1028.009797 183.665222 
L 1026.615944 183.530437 
L 1025.193374 183.098488 
L 1022.263434 180.917043 
L 1020.75676 180.612613 
L 1019.222758 180.593779 
L 1017.661791 181.121603 
L 1016.07423 182.083165 
L 1014.46045 183.402547 
L 1012.820835 184.525271 
L 1007.750898 187.50392 
L 1004.249051 189.165673 
L 1000.653555 190.377385 
L 998.821751 190.927102 
L 996.96782 191.611464 
L 995.092203 192.632389 
L 993.195344 193.515669 
L 991.277692 194.187475 
L 987.381837 194.557809 
L 985.404557 194.077124 
L 979.360947 191.401912 
L 977.310747 191.067135 
L 975.243521 191.101764 
L 973.159761 191.521858 
L 971.05996 192.066267 
L 968.944616 192.394234 
L 966.814231 192.293812 
L 962.510363 191.815366 
L 955.954493 191.357302 
L 953.744589 191.502146 
L 951.523248 191.898689 
L 942.534095 194.17032 
L 940.263525 194.711921 
L 937.984715 195.55437 
L 935.698207 196.524527 
L 933.404542 197.07125 
L 926.486056 197.676575 
L 924.16922 198.058152 
L 921.847961 197.98134 
L 919.522831 197.506587 
L 917.19438 197.186691 
L 914.863161 197.249729 
L 912.529727 197.906846 
L 910.19463 199.082098 
L 907.858426 200.120733 
L 905.521667 201.34284 
L 903.184908 202.10702 
L 898.513607 202.853683 
L 896.180172 203.785058 
L 889.195372 207.527461 
L 886.874113 208.975464 
L 884.557277 210.818827 
L 879.939068 215.651164 
L 877.638791 217.743776 
L 875.345126 219.386264 
L 873.058618 220.384482 
L 870.779808 221.793479 
L 868.509238 223.437248 
L 866.247445 224.889281 
L 863.994966 225.867651 
L 859.520086 226.970795 
L 857.298745 227.064316 
L 855.08884 226.536882 
L 852.890896 225.390337 
L 848.53297 223.330205 
L 844.229102 220.850679 
L 842.098717 220.221064 
L 839.983374 219.937705 
L 837.883573 220.508586 
L 835.799812 221.363473 
L 829.649697 224.621968 
L 815.95113 232.648333 
L 814.075513 233.54733 
L 812.221583 234.037194 
L 810.389779 233.990039 
L 808.580536 233.126393 
L 806.794283 231.884741 
L 803.292436 228.849649 
L 801.577672 227.734903 
L 799.887559 227.014393 
L 798.222498 227.467649 
L 796.582883 228.39543 
L 794.969104 229.828361 
L 791.820575 233.06181 
L 787.300911 237.484139 
L 784.427389 239.170991 
L 783.033536 239.718168 
L 781.668732 239.978077 
L 780.3333 239.791277 
L 777.751812 238.430209 
L 774.10756 236.295212 
L 770.743752 235.662197 
L 769.686062 235.493356 
L 768.660586 234.914116 
L 767.667568 234.106174 
L 765.779836 232.283557 
L 764.024657 230.854106 
L 762.403697 229.998137 
L 761.644035 229.779325 
L 759.570455 228.658423 
L 758.948277 228.864578 
L 758.360859 229.843244 
L 757.808342 231.160525 
L 757.290855 232.058053 
L 756.808521 232.327922 
L 756.361456 232.310518 
L 755.949765 232.168402 
L 754.927869 232.311692 
L 754.658566 232.700231 
L 754.42504 233.8247 
L 754.065536 237.22847 
L 753.795721 241.700299 
L 753.795721 241.700299 
" style="fill:none;stroke:#b0c4de;stroke-linecap:square;stroke-width:1.5;"/>
   </g>
   <g id="patch_15">
    <path d="M 738.603333 329.44 
L 738.603333 7.56 
" style="fill:none;stroke:#000000;stroke-linecap:square;stroke-linejoin:miter;stroke-width:0.8;"/>
   </g>
   <g id="patch_16">
    <path d="M 1072.44 329.44 
L 1072.44 7.56 
" style="fill:none;stroke:#000000;stroke-linecap:square;stroke-linejoin:miter;stroke-width:0.8;"/>
   </g>
   <g id="patch_17">
    <path d="M 738.603333 329.44 
L 1072.44 329.44 
" style="fill:none;stroke:#000000;stroke-linecap:square;stroke-linejoin:miter;stroke-width:0.8;"/>
   </g>
   <g id="patch_18">
    <path d="M 738.603333 7.56 
L 1072.44 7.56 
" style="fill:none;stroke:#000000;stroke-linecap:square;stroke-linejoin:miter;stroke-width:0.8;"/>
   </g>
   <g id="legend_3">
    <g id="patch_19">
     <path d="M 1002.622656 23.434688 
L 1067.54 23.434688 
Q 1068.94 23.434688 1068.94 22.034688 
L 1068.94 12.46 
Q 1068.94 11.06 1067.54 11.06 
L 1002.622656 11.06 
Q 1001.222656 11.06 1001.222656 12.46 
L 1001.222656 22.034688 
Q 1001.222656 23.434688 1002.622656 23.434688 
z
" style="fill:#ffffff;opacity:0.8;stroke:#cccccc;stroke-linejoin:miter;"/>
    </g>
    <g id="line2d_41">
     <path d="M 1004.022656 16.728906 
L 1018.022656 16.728906 
" style="fill:none;stroke:#b0c4de;stroke-linecap:square;stroke-width:1.5;"/>
    </g>
    <g id="line2d_42"/>
    <g id="text_32">
     <text style="font-family:DejaVu Sans;font-size:7px;font-style:normal;font-weight:normal;text-anchor:start;" transform="rotate(-0, 1023.622656, 19.178906)" x="1023.622656" y="19.178906">Eight period</text>
    </g>
   </g>
  </g>
 </g>
 <defs>
  <clipPath id="pb9b0330b3c">
   <rect height="321.88" width="333.836667" x="35.81" y="7.56"/>
  </clipPath>
  <clipPath id="pe6477f448f">
   <rect height="321.88" width="333.836667" x="387.206667" y="7.56"/>
  </clipPath>
  <clipPath id="p0f39f1c91d">
   <rect height="321.88" width="333.836667" x="738.603333" y="7.56"/>
  </clipPath>
 </defs>
</svg>
